<svg id="Capa_1" enable-background="new 0 0 512 512" height="512" viewBox="0 0 512 512" width="512" xmlns="http://www.w3.org/2000/svg"><g><g><path clip-rule="evenodd" d="m385.948 70.343c-41.529-13.427-81.389 11.529-99.895 51.004-14.85 31.626-29.327 47.899-43.63 59.456 12.893 79.611 51.228 73.774 67.345 139.901 11.541 47.266-4.288 99.161-41.299 136.135-1.353 1.351-2.734 2.674-4.116 3.968 35.629 10.322 75.115 7.648 110.744-10.551 46.652-23.834 77.677-68.312 81.245-116.843 5.238-70.468-36.205-74.493-19.34-163.304 1.209-6.469 1.871-12.938 1.928-19.349.288-33.581-15.455-64.66-46.249-77.914-2.186-.922-4.431-1.755-6.733-2.503z" fill="#a0e5a5" fill-rule="evenodd"/></g><g><path clip-rule="evenodd" d="m501.988 53.323c-30.334-12.42-79.893-1.064-104.068 15.497-1.871 1.265-3.626 2.616-5.238 4.025 30.794 13.254 46.537 44.334 46.249 77.914 3.741-1.524 7.483-3.508 11.138-6.009 24.146-16.561 52.609-58.68 51.919-91.427z" fill="#d0f2d2" fill-rule="evenodd"/></g><g><path clip-rule="evenodd" d="m241.042 171.287c-5.468-43.241-35.687-79.237-79.317-79.237s-73.878 35.996-79.317 79.237c-11.339 89.673-52.005 80.761-68.726 149.417-11.541 47.266 4.259 99.161 41.299 136.135 29.47 29.441 68.121 44.161 106.744 44.161 36.867 0 73.705-13.398 102.629-40.194 1.381-1.294 2.763-2.616 4.116-3.968 37.011-36.973 52.84-88.868 41.299-136.135-16.117-66.127-54.451-60.29-67.345-139.901-.519-3.046-.95-6.209-1.382-9.515zm-79.317-36.657c22.477 0 34.507 22.167 37.011 41.976 5.871 46.605 17.642 74.148 46.422 110.316 12.059 15.123 18.505 24.611 23.196 43.845 8.461 34.76-5.209 71.158-30.046 95.97-20.405 20.384-47.717 31.683-76.583 31.683s-56.178-11.299-76.583-31.683c-24.837-24.812-38.507-61.21-30.046-95.97 4.691-19.234 11.138-28.722 23.196-43.845 28.78-36.168 40.522-63.712 46.422-110.316 2.504-19.81 14.534-41.976 37.011-41.976z" fill="#d0f2d2" fill-rule="evenodd"/></g><g><path clip-rule="evenodd" d="m198.736 176.606c-2.504-19.809-14.534-41.976-37.011-41.976s-34.507 22.167-37.011 41.976c-5.9 46.605-17.642 74.148-46.422 110.316-12.059 15.123-18.505 24.611-23.196 43.845-8.461 34.76 5.209 71.158 30.046 95.97 20.405 20.384 47.717 31.683 76.583 31.683s56.178-11.299 76.583-31.683c24.837-24.812 38.507-61.21 30.046-95.97-4.691-19.234-11.138-28.722-23.196-43.845-28.78-36.168-40.551-63.711-46.422-110.316zm-37.011 117.59c21.239 0 43.63 39.388 43.63 63.482 0 24.064-19.541 43.586-43.63 43.586-24.117 0-43.63-19.522-43.63-43.586 0-24.093 22.39-63.482 43.63-63.482z" fill="#fff2a0" fill-rule="evenodd"/></g><g><path clip-rule="evenodd" d="m205.355 357.678c0-24.093-22.391-63.482-43.63-63.482s-43.63 39.388-43.63 63.482c0 24.064 19.513 43.586 43.63 43.586 24.088 0 43.63-19.522 43.63-43.586z" fill="#ffa96b" fill-rule="evenodd"/></g><g><path d="m448.669 157.224c2.414-1.265 4.776-2.667 7.057-4.227 27.213-18.664 57.011-64.276 56.26-99.885-.083-3.981-2.523-7.534-6.208-9.043-28.544-11.689-72.309-4.743-101.183 9.402-.085-1.364-.199-2.734-.364-4.114-1.623-13.565-6.885-27.389-16.559-43.503-2.843-4.734-8.986-6.27-13.722-3.426-4.736 2.842-6.27 8.985-3.427 13.721 9.905 16.498 14.611 30.671 14.17 43.402-21.04-5.647-42.42-3.028-62.103 7.67-19.218 10.445-35.41 28.16-45.59 49.876-9.782 20.832-19.229 34.209-27.632 43.466-4.191-20.079-13.389-38.284-26.426-51.999-16.488-17.346-37.657-26.514-61.218-26.514-23.564 0-44.736 9.168-61.228 26.513-15.07 15.851-25.019 37.683-28.011 61.47-5.966 47.179-20.045 64.853-34.95 83.565-12.608 15.828-25.645 32.194-33.57 64.735-12.315 50.444 4.525 106.228 43.948 145.58 30.395 30.364 70.814 47.087 113.812 47.087 39.076 0 76.021-13.814 105.25-39.125 13.052 3.301 26.322 4.94 39.546 4.94 25.193 0 50.204-5.946 73.128-17.655 49.655-25.369 82.864-73.272 86.668-125.007 2.483-33.398-4.878-52.978-11.996-71.913-8.417-22.389-16.366-43.536-7.491-90.269.931-4.918 1.531-9.845 1.839-14.747zm42.975-96.803c-2.971 25.754-24.076 58.166-43.861 73.599-1.472-10.294-4.371-20.153-8.685-29.148-6.488-13.531-15.719-24.563-27.225-32.695 22.032-11.302 56.41-17.799 79.771-11.756zm-429.598 389.341c-34.509-34.447-49.318-82.99-38.648-126.691 6.884-28.265 18.007-42.229 29.783-57.013 15.967-20.046 32.479-40.774 39.149-93.523 4.27-33.948 27.807-70.485 69.395-70.485 41.554 0 65.102 36.541 69.395 70.488.42 3.333.881 6.537 1.377 9.623.032.236.07.47.119.704 7.408 45.238 22.759 64.526 37.643 83.209 11.776 14.782 22.899 28.744 29.792 57.003 10.664 43.674-4.146 92.217-38.651 126.688-26.618 26.591-62.016 41.235-99.675 41.235s-73.058-14.644-99.679-41.238zm384.323-117.084c-3.296 44.821-32.349 86.462-75.821 108.672-26.953 13.767-57.193 18.431-86.707 13.617 33.415-38.609 47.048-89.919 35.641-136.633-7.937-32.534-20.973-48.897-33.579-64.721-13.248-16.631-25.839-32.46-32.657-68.9 16.549-14.558 29.617-33.045 41.861-59.122 14.122-30.125 46.319-56.974 84.449-46.71-1.817 3.489-4.103 6.888-6.878 10.22-3.534 4.243-2.96 10.549 1.284 14.083 1.87 1.558 4.138 2.316 6.395 2.316 2.866 0 5.712-1.226 7.69-3.601 4.006-4.81 7.289-9.813 9.857-14.992 27.275 17.401 34.748 52.451 29.273 81.335-9.922 52.244-.598 77.048 8.419 101.034 6.65 17.687 12.93 34.391 10.773 63.402z"/><path d="m414.575 320.277c-5.497-.407-10.304 3.725-10.713 9.232-2.236 30.133-22.432 58.444-52.706 73.886-4.92 2.51-6.874 8.532-4.365 13.452 1.768 3.465 5.277 5.458 8.917 5.458 1.528 0 3.081-.352 4.536-1.094 36.458-18.597 60.814-53.168 63.564-90.222.409-5.507-3.725-10.303-9.233-10.712z"/><path d="m278.07 328.398c-5.323-21.824-13.031-32.583-25.087-47.702-27.93-35.101-38.701-60.698-44.326-105.344-3.191-25.247-18.941-50.722-46.932-50.722s-43.742 25.475-46.933 50.72c-5.657 44.687-16.428 70.286-44.319 105.339-12.062 15.127-19.77 25.886-25.094 47.714-8.786 36.096 3.742 76.486 32.695 105.409 9.876 9.866 21.266 17.832 33.853 23.675 5.008 2.325 10.956.149 13.282-4.859 2.326-5.01.149-10.956-4.86-13.281-10.457-4.854-19.924-11.476-28.138-19.683-24.045-24.02-34.543-57.177-27.399-86.526 4.221-17.307 9.732-25.473 21.307-39.987 30.162-37.905 42.404-66.997 48.517-115.29 1.56-12.342 9.022-33.229 27.09-33.229s25.529 20.888 27.089 33.225c6.078 48.251 18.321 77.344 48.524 115.301 11.568 14.507 17.079 22.673 21.299 39.975 7.145 29.353-3.353 62.51-27.387 86.519-8.271 8.236-17.741 14.862-28.149 19.693-5.01 2.325-7.186 8.271-4.86 13.281 1.693 3.646 5.305 5.791 9.077 5.791 1.409 0 2.842-.299 4.204-.932 12.529-5.815 23.915-13.777 33.853-23.675 28.953-28.922 41.481-69.312 32.694-105.412z"/><path d="m215.355 357.677c0-27.684-25.066-73.481-53.63-73.481-28.565 0-53.631 45.798-53.631 73.481 0 29.548 24.059 53.587 53.631 53.587s53.63-24.039 53.63-53.587zm-87.26 0c0-20.993 20.429-53.481 33.63-53.481 13.2 0 33.629 32.488 33.629 53.481 0 18.519-15.086 33.587-33.629 33.587s-33.63-15.067-33.63-33.587z"/><path d="m161.725 448.42c-5.523 0-10.001 4.478-10.001 10s4.477 10 10.001 10h.057c5.523 0 9.972-4.478 9.972-10s-4.506-10-10.029-10z"/></g></g></svg>