<svg id="Capa_1" enable-background="new 0 0 512 512" height="512" viewBox="0 0 512 512" width="512" xmlns="http://www.w3.org/2000/svg"><g><g><path clip-rule="evenodd" d="m128.743 39.689c0-16.395-13.292-29.688-29.685-29.688s-29.686 13.293-29.686 29.688c0-16.395-13.292-29.688-29.685-29.688s-29.685 13.293-29.685 29.688 13.292 29.688 29.685 29.688c-16.394 0-29.685 13.293-29.685 29.688s13.292 29.688 29.685 29.688c-16.394 0-29.685 13.293-29.685 29.688s13.292 29.688 29.685 29.688c-16.394 0-29.685 13.293-29.685 29.688s13.292 29.688 29.685 29.688c-16.394 0-29.685 13.293-29.685 29.688s13.292 29.688 29.685 29.688c-16.394 0-29.685 13.293-29.685 29.688s13.292 29.688 29.685 29.688 29.685-13.293 29.685-29.688c0 16.395 13.292 29.688 29.685 29.688s29.685-13.293 29.685-29.688c0 16.395 13.292 29.688 29.685 29.688 7.912 0 15.113-3.103 20.435-8.169-.655-5.949-.996-12.012-.996-18.16 0-89.492 72.548-162.047 162.032-162.047 6.148 0 12.21.342 18.158.996 5.066-5.323 8.168-12.524 8.168-20.437 0-16.395-13.292-29.688-29.685-29.688 16.394 0 29.685-13.293 29.685-29.688s-13.292-29.688-29.685-29.688c16.394 0 29.685-13.293 29.685-29.688s-13.292-29.688-29.685-29.688c-16.394 0-29.685 13.293-29.685 29.688 0-16.395-13.292-29.688-29.685-29.688-16.394 0-29.685 13.293-29.685 29.688 0-16.395-13.292-29.688-29.685-29.688s-29.685 13.293-29.685 29.688c0-16.395-13.292-29.688-29.685-29.688-16.394.001-29.686 13.294-29.686 29.689z" fill="#ffea60" fill-rule="evenodd"/></g><g><path clip-rule="evenodd" d="m339.899 177.883c-89.483 0-162.032 72.556-162.032 162.047 0 6.148.342 12.211.996 18.16 9.022 80.953 77.7 143.916 161.035 143.916 89.512 0 162.06-72.556 162.06-162.076 0-83.344-62.957-152.028-143.902-161.051-5.947-.654-12.009-.996-18.157-.996z" fill="#fff2a0" fill-rule="evenodd"/></g><g><path d="m108.479 102.358c-5.523 0-10 4.478-10 10.001s4.477 10.001 10 10.001h.028c5.523 0 9.986-4.478 9.986-10.001s-4.491-10.001-10.014-10.001z"/><path d="m188.057 122.359h.057c5.523 0 9.971-4.478 9.971-10.001s-4.505-10.001-10.028-10.001-10 4.478-10 10.001 4.477 10.001 10 10.001z"/><path d="m267.749 122.359c5.523 0 10-4.478 10-10.001s-4.477-10.001-10-10.001h-.028c-5.523 0-9.986 4.478-9.986 10.001s4.491 10.001 10.014 10.001z"/><path d="m108.479 253.902c-5.523 0-10 4.478-10 10.001s4.477 10.001 10 10.001h.028c5.523 0 9.986-4.478 9.986-10.001s-4.491-10.001-10.014-10.001z"/><path d="m108.479 178.13c-5.523 0-10 4.478-10 10.001s4.477 10.001 10 10.001h.028c5.523 0 9.986-4.478 9.986-10.001s-4.491-10.001-10.014-10.001z"/><path d="m188.057 198.131h.057c5.523 0 9.971-4.478 9.971-10.001s-4.505-10.001-10.028-10.001-10 4.478-10 10.001 4.477 10.001 10 10.001z"/><path d="m281.582 329.93c-5.523 0-10 4.478-10 10.001s4.477 10.001 10 10.001h.028c5.523 0 9.986-4.478 9.986-10.001s-4.491-10.001-10.014-10.001z"/><path d="m339.899 329.93c-5.523 0-10 4.478-10 10.001s4.477 10.001 10 10.001h.029c5.523 0 9.985-4.478 9.985-10.001s-4.491-10.001-10.014-10.001z"/><path d="m398.217 329.93c-5.523 0-9.986 4.478-9.986 10.001s4.491 10.001 10.014 10.001 10-4.478 10-10.001-4.477-10.001-10-10.001z"/><path d="m261.089 256.89c-5.523 0-10 4.478-10 10.001s4.477 10.001 10 10.001h.029c5.523 0 9.986-4.478 9.986-10.001s-4.492-10.001-10.015-10.001z"/><path d="m339.899 277.385c-5.523 0-10 4.478-10 10.001s4.477 10.001 10 10.001h.029c5.523 0 9.985-4.478 9.985-10.001s-4.491-10.001-10.014-10.001z"/><path d="m418.766 256.89h-.057c-5.523 0-9.972 4.478-9.972 10.001s4.506 10.001 10.029 10.001 10-4.478 10-10.001-4.477-10.001-10-10.001z"/><path d="m261.061 402.998c-5.523 0-10 4.478-10 10.001s4.477 10.001 10 10.001h.028c5.523 0 9.986-4.478 9.986-10.001s-4.491-10.001-10.014-10.001z"/><path d="m339.871 382.475c-5.523 0-10 4.478-10 10.001s4.477 10.001 10 10.001h.028c5.523 0 9.986-4.478 9.986-10.001s-4.491-10.001-10.014-10.001z"/><path d="m418.709 402.998h-.028c-5.523 0-9.986 4.478-9.986 10.001s4.491 10.001 10.014 10.001 10-4.478 10-10.001-4.477-10.001-10-10.001z"/><path d="m456.535 329.93c-5.523 0-10 4.478-10 10.001s4.477 10.001 10 10.001h.028c5.523 0 9.986-4.478 9.986-10.001s-4.491-10.001-10.014-10.001z"/><path d="m223.264 329.93c-5.523 0-9.986 4.478-9.986 10.001s4.491 10.001 10.014 10.001 10-4.478 10-10.001-4.477-10.001-10-10.001z"/><path d="m339.899 224.84c-5.523 0-10 4.478-10 10.001s4.477 10.001 10 10.001h.029c5.523 0 9.985-4.478 9.985-10.001s-4.491-10.001-10.014-10.001z"/><path d="m339.814 435.048c-5.523 0-10 4.478-10 10.001s4.477 10.001 10 10.001h.057c5.523 0 9.971-4.478 9.971-10.001s-4.505-10.001-10.028-10.001z"/><path d="m511.866 333.156c-.22-5.518-4.865-9.803-10.391-9.594-5.519.221-9.813 4.873-9.593 10.391 2.666 66.783-39.724 128.448-103.084 149.959-79.393 26.951-165.91-15.698-192.865-95.078-3.522-10.376-5.845-20.875-7.063-31.345-.022-.369-.062-.737-.124-1.102-7.542-69.273 33.633-137.128 102.284-160.437 63.339-21.505 134.513 1.602 173.077 56.19 3.187 4.511 9.427 5.584 13.938 2.397 4.51-3.187 5.583-9.427 2.396-13.938-20.973-29.687-51.612-52.396-86.275-63.943-6.624-2.207-13.318-3.999-20.056-5.381 1.39-4.083 2.117-8.408 2.117-12.831 0-11.799-5.176-22.412-13.375-29.688 8.199-7.276 13.375-17.89 13.375-29.689s-5.176-22.413-13.375-29.689c8.199-7.276 13.375-17.889 13.375-29.688-.001-21.885-17.804-39.69-39.686-39.69-11.797 0-22.41 5.176-29.685 13.375-7.276-8.199-17.889-13.375-29.686-13.375s-22.41 5.176-29.686 13.375c-7.275-8.199-17.887-13.375-29.685-13.375s-22.41 5.176-29.686 13.375c-7.275-8.199-17.887-13.375-29.685-13.375s-22.41 5.176-29.685 13.375c-7.275-8.199-17.888-13.375-29.685-13.375s-22.41 5.176-29.686 13.375c-7.275-8.199-17.888-13.375-29.685-13.375-21.883 0-39.685 17.805-39.685 39.689 0 11.799 5.176 22.412 13.375 29.688-8.2 7.276-13.375 17.89-13.375 29.689s5.176 22.413 13.375 29.689c-8.199 7.276-13.375 17.889-13.375 29.688s5.176 22.413 13.375 29.689c-8.199 7.276-13.375 17.89-13.375 29.689s5.176 22.412 13.375 29.688c-8.199 7.276-13.375 17.89-13.375 29.689s5.176 22.413 13.375 29.689c-8.199 7.276-13.375 17.889-13.375 29.688 0 21.884 17.803 39.689 39.686 39.689 11.797 0 22.41-5.176 29.685-13.375 7.275 8.199 17.888 13.375 29.686 13.375s22.41-5.176 29.686-13.375c7.275 8.199 17.888 13.375 29.685 13.375 4.431 0 8.762-.729 12.851-2.124 1.438 7.068 3.337 14.123 5.715 21.128 24.297 71.553 91.362 116.734 163.052 116.732 18.301-.001 36.909-2.946 55.178-9.148 35.849-12.171 65.982-35.144 87.142-66.435 20.471-30.274 30.948-66.947 29.498-103.261zm-353.438 23.104c-10.854 0-19.685-8.832-19.685-19.688 0-5.523-4.477-10.001-10-10.001s-10 4.478-10 10.001c0 10.856-8.831 19.688-19.686 19.688s-19.686-8.832-19.686-19.688c0-5.523-4.477-10.001-10-10.001s-10 4.478-10 10.001c0 10.856-8.831 19.688-19.685 19.688s-19.686-8.832-19.686-19.688c0-10.855 8.831-19.687 19.686-19.687 5.523 0 10-4.478 10-10.001s-4.477-10.001-10-10.001c-10.854 0-19.686-8.832-19.686-19.688s8.831-19.688 19.686-19.688c5.523 0 10-4.478 10-10.001s-4.477-10.001-10-10.001c-10.854 0-19.686-8.832-19.686-19.687 0-10.856 8.831-19.688 19.686-19.688 5.523 0 10-4.478 10-10.001s-4.477-10.001-10-10.001c-10.854 0-19.686-8.832-19.686-19.688 0-10.855 8.831-19.687 19.686-19.687 5.523 0 10-4.478 10-10.001s-4.477-10.001-10-10.001c-10.854 0-19.686-8.832-19.686-19.688s8.831-19.688 19.686-19.688c5.523 0 10-4.478 10-10.001s-4.477-10.001-10-10.001c-10.854 0-19.686-8.832-19.686-19.687 0-10.856 8.831-19.688 19.686-19.688s19.685 8.832 19.685 19.688c0 5.523 4.477 10.001 10 10.001s10-4.478 10-10.001c0-10.856 8.831-19.688 19.686-19.688s19.686 8.832 19.686 19.688c0 5.523 4.477 10.001 10 10.001s10-4.478 10-10.001c0-10.856 8.831-19.688 19.685-19.688s19.686 8.832 19.686 19.688c0 5.523 4.477 10.001 10 10.001s10-4.478 10-10.001c0-10.856 8.831-19.688 19.686-19.688s19.685 8.832 19.685 19.688c0 5.523 4.477 10.001 10 10.001s10-4.478 10-10.001c0-10.856 8.831-19.688 19.686-19.688s19.686 8.832 19.686 19.688c0 5.523 4.477 10.001 10 10.001s10-4.478 10-10.001c0-10.856 8.831-19.688 19.685-19.688s19.686 8.832 19.686 19.688c0 10.855-8.831 19.687-19.686 19.687-5.523 0-10 4.478-10 10.001s4.477 10.001 10 10.001c10.854 0 19.686 8.832 19.686 19.688s-8.831 19.688-19.686 19.688c-5.523 0-10 4.478-10 10.001s4.477 10.001 10 10.001c10.854 0 19.686 8.832 19.686 19.687 0 3.531-.946 6.923-2.68 9.9-23.11-1.865-46.43 1.023-68.946 8.668-76.027 25.813-122.278 99.907-116.213 176.534-2.994 1.76-6.408 2.718-9.961 2.718z"/><path d="m493.335 297.841c5.523 0 10-4.478 10-10.001v-.057c0-5.523-4.477-9.972-10-9.972s-10 4.506-10 10.029 4.477 10.001 10 10.001z"/></g></g></svg>