<svg id="Capa_1" enable-background="new 0 0 512 512" height="512" viewBox="0 0 512 512" width="512" xmlns="http://www.w3.org/2000/svg"><g><g><path clip-rule="evenodd" d="m306.165 478.475c15.447 15.447 35.769 23.27 56.148 23.468h1.53c20.379-.198 40.701-8.021 56.176-23.468l58.443-58.443c31.291-31.319 31.291-82.563 0-113.854 14.908 14.908 1.474 34.805-14.37 39.34-40.134 11.479-80.834 10.685-118.417.17 10.515 37.583 11.309 78.283-.17 118.417-4.535 15.843-24.431 29.278-39.34 14.37z" fill="#fff2a0" fill-rule="evenodd"/></g><g><path clip-rule="evenodd" d="m286.949 245.382c27.691 27.776 48.155 62.468 58.727 100.306 37.583 10.515 78.283 11.309 118.417-.17 15.844-4.535 29.278-24.432 14.37-39.34l-126.156-126.155-126.154-126.155c-2.352-2.352-4.818-3.996-7.341-5.045-13.463-5.584-28.201 6.065-31.999 19.415-1.616 5.612-2.976 11.224-4.11 16.836-6.972 34.607-5.102 69.242 3.94 101.581 37.838 10.572 72.529 31.036 100.306 58.727z" fill="#ffea60" fill-rule="evenodd"/></g><g><path clip-rule="evenodd" d="m180.01 352.32 126.155 126.155c14.908 14.908 34.805 1.474 39.34-14.37 11.479-40.134 10.685-80.834.17-118.417-10.572-37.838-31.036-72.53-58.727-100.306-27.776-27.691-62.468-48.155-100.306-58.727-32.339-9.07-66.975-10.912-101.581-3.94-5.612 1.134-11.224 2.494-16.836 4.11-13.35 3.798-24.999 18.536-19.415 31.999 1.049 2.523 2.693 4.988 5.045 7.341z" fill="#ffea60" fill-rule="evenodd"/></g><g><path clip-rule="evenodd" d="m85.061 182.715c34.607-6.972 69.242-5.13 101.581 3.94-9.041-32.339-10.912-66.974-3.94-101.581-26.869-9.297-57.905-3.203-79.36 18.281-21.483 21.456-27.549 52.463-18.281 79.36z" fill="#ff7b79" fill-rule="evenodd"/></g><g><path clip-rule="evenodd" d="m11.313 172.852v19.783c1.587 5.839 4.62 11.281 9.155 15.815 7.681 7.681 18.054 11.11 28.343 10.374-5.584-13.463 6.065-28.201 19.415-31.999 5.612-1.616 11.224-2.976 16.836-4.11-9.268-26.897-3.203-57.905 18.281-79.36 21.456-21.484 52.491-27.578 79.36-18.281 1.134-5.612 2.494-11.224 4.11-16.836 3.798-13.35 18.536-24.998 31.999-19.415.737-10.289-2.693-20.662-10.374-28.343-14.455-14.455-38.461-13.888-53.625 1.275-1.304 1.332-.794 1.332-2.069.057-14.455-14.455-38.461-13.888-53.625 1.275-3.996 3.996-7.001 8.616-8.956 13.52-14.427-8.928-34.097-6.717-47.191 6.377s-15.305 32.765-6.377 47.191c-4.903 1.956-9.523 4.96-13.52 8.956-15.164 15.163-15.73 39.17-1.275 53.597 1.275 1.304 1.275.794-.057 2.097-5.215 5.216-8.701 11.48-10.43 18.027z" fill="#a0e5a5" fill-rule="evenodd"/></g><g><path d="m257.344 292.786-17.8-17.799c-3.906-3.905-10.235-3.904-14.141 0-3.905 3.905-3.905 10.236 0 14.14l17.8 17.799c1.953 1.952 4.511 2.928 7.07 2.928s5.118-.976 7.07-2.929c3.905-3.903 3.905-10.234.001-14.139z"/><path d="m157.174 240.063c-3.908-3.901-10.238-3.897-14.14.011s-3.897 10.239.011 14.14l17.827 17.8c1.952 1.949 4.508 2.923 7.065 2.923 2.561 0 5.122-.978 7.075-2.934 3.902-3.908 3.897-10.239-.011-14.14z"/><path d="m274.463 357.324c-3.904-3.905-10.233-3.904-14.141 0-3.905 3.905-3.905 10.236 0 14.14l17.799 17.799c1.953 1.953 4.511 2.929 7.07 2.929 2.558 0 5.118-.976 7.07-2.928 3.905-3.905 3.905-10.236 0-14.14z"/><path d="m240.062 143.045c-3.908 3.901-3.913 10.232-.012 14.14l17.799 17.828c1.953 1.956 4.515 2.934 7.076 2.934 2.556 0 5.113-.974 7.065-2.923 3.908-3.901 3.913-10.232.012-14.14l-17.799-17.828c-3.902-3.907-10.233-3.913-14.141-.011z"/><path d="m357.311 274.475 17.8 17.8c1.953 1.952 4.511 2.928 7.07 2.928s5.118-.976 7.07-2.928c3.905-3.905 3.905-10.236 0-14.141l-17.8-17.8c-3.906-3.905-10.235-3.905-14.141 0-3.903 3.904-3.903 10.236.001 14.141z"/><path d="m345.265 187.121c1.949 1.949 4.499 2.922 7.05 2.922 2.559 0 5.121-.98 7.076-2.936 3.905-3.905 3.891-10.25-.014-14.155-3.906-3.905-10.235-3.905-14.141 0-3.905 3.905-3.905 10.236 0 14.141z"/><path d="m485.611 299.19c-.027-.027-.051-.056-.079-.083l-94.411-94.41c-3.906-3.905-10.235-3.904-14.141 0-3.905 3.904-3.905 10.236 0 14.14l94.411 94.41c3.131 3.131 4.149 6.293 3.203 9.949-1.421 5.489-7.119 10.952-13.252 12.707-34.983 10.006-72.092 10.521-107.677 1.554-11.153-36.577-31.345-70.788-59.655-99.156-28.368-28.294-62.572-48.479-99.137-59.632-8.968-35.584-8.454-72.695 1.553-107.682 1.756-6.135 7.219-11.833 12.707-13.253 3.654-.947 6.818.07 9.949 3.203l94.411 94.41c3.906 3.905 10.235 3.905 14.141 0 3.905-3.905 3.905-10.236 0-14.141l-94.411-94.41c-1.415-1.415-2.898-2.663-4.432-3.765-.73-11.191-5.39-21.732-13.283-29.623-8.943-8.945-20.969-13.713-33.854-13.395-10.124.24-19.826 3.595-27.983 9.579-18.444-12.862-44.585-10.615-61.622 6.423-2.346 2.347-4.432 4.873-6.244 7.561-16.969-5.714-36.32-1.246-49.903 12.336-13.583 13.585-18.051 32.933-12.336 49.905-2.688 1.812-5.214 3.897-7.562 6.244-9.158 9.159-14.368 21.201-14.67 33.908-.241 10.138 2.652 19.736 8.253 27.717-13.879 18.973-12.716 45.308 3.81 61.835 7.893 7.893 18.434 12.557 29.626 13.286 1.101 1.533 2.348 3.015 3.761 4.429l252.309 252.309c.429.429.865.84 1.305 1.24 17.47 16.795 40.063 25.217 62.681 25.215 23.173-.002 46.358-8.82 64.009-26.455l58.446-58.447c35.245-35.275 35.268-92.629.077-127.908zm-447.247-95.056c-.298 1.152-.516 2.3-.679 3.443-3.815-1.251-7.297-3.347-10.147-6.197-10.52-10.52-9.964-28.2 1.23-39.439.091-.088.169-.156.23-.212 2.452-2.205 3.713-4.843 3.749-7.84.034-2.997-1.163-5.662-3.56-7.921-.063-.061-.145-.134-.24-.232-.028-.028-.057-.057-.084-.085-5.036-5.025-7.712-11.846-7.537-19.207.18-7.546 3.311-14.734 8.818-20.242 2.969-2.969 6.386-5.237 10.155-6.739 2.745-1.095 4.866-3.349 5.791-6.156.926-2.807.561-5.88-.994-8.394-6.626-10.707-4.546-25.367 4.946-34.859s24.152-11.57 34.858-4.945c2.512 1.555 5.585 1.92 8.394.994 2.807-.926 5.061-3.046 6.156-5.791 1.504-3.769 3.771-7.185 6.74-10.154 11.235-11.237 28.949-11.81 39.484-1.275.093.092.162.17.218.231 2.225 2.42 4.871 3.647 7.865 3.647h.064c3.021-.018 5.678-1.279 7.897-3.749.056-.062.124-.14.212-.231 5.502-5.479 12.672-8.594 20.199-8.773 7.369-.181 14.2 2.504 19.239 7.544 2.849 2.849 4.945 6.332 6.197 10.147-1.143.163-2.291.381-3.443.679-12.378 3.205-23.197 14.099-26.922 27.112-.685 2.395-1.327 4.799-1.93 7.211-28.285-5.823-58.323 2.884-78.992 23.581-20.686 20.658-29.393 50.697-23.584 78.999-2.412.604-4.819 1.246-7.219 1.933-13.012 3.722-23.906 14.541-27.111 26.92zm134.75-30.973c-26.518-5.375-53.883-6.11-80.853-1.864-4.652-21.981 1.949-44.691 18.157-60.877 15.926-15.948 39.071-22.645 60.858-18.132-4.22 26.735-3.605 54.114 1.838 80.873zm150.07 301.446c-3.657.945-6.818-.071-9.949-3.203l-252.309-252.309c-3.131-3.131-4.149-6.293-3.203-9.949 1.421-5.489 7.119-10.952 13.252-12.708 18.546-5.305 37.525-7.889 56.44-7.889 55.759 0 110.919 22.465 152.456 63.896 55.5 55.615 76.967 135.665 56.021 208.909-1.756 6.134-7.219 11.832-12.708 13.253zm148.208-61.646-58.44 58.44c-13.754 13.742-31.812 20.613-49.87 20.611-7.77 0-15.538-1.281-22.964-3.826 7.017-5.141 12.55-12.77 15.001-21.333 10.131-35.426 11.216-72.285 4.054-107.637 15.07 3.065 30.334 4.603 45.572 4.602 20.949 0 41.849-2.897 62.099-8.689 8.562-2.45 16.19-7.983 21.331-15.001 8.458 24.682 2.869 53.164-16.783 72.833z"/></g></g></svg>