<svg id="Capa_1" enable-background="new 0 0 512 512" height="512" viewBox="0 0 512 512" width="512" xmlns="http://www.w3.org/2000/svg"><g><g><path clip-rule="evenodd" d="m133.116 14.742c-20.908 16.714-27.113 48.867-15.327 73.711-23.061 13.966-35.555 43.371-28.246 68.527 16.658-9.717 35.47-16.431 55.727-19.32 9.972-1.416 19.888-1.813 29.577-1.331-.935-9.972-.057-20.028 2.89-29.887 2.833-9.348 7.281-17.847 13.117-25.382-.17-29.518-14.449-55.949-37.878-68.272-9.689-5.071-14.335-2.465-19.86 1.954z" fill="#ffea60" fill-rule="evenodd"/></g><g><path clip-rule="evenodd" d="m320.496 49.246c-51.874-15.552-103.946-1.416-129.642 31.813-5.836 7.535-10.284 16.034-13.117 25.382-2.946 9.858-3.825 19.915-2.89 29.887 22.92 1.19 44.791 7.507 64.282 17.96 1.19-8.952 3.173-18.244 5.978-27.62 15.215-50.679 48.956-85.354 75.389-77.422z" fill="#fff2a0" fill-rule="evenodd"/></g><g><path clip-rule="evenodd" d="m320.496 49.246c-26.433-7.932-60.174 26.742-75.388 77.422-2.805 9.377-4.788 18.669-5.978 27.62 27.283 14.646 49.919 37.422 64.254 65.581 15.214-13.768 29.124-36.742 37.453-64.504 15.214-50.68 6.092-98.187-20.341-106.119z" fill="#faf7f5" fill-rule="evenodd"/></g><g><path clip-rule="evenodd" d="m320.496 49.246c26.433 7.932 35.555 55.439 20.342 106.119-8.329 27.762-22.24 50.737-37.453 64.504 3.145 6.147 5.864 12.55 8.159 19.178 34.705-.935 65.586-14.844 83.547-38.074 5.836-7.535 10.312-16.034 13.117-25.382 2.805-9.377 3.74-18.924 3.031-28.414-3.173-41.897-38.841-82.378-90.743-97.931z" fill="#fff2a0" fill-rule="evenodd"/></g><g><path clip-rule="evenodd" d="m480.452 111.031c-26.348-2.635-52.837 11.615-69.212 36.147.708 9.49-.227 19.037-3.031 28.414-2.805 9.348-7.281 17.847-13.117 25.382.17 29.49 14.449 55.949 37.878 68.244 9.689 5.099 14.335 2.493 19.86-1.926 20.908-16.714 27.113-48.895 15.327-73.739 16.743-10.142 27.934-28.385 29.974-47.28v-12.465c-.368-3.456-1.105-6.884-2.181-10.227-2.183-6.743-4.619-11.473-15.498-12.55z" fill="#ffea60" fill-rule="evenodd"/></g><g><path clip-rule="evenodd" d="m318.513 267.915c-47.851-35.977-115.788-26.346-151.74 21.473 47.822 35.977 57.455 103.909 21.475 151.756 83.802-11.869 142.135-89.433 130.265-173.229z" fill="#ffbdbc" fill-rule="evenodd"/></g><g><path clip-rule="evenodd" d="m427.53 448.368-122.757-92.295c-8.669 17.932-20.795 34.051-35.64 47.394l117.799 88.584 4.958 3.711c14.25 10.708 30.144 6.402 39.663-3.711 10.822-11.53 13.428-30.567-4.023-43.683z" fill="#faf7f5" fill-rule="evenodd"/></g><g><path clip-rule="evenodd" d="m166.773 289.388c-35.98 47.847-103.917 57.45-151.74 21.501 11.842 83.796 89.412 142.096 173.214 130.255 35.981-47.847 26.349-115.779-21.474-151.756z" fill="#faf7f5" fill-rule="evenodd"/></g><g><path clip-rule="evenodd" d="m89.544 156.98c-52.185 30.453-83.519 90.397-74.51 153.909 47.822 35.949 115.759 26.346 151.74-21.501-47.851-35.949-57.455-103.881-21.503-151.728-20.257 2.889-39.069 9.603-55.727 19.32z" fill="#ffbdbc" fill-rule="evenodd"/></g><g><path clip-rule="evenodd" d="m239.13 154.289c-19.492-10.453-41.363-16.771-64.282-17.96-9.689-.482-19.605-.085-29.577 1.331-35.952 47.847-26.348 115.779 21.503 151.728 35.952-47.819 103.889-57.45 151.74-21.473-1.417-10-3.768-19.66-6.969-28.867-2.295-6.629-5.015-13.031-8.159-19.178-14.337-28.159-36.973-50.935-64.256-65.581z" fill="#faf7f5" fill-rule="evenodd"/></g><path d="m505.463 120.501c-2.96-9.145-7.919-17.829-24.017-19.42-23.105-2.308-46.406 6.546-64.415 23.718-3.238-10.233-8.215-20.298-14.897-29.926-17.851-25.719-45.823-45.324-78.765-55.205-32.933-9.882-67.072-8.912-96.129 2.728-10.879 4.359-20.574 10.02-28.91 16.781-5.587-24.224-20.16-44.438-40.718-55.251-14.334-7.502-23.247-2.99-30.74 3.005-22.172 17.726-30.603 49.963-21.31 77.862-20.282 16.024-31.144 42.771-27.313 67.343-15.986 10.322-30.192 23.493-41.968 39.157-26.201 34.855-37.264 77.825-31.149 120.995 0 .003.001.006.001.008 11.507 81.391 81.562 140.37 161.55 140.368 7.481 0 15.055-.522 22.671-1.584.016-.002.031-.004.047-.006.083-.012.165-.019.248-.031 29.767-4.216 57.174-16.252 79.916-34.743l19.906 14.961c1.8 1.353 3.909 2.007 6 2.007 3.037 0 6.037-1.379 8.002-3.993 3.318-4.414 2.429-10.683-1.986-14.002l-16.98-12.762c4.506-4.709 8.765-9.711 12.743-15.001s7.602-10.77 10.875-16.406l113.399 85.258c6.336 4.759 9.274 10.655 8.497 17.052-.875 7.206-6.205 14.067-13.264 17.072-4.442 1.894-11.319 2.955-18.857-2.718l-24.704-18.584c-4.415-3.321-10.683-2.434-14.003 1.979-3.32 4.414-2.434 10.682 1.979 14.003l24.704 18.584c7.257 5.459 15.462 8.247 23.742 8.247 5.027 0 10.084-1.028 14.973-3.109 13.625-5.801 23.55-18.779 25.284-33.063 1.64-13.502-4.317-26.424-16.337-35.452l-116.314-87.45c11.451-26.98 15.405-56.648 11.189-86.413-.889-6.272-2.136-12.406-3.698-18.395 24.587-2.827 46.292-11.745 62.897-25.261 5.586 24.229 20.157 44.432 40.698 55.211 5.368 2.825 9.978 3.961 14.036 3.961 6.784 0 12.032-3.173 16.725-6.927 22.174-17.725 30.604-49.967 21.316-77.872 23.141-18.164 33.849-49.717 25.076-76.726zm-187.841-61.677c8.911 2.674 15.778 13.366 18.842 29.335 3.546 18.492 1.698 41.338-5.204 64.332-5.949 19.829-15.113 37.657-25.867 50.729-13.923-22.321-33.001-40.848-55.343-54.137 1.137-6.485 2.69-13.034 4.636-19.54 14.542-48.441 44.836-76.153 62.936-70.719zm-13.896 188.542c-20.684-9.768-43.773-13.318-66.947-10.038-27.826 3.94-52.8 17.308-71.349 37.974-16.821-15.349-27.698-35.877-30.934-58.718-3.488-24.635 2.312-49.163 16.345-69.538 5.376-.603 10.722-.912 16.017-.912 62.747 0 118.535 41.392 136.868 101.232zm-116.41-138.049c2.409-8.027 6.232-15.339 11.206-21.847.124-.148.238-.302.353-.457 16.703-21.494 46.102-34.042 79.028-34.088-2.176 1.857-4.336 3.883-6.473 6.077-15.337 15.754-28.086 38.764-35.902 64.8-1.57 5.249-2.902 10.525-4.006 15.788-14.77-6.413-30.582-10.688-46.991-12.487.143-6.064 1.062-12.023 2.785-17.786zm-64.347-12.31c4.389-2.657 6.054-8.205 3.855-12.84-9.951-20.975-4.444-48.04 12.538-61.616 3.834-3.066 4.235-3.386 8.958-.914 19.073 10.031 31.305 31.36 32.44 56.17-5.557 7.827-9.812 16.467-12.604 25.771-2.194 7.337-3.382 14.896-3.604 22.574-6.833.097-13.734.624-20.673 1.606-.011.002-.022.003-.033.005-16.278 2.308-31.848 6.956-46.337 13.718.283-17.227 10.051-35.142 25.46-44.474zm-70.701 106.304c11.517-15.32 25.68-27.93 41.708-37.377.377-.186.745-.387 1.09-.615 9.324-5.385 19.259-9.723 29.671-12.894-9.772 20.691-13.324 43.787-10.042 66.962 3.941 27.825 17.31 52.794 37.98 71.338-32.847 35.888-87.762 42.471-128.264 14.585-4.104-36.469 5.71-72.539 27.857-101.999zm130.409 228.447c-5.365.6-10.695.907-15.981.907-62.778-.005-118.585-41.413-136.891-101.259 15.978 7.513 33.134 11.182 50.2 11.182 32.687 0 65.034-13.459 88.101-39.103 35.883 32.853 42.46 87.771 14.571 128.273zm98.588-56.266c-18.452 24.537-43.686 42.123-72.504 50.893 21.923-46.593 11.131-103.21-27.904-138.331 15.353-16.817 35.885-27.692 58.726-30.925 24.645-3.491 49.178 2.316 69.552 16.361 4.105 36.47-5.714 72.54-27.87 102.002zm37.045-146.833c-.901-2.248-1.854-4.466-2.849-6.659 14.788-15.608 27.341-38.381 34.954-63.76 7.812-26.022 9.832-52.249 5.689-73.848-.575-3-1.262-5.873-2.056-8.615 35.915 23.761 55.033 62.057 44.581 96.942-2.393 7.976-6.214 15.31-11.229 21.87-.063.076-.123.156-.184.234-14.643 18.993-39.385 31.421-68.906 33.836zm144.671-43.663c-4.392 2.656-6.06 8.206-3.86 12.842 9.957 20.987 4.45 48.063-12.539 61.644-3.82 3.057-4.219 3.378-8.966.881-19.077-10.011-31.308-31.343-32.433-56.173 5.53-7.787 9.808-16.407 12.605-25.728 2.785-9.296 3.987-18.842 3.657-28.428 14.614-20.116 36.578-31.186 58.022-29.052 5.3.524 5.426.914 6.971 5.687 6.72 20.688-3.584 46.308-23.457 58.327z"/><g><path d="m331.327 460.202c-2.552 0-5.102-.973-7.051-2.922l-.028-.028c-3.905-3.905-3.905-10.237 0-14.142 3.906-3.904 10.236-3.904 14.143 0 3.905 3.905 3.919 10.251.014 14.156-1.957 1.956-4.519 2.936-7.078 2.936z"/></g></g></svg>