<svg id="Capa_1" enable-background="new 0 0 512 512" height="512" viewBox="0 0 512 512" width="512" xmlns="http://www.w3.org/2000/svg"><g><g><path clip-rule="evenodd" d="m68.223 10c-11.051 0-20.091 9.042-20.091 20.097v70.893h84.444v-90.99z" fill="#ffa96b" fill-rule="evenodd"/></g><g><path clip-rule="evenodd" d="m212.004 10h-79.428v90.99h84.415v-86.001c0-2.75-2.239-4.989-4.987-4.989z" fill="#ffd4b5" fill-rule="evenodd"/></g><g><path clip-rule="evenodd" d="m48.132 100.99h84.444v90.99h-84.444z" fill="#ffd4b5" fill-rule="evenodd"/></g><g><path clip-rule="evenodd" d="m132.576 100.99h84.415v90.99h-84.415z" fill="#ffa96b" fill-rule="evenodd"/></g><g><path clip-rule="evenodd" d="m296.447 100.99h-79.456v90.99h84.444v-86.001c-.001-2.749-2.239-4.989-4.988-4.989z" fill="#ffd4b5" fill-rule="evenodd"/></g><g><path clip-rule="evenodd" d="m216.991 191.981h84.444v58.279h-84.444z" fill="#ffa96b" fill-rule="evenodd"/></g><g><path clip-rule="evenodd" d="m132.576 191.981h84.415v58.279h-84.415z" fill="#ffd4b5" fill-rule="evenodd"/></g><g><path clip-rule="evenodd" d="m48.132 191.981h84.444v58.279h-84.444z" fill="#ffa96b" fill-rule="evenodd"/></g><g><path clip-rule="evenodd" d="m430.395 63.149-53.755 73.416 68.093 49.917 41.91-57.202c6.517-8.929 4.562-21.571-4.336-28.091z" fill="#ffa96b" fill-rule="evenodd"/></g><g><path clip-rule="evenodd" d="m132.576 250.26h-84.444-16.35c-5.667 0-10.286 4.62-10.286 10.29v51.618c0 5.499 4.477 9.014 9.833 10.205.142.028.283.057.453.085l191.472 37.048c12.1 2.353 16.69 5.556 29.499-5.131l65.486-54.623 1.587-1.332c6.943-5.783 8.246-9.666 8.246-17.518v-20.352c0-5.669-4.619-10.29-10.286-10.29h-16.35-84.444z" fill="#faf7f5" fill-rule="evenodd"/></g><g><path clip-rule="evenodd" d="m223.253 359.505-191.471-37.048c-.17-.028-.312-.057-.453-.085v81.126h286.91v-103.746l-65.486 54.623c-12.809 10.686-17.4 7.483-29.5 5.13z" fill="#a0e5a5" fill-rule="evenodd"/></g><g><path clip-rule="evenodd" d="m31.328 403.498h286.91v44.702h-286.91z" fill="#d0f2d2" fill-rule="evenodd"/></g><g><path clip-rule="evenodd" d="m318.238 448.199h-286.91v36.963c0 9.241 7.566 16.837 16.804 16.837h253.302c9.238 0 16.804-7.568 16.804-16.837z" fill="#a0e5a5" fill-rule="evenodd"/></g><g><path d="m488.218 93.122-51.913-38.04c-2.139-1.567-4.81-2.22-7.437-1.816-2.621.405-4.975 1.835-6.542 3.976l-53.755 73.416c-3.262 4.454-2.296 10.708 2.156 13.973l68.094 49.917c1.726 1.265 3.799 1.935 5.912 1.935.507 0 1.017-.038 1.523-.117 2.622-.403 4.976-1.833 6.543-3.973l41.921-57.217c9.778-13.398 6.861-32.262-6.502-42.054zm-9.64 30.247-35.999 49.134-51.966-38.095 41.94-57.28 43.845 32.127c4.483 3.285 5.457 9.624 2.18 14.114z"/><path d="m313.74 25.591c2.567 0 5.137-.979 7.093-2.936 3.905-3.905 3.905-10.237 0-14.143-3.906-3.904-10.236-3.904-14.143 0l-.028.028c-3.905 3.905-3.891 10.223.015 14.128 1.948 1.95 4.505 2.923 7.063 2.923z"/><path d="m269.392 55.553c2.567 0 5.137-.979 7.093-2.936 3.905-3.905 3.905-10.237 0-14.143-3.906-3.904-10.236-3.904-14.143 0l-.028.028c-3.905 3.905-3.891 10.223.015 14.128 1.949 1.95 4.505 2.923 7.063 2.923z"/><path d="m361.26 40.444c2.567 0 5.137-.979 7.093-2.936 3.905-3.905 3.905-10.237 0-14.143-3.906-3.904-10.236-3.904-14.143 0l-.028.028c-3.905 3.905-3.891 10.223.015 14.128 1.949 1.951 4.506 2.923 7.063 2.923z"/><path d="m347.495 67.274-.028.028c-3.905 3.905-3.891 10.223.015 14.128 1.949 1.949 4.506 2.922 7.063 2.922 2.567 0 5.137-.979 7.093-2.936 3.905-3.905 3.905-10.237 0-14.143-3.907-3.903-10.237-3.903-14.143.001z"/><path d="m317.785 240.26h-6.351v-134.28c0-8.265-6.724-14.989-14.987-14.989h-69.456v-76.002c0-8.264-6.724-14.989-14.988-14.989h-143.78c-16.592 0-30.091 13.502-30.091 30.098v210.162h-6.351c-11.186 0-20.286 9.103-20.286 20.29v51.617c0 7.025 3.736 13.123 9.833 16.839v156.156c0 14.799 12.024 26.838 26.804 26.838h253.302c14.779 0 26.804-12.039 26.804-26.838v-180.831c8.153-7.538 9.833-14.419 9.833-23.429v-20.352c0-11.188-9.101-20.29-20.286-20.29zm-90.794-129.27h64.443v70.99h-64.443zm0 90.99h64.443v38.279h-64.443zm-84.415-181.98h64.415v70.99h-64.415zm0 90.99h64.415v70.99h-64.415zm0 90.99h64.415v38.279h-64.415zm-84.444-171.882c0-5.569 4.527-10.098 10.091-10.098h54.353v70.99h-64.444zm0 80.892h64.443v70.99h-64.443zm0 90.99h64.443v38.279h-64.443zm250.106 283.182c0 3.771-3.052 6.838-6.804 6.838h-253.302c-3.688 0-6.804-3.132-6.804-6.838v-26.963h266.909v26.963zm0-46.963h-266.909v-24.701h266.909zm9.833-157.297c0 5.115-.128 6.07-4.652 9.839l-67.073 55.954c-7.253 6.054-8.455 5.784-16.275 4.037-1.451-.324-3.096-.691-4.917-1.046l-51.715-10.006c-5.419-1.045-10.668 2.498-11.718 7.919-1.049 5.422 2.496 10.668 7.919 11.718l51.706 10.004c1.577.307 3.02.63 4.365.931 3.952.883 7.552 1.553 11.157 1.552 6.664 0 13.347-2.289 22.29-9.751l49.08-40.944v72.389h-266.909v-59.01l40.156 7.765c5.424 1.055 10.668-2.497 11.717-7.92 1.048-5.423-2.497-10.668-7.92-11.717l-51.596-9.977c-1.153-.224-1.862-.602-2.19-.831v-51.258c0-.146.142-.29.286-.29h286.003c.145 0 .286.144.286.29z"/><path d="m127.475 330.995c-5.522 0-10 4.478-10 10s4.478 10 10 10h.028c5.522 0 9.985-4.478 9.985-10s-4.491-10-10.013-10z"/></g></g></svg>