<svg id="Capa_1" enable-background="new 0 0 512 512" height="512" viewBox="0 0 512 512" width="512" xmlns="http://www.w3.org/2000/svg"><g><g><path clip-rule="evenodd" d="m213.494 87.663c-38.041-12.331-80.023-9.099-115.995 9.723 12.416 17.008 10.914 41.017-4.45 56.381-15.619 15.619-40.167 16.894-57.261 3.798-12.529 22.564-18.794 47.678-18.794 72.821 0 38.381 14.655 76.79 43.938 106.072 26.504 26.504 60.464 41.045 95.132 43.568 41.982 3.061 84.984-11.48 117.072-43.568 29.282-29.282 43.938-67.691 43.938-106.072 0-1.701-.028-3.402-.085-5.102-1.219-36.68-15.846-73.02-43.853-100.998-17.32-17.348-37.843-29.536-59.642-36.623zm-103.041 127.813c9.695 9.694 9.695 25.427 0 35.121-9.723 9.723-25.427 9.723-35.15 0-9.695-9.694-9.695-25.427 0-35.121 9.723-9.694 25.427-9.694 35.15 0zm106.301 25.03c9.043-9.042 23.698-9.042 32.741 0s9.043 23.697 0 32.74c-9.043 9.042-23.698 9.042-32.741 0-9.043-9.043-9.043-23.698 0-32.74z" fill="#ffa96b" fill-rule="evenodd"/></g><g><path clip-rule="evenodd" d="m317.073 230.386c0 38.381-14.655 76.79-43.938 106.072-32.089 32.088-75.091 46.63-117.072 43.568 8.533 68.74 67.154 121.974 138.219 121.974 11.254 0 22.196-1.361 32.684-3.883-.34-2.466-.51-4.989-.51-7.54 0-30.841 25.002-55.814 55.815-55.814 4.054 0 7.994.425 11.821 1.247-1.02-4.167-1.531-8.532-1.531-13.011 0-25.653 17.292-47.253 40.848-53.773.113-2.154.17-4.337.17-6.52 0-25.455-6.832-49.294-18.766-69.845-20.495-35.263-56.013-60.718-97.825-67.577.057 1.701.085 3.401.085 5.102zm51.308 122.541c-8.646 8.674-22.677 8.674-31.323 0-8.674-8.646-8.674-22.677 0-31.323 8.646-8.646 22.677-8.646 31.323 0s8.646 22.677 0 31.323z" fill="#ffa96b" fill-rule="evenodd"/></g><g><path clip-rule="evenodd" d="m368.381 321.604c-8.646-8.646-22.677-8.646-31.323 0-8.674 8.646-8.674 22.677 0 31.323 8.646 8.674 22.677 8.674 31.323 0 8.646-8.646 8.646-22.677 0-31.323z" fill="#ffd4b5" fill-rule="evenodd"/></g><g><path clip-rule="evenodd" d="m431.509 167.259c-8.646-8.646-22.677-8.646-31.323 0s-8.646 22.677 0 31.323 22.677 8.646 31.323 0 8.646-22.677 0-31.323z" fill="#ffa96b" fill-rule="evenodd"/></g><g><path clip-rule="evenodd" d="m249.494 240.506c-9.043-9.042-23.698-9.042-32.741 0s-9.043 23.697 0 32.74c9.043 9.042 23.698 9.042 32.741 0 9.043-9.043 9.043-23.698 0-32.74z" fill="#ffd4b5" fill-rule="evenodd"/></g><g><path clip-rule="evenodd" d="m110.453 215.476c-9.723-9.694-25.427-9.694-35.15 0-9.695 9.694-9.695 25.427 0 35.121 9.723 9.723 25.427 9.723 35.15 0 9.695-9.694 9.695-25.426 0-35.121z" fill="#ffd4b5" fill-rule="evenodd"/></g><g><path clip-rule="evenodd" d="m97.499 97.386c-13.153 6.86-25.512 15.846-36.567 26.901-10.12 10.12-18.51 21.345-25.144 33.278 17.093 13.096 41.641 11.82 57.261-3.798 15.363-15.364 16.866-39.373 4.45-56.381z" fill="#ffd4b5" fill-rule="evenodd"/></g><g><path clip-rule="evenodd" d="m343.861 9.994c-24.548.17-49.068 6.35-71.179 18.51.595 7.455 3.43 14.825 8.589 20.976 13.238 15.817 36.766 17.915 52.583 4.705 13.21-11.054 16.838-29.281 10.007-44.191z" fill="#ffa96b" fill-rule="evenodd"/></g><g><path clip-rule="evenodd" d="m343.861 9.994c6.832 14.91 3.203 33.137-10.006 44.192-15.818 13.209-39.345 11.112-52.583-4.705-5.159-6.151-7.994-13.521-8.589-20.976-12.132 6.661-23.528 15.165-33.818 25.427-10.262 10.261-18.709 21.628-25.37 33.732 21.799 7.087 42.322 19.275 59.642 36.623 28.007 27.978 42.634 64.318 43.853 100.998 41.812 6.86 77.33 32.315 97.825 67.577 13.04-6.86 25.285-15.76 36.256-26.73 29.282-29.31 43.938-67.691 43.938-106.1s-14.655-76.79-43.938-106.1c-29.597-29.566-68.46-44.221-107.21-43.938zm56.325 157.265c8.646-8.646 22.677-8.646 31.323 0s8.646 22.677 0 31.323-22.677 8.646-31.323 0-8.646-22.677 0-31.323z" fill="#ffd4b5" fill-rule="evenodd"/></g><g><path d="m445.187 412.299-.028.028c-3.905 3.905-3.891 10.223.015 14.128 1.949 1.949 4.506 2.922 7.064 2.922 2.567 0 5.137-.979 7.093-2.936 3.905-3.905 3.905-10.238 0-14.143-3.907-3.903-10.237-3.903-14.144.001z"/><path d="m199.972 256.875c0 8.855 3.449 17.18 9.711 23.442 6.463 6.462 14.952 9.694 23.441 9.694s16.979-3.232 23.441-9.694c6.263-6.262 9.711-14.587 9.711-23.442 0-8.854-3.448-17.179-9.711-23.441-12.925-12.923-33.957-12.925-46.883 0-6.261 6.262-9.71 14.588-9.71 23.441zm23.853-9.298c2.564-2.564 5.932-3.846 9.3-3.846 3.367 0 6.735 1.282 9.299 3.846 2.484 2.484 3.853 5.786 3.853 9.298 0 3.513-1.368 6.815-3.853 9.299-5.129 5.127-13.471 5.127-18.599 0-2.484-2.484-3.853-5.786-3.853-9.299 0-3.511 1.368-6.813 3.853-9.298z"/><path d="m168.338 198.22h-.028c-5.523 0-9.986 4.478-9.986 10 0 5.523 4.491 10 10.014 10s10-4.478 10-10c0-5.523-4.477-10-10-10z"/><path d="m128.312 306.575c5.523 0 10-4.478 10-10 0-5.523-4.477-10-10-10h-.057c-5.523 0-9.972 4.478-9.972 10s4.506 10 10.029 10z"/><path d="m117.514 208.395c-13.584-13.545-35.686-13.545-49.282.01-13.582 13.582-13.582 35.682 0 49.264 6.795 6.795 15.721 10.193 24.646 10.193 8.926 0 17.852-3.398 24.647-10.193 13.582-13.582 13.582-35.682 0-49.264-.004-.004-.008-.007-.011-.01zm-14.132 35.13c-5.791 5.792-15.216 5.792-21.007 0-5.784-5.783-5.784-15.195-.011-20.968 2.899-2.89 6.707-4.335 10.514-4.335s7.614 1.444 10.512 4.333c5.776 5.785 5.773 15.19-.008 20.97z"/><path d="m162.923 130.982h-.057c-5.523 0-9.972 4.478-9.972 10s4.505 10 10.029 10c5.523 0 10-4.478 10-10s-4.476-10-10-10z"/><path d="m248.95 180.553c0-5.523-4.477-10-10-10h-.028c-5.523 0-9.986 4.478-9.986 10s4.491 10 10.014 10 10-4.477 10-10z"/><path d="m187.217 323.696c5.523 0 10-4.478 10-10 0-5.523-4.477-10-10-10h-.057c-5.523 0-9.972 4.478-9.972 10 0 5.523 4.505 10 10.029 10z"/><path d="m381.01 480.642-.028.028c-3.905 3.905-3.891 10.223.015 14.128 1.949 1.949 4.506 2.922 7.064 2.922 2.567 0 5.137-.98 7.093-2.936 3.905-3.905 3.905-10.238 0-14.143-3.907-3.904-10.238-3.904-14.144.001z"/><path d="m430.022 468.481-.028.028c-3.905 3.905-3.891 10.223.015 14.128 1.949 1.949 4.506 2.922 7.064 2.922 2.567 0 5.137-.98 7.093-2.936 3.905-3.905 3.905-10.238 0-14.143-3.907-3.903-10.238-3.903-14.144.001z"/><path d="m300.846 387.978-.057.057c-3.905 3.905-3.877 10.209.028 14.115 1.946 1.945 4.5 2.915 7.058 2.915 2.575 0 5.153-.984 7.113-2.943 3.905-3.905 3.905-10.238 0-14.143-3.906-3.905-10.236-3.905-14.142-.001z"/><path d="m415.848 215.054c8.233 0 16.465-3.134 22.733-9.401 12.534-12.535 12.534-32.931 0-45.466 0 0 0 0-.001 0-12.534-12.534-32.93-12.534-45.465 0-12.535 12.535-12.535 32.931 0 45.466 6.268 6.267 14.5 9.401 22.733 9.401zm-8.591-40.724c2.369-2.368 5.48-3.552 8.591-3.552s6.222 1.184 8.59 3.552c4.736 4.736 4.736 12.444 0 17.18s-12.444 4.736-17.18 0c-4.737-4.736-4.737-12.443-.001-17.18z"/><path d="m406.536 107.415c5.523 0 10-4.478 10-10 0-5.523-4.478-10-10-10h-.057c-5.523 0-9.972 4.478-9.972 10s4.506 10 10.029 10z"/><path d="m436.076 378.864c4.146-1.147 7.094-4.818 7.32-9.113.122-2.318.184-4.689.184-7.045 0-23.04-5.342-45.602-15.377-65.976 10.844-6.61 20.893-14.483 29.941-23.532 30.22-30.248 46.863-70.438 46.863-113.167s-16.644-82.919-46.867-113.172c-31.218-31.218-72.23-46.817-113.238-46.8-.789-.083-1.591-.081-2.392.029-25.564.389-51.047 6.849-74.084 19.378-.355.167-.699.351-1.029.556-12.773 7.07-24.778 16.013-35.604 26.838-8.801 8.802-16.498 18.559-22.989 29.059-53.495-14.369-113.041-.604-154.943 41.297-30.223 30.221-46.867 70.412-46.867 113.17 0 26.096 6.431 52.016 18.599 74.956 2.587 4.878 8.641 6.736 13.52 4.149 4.879-2.588 6.736-8.641 4.149-13.52-10.642-20.065-16.268-42.743-16.268-65.585 0-20.642 4.441-40.595 12.856-58.782 7.093 3.257 14.726 4.876 22.347 4.876 13.811-.001 27.568-5.289 37.923-15.643 9.076-9.077 14.597-21.119 15.544-33.907.64-8.646-.831-17.257-4.198-25.097 51.158-22.039 112.874-12.201 154.598 29.524 26.445 26.444 41.009 61.613 41.009 99.029 0 37.397-14.564 72.557-41.011 99.002-29.231 29.25-68.415 43.4-107.505 40.959-1.12-.289-2.307-.386-3.521-.26-18.35-1.615-36.613-6.9-53.749-16.012-4.876-2.595-10.931-.741-13.525 4.134-2.593 4.877-.742 10.932 4.135 13.525 17.19 9.141 36.087 15.016 55.445 17.418 12.611 70.573 74.417 122.848 146.94 122.848 11.763 0 23.546-1.4 35.023-4.161 4.999-1.203 8.271-5.999 7.568-11.092-.276-2-.417-4.076-.417-6.17 0-25.261 20.552-45.814 45.815-45.814 3.288 0 6.558.345 9.719 1.023 3.371.726 6.871-.337 9.273-2.807 2.401-2.471 3.361-6.003 2.542-9.349-.825-3.368-1.243-6.945-1.243-10.632-.001-20.523 13.781-38.673 33.514-44.134zm-350.098-232.169c-9.706 9.706-24.172 12.304-36.393 7.342 5.28-8.088 11.429-15.691 18.418-22.679 7.896-7.895 16.511-14.641 25.631-20.254 4.504 12.034 1.773 26.161-7.656 35.591zm250.751-126.396c1.861 9.598-1.544 19.732-9.285 26.211-11.561 9.656-28.833 8.109-38.512-3.456-2.265-2.701-3.958-5.767-5.028-9.059 16.698-8.071 34.676-12.636 52.825-13.696zm-56.522 96.916c-15.325-15.324-33.012-26.876-51.898-34.674 5.13-7.71 11.02-14.932 17.627-21.539 6.376-6.376 13.225-11.998 20.426-16.885 1.806 4.227 4.23 8.192 7.241 11.781 9.352 11.174 22.808 16.94 36.357 16.94 10.707 0 21.474-3.603 30.313-10.984 12.307-10.3 18.294-25.932 16.7-41.285 31.762 2.709 62.77 16.179 87.021 40.429 26.447 26.473 41.012 61.643 41.012 99.033s-14.565 72.559-41.009 99.028c-7.812 7.813-16.474 14.627-25.815 20.363-3.219-4.788-6.722-9.407-10.508-13.822-21.139-24.655-49.725-41.73-81.166-48.658-3.112-37.686-19.269-72.696-46.301-99.727zm102.354 305.784c0 .59.008 1.178.022 1.765-.104-.001-.208-.001-.313-.001-36.127 0-65.549 29.257-65.813 65.321-7.329 1.273-14.758 1.916-22.175 1.916-61.17 0-113.537-42.931-126.316-101.619 7.234-.03 14.474-.538 21.649-1.556 34.543-4.896 65.869-20.56 90.591-45.296 28.522-28.52 44.943-65.913 46.701-105.954 33.735 8.68 61.561 30.225 78.56 58.828.143.376.302.75.495 1.115.309.587.683 1.114 1.085 1.611 10.47 18.643 16.414 40.12 16.529 62.896-24.483 9.953-41.015 34.041-41.015 60.974z"/><path d="m329.998 314.521c-6.091 6.071-9.447 14.149-9.447 22.745 0 8.595 3.356 16.672 9.423 22.72 6.071 6.091 14.15 9.446 22.745 9.446s16.673-3.355 22.733-9.434c12.535-12.535 12.535-32.931 0-45.465-12.536-12.535-32.931-12.533-45.454-.012zm31.3 31.346c-2.291 2.299-5.338 3.565-8.578 3.565s-6.287-1.266-8.602-3.588c-2.299-2.291-3.566-5.337-3.566-8.577 0-3.241 1.267-6.287 3.577-8.59 2.368-2.368 5.479-3.553 8.59-3.553s6.222 1.185 8.59 3.553c4.737 4.735 4.737 12.442-.011 17.19z"/><path d="m342.642 132.529c5.523 0 10-4.478 10-10s-4.478-10-10-10h-.057c-5.523 0-9.972 4.478-9.972 10s4.506 10 10.029 10z"/><path d="m233.976 408.5-.028.028c-3.905 3.905-3.891 10.223.014 14.128 1.95 1.949 4.506 2.922 7.065 2.922 2.567 0 5.136-.98 7.092-2.936 3.905-3.905 3.905-10.238 0-14.143-3.906-3.903-10.238-3.903-14.143.001z"/><path d="m277.29 432.057-.028.028c-3.905 3.905-3.891 10.223.015 14.128 1.949 1.949 4.506 2.922 7.064 2.922 2.567 0 5.137-.98 7.093-2.936 3.905-3.905 3.905-10.238 0-14.143-3.908-3.904-10.238-3.904-14.144.001z"/><path d="m67.975 329.358c-3.906-3.904-10.223-3.891-14.129.015-3.905 3.905-3.891 10.251.014 14.157 1.953 1.952 4.512 2.929 7.071 2.929s5.119-.977 7.071-2.929c3.905-3.905 3.905-10.238 0-14.143z"/></g></g></svg>