<svg id="Capa_1" enable-background="new 0 0 512 512" height="512" viewBox="0 0 512 512" width="512" xmlns="http://www.w3.org/2000/svg"><g><g><path clip-rule="evenodd" d="m246.616 357.984c-10.888 1.6-22.063 1-32.751-1.8-13.489-3.544-26.264-10.631-36.866-21.205-10.574-10.603-17.662-23.377-21.205-36.866-2.801-10.688-3.401-21.863-1.8-32.751-3.058-2.315-6.001-4.858-8.774-7.63-33.122-33.122-33.122-86.821 0-119.944l.514-.514c-8.916-25.206-3.287-54.413 16.89-74.59 17.919-17.919 42.953-24.377 65.988-19.348 2.258-2.944 4.744-5.801 7.459-8.516 33.122-33.122 86.821-33.122 119.944 0 .572.572 1.115 1.143 1.686 1.743 32.98-22.263 78.162-18.805 107.341 10.374 29.207 29.179 32.637 74.361 10.374 107.341.6.572 1.172 1.115 1.743 1.686 33.122 33.122 33.122 86.821 0 119.944-2.715 2.715-5.544 5.201-8.516 7.459 5.03 23.034-1.429 48.069-19.348 65.988-20.176 20.176-49.384 25.806-74.59 16.89l-.514.514c-33.122 33.122-86.821 33.122-119.944 0-2.773-2.773-5.317-5.717-7.631-8.775z" fill="#ffbdbc" fill-rule="evenodd"/></g><g><path clip-rule="evenodd" d="m159.308 410.74-58.071-58.071 54.556-54.556c3.544 13.489 10.631 26.264 21.205 36.866 10.603 10.574 23.377 17.661 36.866 21.205z" fill="#faf7f5" fill-rule="evenodd"/></g><g><path clip-rule="evenodd" d="m69.143 365.962h71.617v82.125h-71.617z" fill="#ebddd9" fill-rule="evenodd" transform="matrix(.707 -.707 .707 .707 -257.07 193.427)"/></g><g><path clip-rule="evenodd" d="m75.145 494.904c-9.402 9.431-24.835 9.431-34.266 0l-23.806-23.806c-9.431-9.431-9.431-24.863 0-34.266l33.523-33.523 58.071 58.071z" fill="#faf7f5" fill-rule="evenodd"/></g><g><path d="m512 215.935c0-23.49-8.484-45.675-24.004-63.058 11.658-21.003 14.938-45.88 8.942-69.454-1.361-5.353-6.805-8.588-12.156-7.227-5.353 1.361-8.588 6.804-7.227 12.156 5.222 20.531 1.53 42.293-10.104 59.82-14.782 16.44-35.885 25.349-58.014 24.433-5.977-.243-10.938 5.012-10.364 10.964.272 2.817 1.772 5.432 4.054 7.103 2.8 2.05 6.082 1.997 9.408 1.997 23.301 0 45.481-8.555 62.655-23.992 10.887 13.313 16.81 29.829 16.81 47.257 0 19.983-7.782 38.77-21.914 52.901-2.412 2.412-4.933 4.621-7.493 6.566-3.1 2.354-4.552 6.293-3.722 10.097 4.504 20.627-1.72 41.854-16.649 56.783-16.71 16.711-41.902 22.416-64.184 14.534-3.632-1.284-7.681-.369-10.406 2.356l-.514.514c-14.13 14.131-32.918 21.913-52.901 21.913-19.982 0-38.77-7.782-52.9-21.913-2.378-2.378-4.642-4.981-6.729-7.738-2.203-2.911-5.817-4.385-9.429-3.858-9.563 1.409-19.237 1.529-28.052-1.356-18.608-6.091-24.071-9.87-33.038-18.828-13.82-13.805-18.121-30.349-18.827-33.037-1.088-4.145-1.714-8.419-1.991-12.747 12.198 5.576 25.328 8.434 38.621 8.434 9.626 0 19.337-1.493 28.835-4.524 5.261-1.679 8.166-7.305 6.487-12.567-1.678-5.261-7.303-8.165-12.567-6.487-22.135 7.062-45.72 3.523-64.745-9.706-2.7-2.054-5.256-4.278-7.593-6.615-14.131-14.13-21.913-32.918-21.913-52.9 0-19.983 7.782-38.771 21.913-52.901l.514-.514c2.725-2.725 3.642-6.773 2.356-10.406-7.881-22.28-2.177-47.474 14.534-64.184 14.929-14.929 36.157-21.155 56.783-16.648 3.786.824 7.71-.608 10.068-3.685 2.044-2.665 4.263-5.199 6.595-7.531 29.17-29.169 76.632-29.168 105.798-.003.48.481.938.962 1.416 1.464l.104.109c3.368 3.536 8.798 4.121 12.841 1.386 17.29-11.691 38.918-15.581 59.336-10.678 5.366 1.289 10.769-2.017 12.059-7.387s-2.017-10.769-7.387-12.059c-23.18-5.569-47.604-2.178-68.212 9.259-37.187-33.153-94.433-31.9-130.099 3.767-1.51 1.51-2.982 3.086-4.404 4.715-25.326-3.557-50.755 4.862-69.042 23.149-20.646 20.646-28.606 51.068-21.104 79.015-15.562 17.394-24.071 39.61-24.071 63.133 0 25.325 9.862 49.134 27.771 67.043 1.681 1.68 3.446 3.313 5.28 4.885-.73 8.588-.259 17.088 1.338 25.309l-101.235 101.242c-.001.001-.002.002-.003.002s-.002.002-.002.003l-33.509 33.51c-6.451 6.43-10.007 15.016-10.014 24.177-.007 9.175 3.545 17.784 10.002 24.241l23.806 23.807c6.451 6.45 15.049 10.002 24.214 10.001h.027c9.161-.007 17.747-3.563 24.167-10.001l134.764-134.764c8.223 1.598 16.723 2.068 25.311 1.337 1.572 1.835 3.204 3.601 4.884 5.281 17.909 17.908 41.718 27.771 67.043 27.771 23.523 0 45.739-8.509 63.133-24.071 27.945 7.5 58.369-.459 79.014-21.104 18.286-18.286 26.71-43.706 23.15-69.035 1.604-1.403 3.179-2.877 4.714-4.412 17.909-17.909 27.771-41.719 27.771-67.044zm-403.333 231.304-43.929-43.929 36.498-36.499 43.929 43.929zm-40.604 40.604c-2.655 2.663-6.216 4.131-10.029 4.133-.004 0-.007 0-.012 0-3.822 0-7.399-1.471-10.072-4.144l-23.806-23.807c-2.675-2.675-4.147-6.256-4.144-10.083.003-3.813 1.471-7.375 4.145-10.04l26.451-26.452 43.929 43.929zm91.245-91.245-43.929-43.929 36.369-36.37c4.443 9.402 10.539 18.111 18.179 25.751s16.348 13.735 25.75 18.179z"/><path d="m252.537 115.413c-7.207 2.404-14.92 1.864-21.721-1.523-6.8-3.388-11.867-9.218-14.266-16.417-1.747-5.239-7.41-8.069-12.649-6.325-5.24 1.747-8.071 7.41-6.325 12.649 4.092 12.278 12.73 22.22 24.322 27.994 6.815 3.396 14.169 5.11 21.572 5.11 5.169 0 10.363-.836 15.413-2.522 12.263-4.111 22.193-12.75 27.962-24.326 5.771-11.581 6.686-24.711 2.575-36.975-1.755-5.236-7.424-8.059-12.66-6.303-5.236 1.755-8.058 7.423-6.303 12.66 2.412 7.195 1.875 14.9-1.512 21.697-3.388 6.798-9.219 11.871-16.408 14.281z"/><path d="m319.819 306.23c-2.982 4.648-1.632 10.834 3.016 13.817 1.672 1.073 3.542 1.585 5.391 1.585 3.292 0 6.516-1.625 8.426-4.601 11.417-17.793 35.196-22.99 53.007-11.583 4.65 2.978 10.836 1.623 13.814-3.028s1.623-10.836-3.028-13.814c-27.088-17.348-63.257-9.443-80.626 17.624z"/><path d="m465.041 56.937c2.559 0 5.119-.976 7.071-2.929 3.905-3.905 3.905-10.237 0-14.143l-.029-.029c-3.906-3.905-10.223-3.89-14.128.015s-3.891 10.251.014 14.157c1.953 1.953 4.513 2.929 7.072 2.929z"/></g></g></svg>