<svg id="Capa_1" enable-background="new 0 0 512 512" height="512" viewBox="0 0 512 512" width="512" xmlns="http://www.w3.org/2000/svg"><g><g><path clip-rule="evenodd" d="m145.182 240.03c-29.197 53.582-139.235 55.88-115.085 159.894h230.169c6.179-26.663 3.572-46.632-4.252-62.516-22.705-46.037-89.119-57.525-110.832-97.378z" fill="#faf7f5" fill-rule="evenodd"/></g><g><path clip-rule="evenodd" d="m366.818 240.03c-21.741 39.853-88.127 51.341-110.804 97.377 7.823 15.884 10.431 35.853 4.252 62.516h221.637c24.122-104.013-85.888-106.311-115.085-159.893z" fill="#faf7f5" fill-rule="evenodd"/></g><g><path clip-rule="evenodd" d="m260.266 399.924h-230.169-4.139c-8.787 0-15.959 7.176-15.959 15.97v20.224c0 8.793 7.172 15.969 15.959 15.969h23.782 82.515 247.488 82.487 23.811c7.001 0 12.982-4.567 15.108-10.864v-30.436c-2.126-6.297-8.107-10.864-15.108-10.864h-4.138-221.637z" fill="#ffa96b" fill-rule="evenodd"/></g><g><path clip-rule="evenodd" d="m49.741 452.087h82.515v41.413h-82.515z" fill="#ffd4b5" fill-rule="evenodd"/></g><g><path clip-rule="evenodd" d="m379.744 452.087h82.487v41.413h-82.487z" fill="#ffd4b5" fill-rule="evenodd"/></g><g><path clip-rule="evenodd" d="m332.208 128.556h-299.786c-12.33 0-22.422 10.126-22.422 22.465s10.091 22.437 22.422 22.437h299.786z" fill="#ffd4b5" fill-rule="evenodd"/></g><g><path clip-rule="evenodd" d="m332.208 18.5h-299.786c-12.331 0-22.422 10.098-22.422 22.437 0 12.367 10.091 22.465 22.422 22.465h299.786z" fill="#ffd4b5" fill-rule="evenodd"/></g><g><path clip-rule="evenodd" d="m332.208 18.5h47.99v44.902h-47.99z" fill="#ffa96b" fill-rule="evenodd"/></g><g><path clip-rule="evenodd" d="m380.198 18.5h47.961v44.902h-47.961z" fill="#ffa96b" fill-rule="evenodd"/></g><g><path clip-rule="evenodd" d="m479.55 18.5h-51.391v44.902h51.391c10.261 0 18.935-6.978 21.6-16.395v-12.112c-2.665-9.446-11.339-16.395-21.6-16.395z" fill="#ffd4b5" fill-rule="evenodd"/></g><g><path clip-rule="evenodd" d="m479.55 128.556h-51.391v44.902h51.391c10.261 0 18.935-6.949 21.6-16.395v-12.112c-2.665-9.417-11.339-16.395-21.6-16.395z" fill="#ffd4b5" fill-rule="evenodd"/></g><g><path clip-rule="evenodd" d="m380.198 128.556h47.961v44.902h-47.961z" fill="#ffa96b" fill-rule="evenodd"/></g><g><path clip-rule="evenodd" d="m332.208 128.556h47.99v44.902h-47.99z" fill="#ffa96b" fill-rule="evenodd"/></g><g><path d="m32.422 73.401h447.128c17.894 0 32.45-14.563 32.45-32.465 0-17.885-14.557-32.436-32.45-32.436h-447.128c-17.878 0-32.422 14.551-32.422 32.437 0 17.901 14.544 32.464 32.422 32.464zm405.737-44.901h41.391c6.865 0 12.45 5.579 12.45 12.437 0 6.873-5.585 12.465-12.45 12.465h-41.391zm-47.962 0h27.962v24.901h-27.962zm-47.989 0h27.989v24.901h-27.989zm-309.786 0h289.786v24.901h-289.786c-6.85 0-12.422-5.591-12.422-12.464 0-6.858 5.572-12.437 12.422-12.437z"/><path d="m479.55 118.556h-447.128c-17.878 0-32.422 14.564-32.422 32.465 0 17.886 14.544 32.437 32.422 32.437h447.128c17.894 0 32.45-14.551 32.45-32.437 0-17.901-14.557-32.465-32.45-32.465zm-157.342 44.902h-289.786c-6.85 0-12.422-5.579-12.422-12.437 0-6.874 5.572-12.466 12.422-12.466h289.786zm47.989 0h-27.989v-24.902h27.989zm47.962 0h-27.962v-24.902h27.962zm61.391 0h-41.391v-24.902h41.391c6.865 0 12.45 5.592 12.45 12.466 0 6.857-5.585 12.436-12.45 12.436z"/><path d="m366.818 317.366c-5.522 0-10 4.478-10 10v20.253c0 5.522 4.478 10 10 10s10-4.478 10-10v-20.253c0-5.522-4.477-10-10-10z"/><path d="m329.369 318.729c-4.773-2.784-10.895-1.174-13.678 3.596l-11.82 20.253c-2.784 4.771-1.174 10.894 3.596 13.678 1.586.925 3.319 1.365 5.031 1.365 3.439 0 6.788-1.776 8.646-4.961l11.82-20.253c2.785-4.77 1.175-10.893-3.595-13.678z"/><path d="m417.917 322.325c-2.784-4.769-8.905-6.38-13.678-3.596-4.77 2.784-6.38 8.907-3.596 13.678l11.82 20.253c1.859 3.185 5.206 4.961 8.646 4.961 1.711 0 3.446-.44 5.031-1.365 4.77-2.784 6.38-8.907 3.596-13.678z"/><path d="m145.182 317.366c-5.522 0-10 4.478-10 10v20.253c0 5.522 4.478 10 10 10s10-4.478 10-10v-20.253c0-5.522-4.478-10-10-10z"/><path d="m107.77 318.734c-4.771-2.789-10.894-1.184-13.682 3.582l-11.849 20.253c-2.788 4.768-1.185 10.893 3.582 13.682 1.588.929 3.325 1.37 5.04 1.37 3.436 0 6.781-1.772 8.642-4.952l11.849-20.253c2.788-4.768 1.184-10.893-3.582-13.682z"/><path d="m196.275 322.316c-2.789-4.766-8.915-6.368-13.682-3.582-4.767 2.789-6.37 8.914-3.582 13.682l11.849 20.253c1.86 3.18 5.205 4.952 8.642 4.952 1.715 0 3.453-.442 5.04-1.37 4.767-2.789 6.37-8.914 3.582-13.682z"/><path d="m493.794 391.108c4.386-28.098-.622-51.488-15.209-71.232-14.108-19.094-34.732-31.732-54.679-43.955-20.184-12.368-39.248-24.05-48.307-40.676-1.752-3.214-5.119-5.214-8.778-5.215-.001 0-.002 0-.003 0-3.659 0-7.026 1.999-8.778 5.211-9.071 16.628-28.133 28.312-48.314 40.681-19.616 12.023-39.765 24.381-53.749 42.702-14.074-18.389-34.206-30.753-53.707-42.703-20.184-12.368-39.248-24.05-48.307-40.676-1.752-3.214-5.12-5.215-8.781-5.215s-7.029 2.001-8.781 5.215c-9.059 16.625-28.125 28.307-48.312 40.675-19.949 12.223-40.578 24.861-54.687 43.956-14.587 19.743-19.592 43.134-15.2 71.233-10.536 3.307-18.202 13.167-18.202 24.785v20.224c0 14.319 11.646 25.97 25.959 25.97h13.782v31.412c0 5.522 4.478 10 10 10h82.515c5.522 0 10-4.478 10-10v-31.413h68.83c5.522 0 10-4.478 10-10s-4.478-10-10-10h-185.127c-3.286 0-5.959-2.678-5.959-5.97v-20.224c0-3.292 2.673-5.97 5.959-5.97h234.281c.011 0 .023.002.034.002.015 0 .03-.002.046-.002h221.557c.011 0 .023.002.034.002.015 0 .03-.002.046-.002h4.084c3.23 0 5.959 2.733 5.959 5.97v20.224c0 3.236-2.729 5.97-5.959 5.97h-185.155c-5.522 0-10 4.478-10 10s4.478 10 10 10h68.858v31.413c0 5.522 4.478 10 10 10h82.486c5.522 0 10-4.478 10-10v-31.413h13.811c14.313 0 25.959-11.65 25.959-25.97v-20.224c0-11.618-7.667-21.478-18.206-24.785zm-434.053 70.979h62.515v21.413h-62.515zm192.342-72.163h-213.805c-9.286-54.335 24.537-75.064 60.259-96.95 16.942-10.38 34.338-21.038 46.645-35.489 12.305 14.451 29.698 25.109 46.639 35.489 35.715 21.886 69.533 42.615 60.262 96.95zm221.637 0h-201.377c2.881-19.545 1.165-36.796-5.199-52.118 11.336-19.273 32.51-32.254 53.032-44.833 16.938-10.381 34.329-21.041 46.639-35.492 12.306 14.453 29.699 25.111 46.642 35.492 35.716 21.887 69.534 42.616 60.263 96.951zm-21.49 93.576h-62.486v-21.413h62.486z"/><path d="m255.985 442.087c-5.522 0-10 4.478-10 10s4.478 10 10 10h.058c5.522 0 9.972-4.478 9.972-10s-4.507-10-10.03-10z"/></g></g></svg>