<svg id="Capa_1" enable-background="new 0 0 512 512" height="512" viewBox="0 0 512 512" width="512" xmlns="http://www.w3.org/2000/svg"><g><g><path clip-rule="evenodd" d="m217.078 123.373c63.25 34.916 110.667 173.06 110.667 240.357 0 11.78-1.127 22.799-3.268 33.056 70.04-.056 140.024-46.133 140.024-138.285 0-56.531-33.442-163-81.619-216.346-17.808-19.699-37.614-32.155-58.49-32.155-43.078 0-81.62 53.009-107.314 113.373z" fill="#ebddd9" fill-rule="evenodd"/></g><g><path clip-rule="evenodd" d="m187.636 292.065c41.246 0 74.689 33.451 74.689 74.708 0 41.285-33.442 74.736-74.689 74.736-41.275 0-74.717-33.451-74.717-74.736 0-41.257 33.443-74.708 74.717-74.708zm-140.136 71.664c0 78.879 51.304 124.025 109.99 135.41h60.264c49.952-9.694 94.523-43.822 106.722-102.354 2.141-10.258 3.268-21.277 3.268-33.056 0-67.296-47.416-205.44-110.667-240.357-9.495-5.242-19.355-8.144-29.442-8.144-77.392 0-140.135 171.088-140.135 248.501z" fill="#faf7f5" fill-rule="evenodd"/></g><g><path clip-rule="evenodd" d="m112.919 366.773c0 41.285 33.442 74.736 74.717 74.736 41.246 0 74.689-33.451 74.689-74.736 0-41.257-33.442-74.708-74.689-74.708-41.274 0-74.717 33.451-74.717 74.708z" fill="#ffea60" fill-rule="evenodd"/></g><g><path d="m111.946 261.549c1.224.493 2.488.726 3.731.726 3.96 0 7.71-2.369 9.28-6.268 10.578-26.272 22.263-47.94 34.73-64.402 3.334-4.403 2.468-10.675-1.935-14.009-4.402-3.333-10.674-2.467-14.009 1.935-13.536 17.874-26.099 41.091-37.338 69.007-2.063 5.123.417 10.948 5.541 13.011z"/><path d="m432.471 100.868c-12.856-26.595-26.873-48.298-41.566-64.671-.424-.572-.906-1.107-1.457-1.585-20.82-22.635-42.959-34.612-65.057-34.612-23.139 0-45.92 12.608-67.71 37.473-15.982 18.237-31.306 43.173-44.639 72.513-8.074-3.145-16.225-4.758-24.406-4.758-38.254 0-76.643 35.822-108.093 100.867-25.147 52.009-42.043 115.358-42.043 157.634 0 45.68 16.319 84.139 47.194 111.22 27.238 23.893 63.792 37.051 102.928 37.051s75.69-13.158 102.928-37.05c20.647-18.11 34.773-41.313 41.874-68.356 36.094-1.677 69.547-14.623 94.911-36.888 30.855-27.084 47.164-65.538 47.164-111.205.001-42.28-16.889-105.628-42.028-157.633zm-96.135 285.431c.928-7.304 1.408-14.83 1.408-22.569 0-24.606-6.087-58.437-16.701-92.819-1.629-5.277-7.229-8.236-12.505-6.605-5.277 1.629-8.234 7.228-6.605 12.505 10.048 32.55 15.812 64.231 15.812 86.92 0 10.932-1.04 21.124-2.978 30.594-.065.257-.121.517-.166.782-13.982 66.33-72.297 96.893-126.979 96.893-62.671 0-130.122-40.14-130.122-128.271 0-38.919 16.469-100.16 40.048-148.928 27.524-56.925 60.36-89.573 90.088-89.573 26.362 0 54.998 25.339 80.631 71.35 2.688 4.825 8.777 6.558 13.603 3.869 4.825-2.688 6.557-8.778 3.869-13.603-17.482-31.378-36.406-54.05-56.028-67.423 28.093-62.43 63.171-99.421 94.68-99.421 14.949 0 30.682 8.263 46.13 23.71l-21.566 38.226c-1.721 3.051-1.721 6.779.001 9.83l22.441 39.752-22.442 39.78c-2.714 4.81-1.014 10.91 3.796 13.623 1.553.876 3.24 1.292 4.904 1.292 3.491 0 6.881-1.831 8.719-5.088l25.215-44.695c1.721-3.051 1.721-6.779-.001-9.83l-22.441-39.752 15.313-27.143c10.403 13.51 20.519 30.245 30.004 49.867 23.572 48.765 40.035 110.006 40.035 148.929.001 82.547-59.179 123.002-118.163 127.798z"/><path d="m187.636 282.065c-46.713 0-84.717 38-84.717 84.708 0 46.724 38.004 84.736 84.717 84.736 46.698 0 84.689-38.013 84.689-84.736 0-46.708-37.991-84.708-84.689-84.708zm0 149.444c-35.685 0-64.717-29.041-64.717-64.736 0-35.68 29.032-64.708 64.717-64.708 35.669 0 64.689 29.028 64.689 64.708 0 35.696-29.02 64.736-64.689 64.736z"/><path d="m291.771 222.8c-4.932 2.487-6.913 8.5-4.426 13.432l.028.056c1.755 3.48 5.259 5.477 8.903 5.477 1.52 0 3.063-.347 4.515-1.08 4.931-2.487 6.898-8.528 4.411-13.459-2.486-4.932-8.5-6.913-13.431-4.426z"/></g></g></svg>