<svg id="Capa_1" enable-background="new 0 0 512 512" height="512" viewBox="0 0 512 512" width="512" xmlns="http://www.w3.org/2000/svg"><g><g><path clip-rule="evenodd" d="m386.143 73.122c-34.861-30.605-88.627-27.773-118.556 7.616-15.078 17.808-17.827 22.309-34.549 24.121-36.647 3.992-72.245 19.903-99.227 48.695-.765 18.77-4.903 37.541-12.386 56.085-16.665 41.391-16.665 83.801 0 125.164 3.713 9.201 6.604 18.459 8.673 27.745 4.478 5.124 9.353 10.051 14.653 14.665 52.547 46.176 127.399 50.621 184.197 16.137 18.876-11.438 14.2-12.004 36.732-9.966 38.262 3.454 77.488-11.551 104.81-42.609 14.511-16.505 23.978-35.729 28.456-55.773v-55.349c-5.64-25.225-19.046-48.95-39.963-67.324-7.737-6.795-15.758-13.023-24.771-17.015-19.726-8.833-18.196-8.748-21.795-28.538-3.005-16.531-12.67-31.706-26.274-43.654zm-83.1 124.231c34.691 30.463 38.092 83.264 7.596 117.917s-83.355 38.05-118.074 7.587c-34.691-30.463-38.092-83.264-7.596-117.917 30.525-34.681 83.383-38.079 118.074-7.587z" fill="#faf7f5" fill-rule="evenodd"/></g><g><path clip-rule="evenodd" d="m303.043 197.353c-34.691-30.491-87.55-27.094-118.074 7.587-30.496 34.653-27.095 87.454 7.596 117.917 34.719 30.463 87.578 27.066 118.074-7.587 30.496-34.654 27.095-87.455-7.596-117.917z" fill="#ffea60" fill-rule="evenodd"/></g><g><path clip-rule="evenodd" d="m71.969 84.45h-49.436c16.696 41.397 16.696 83.814 0 125.183-16.668 41.397-16.668 83.814 0 125.183 16.696 41.397 16.696 83.785 0 125.183h49.436c16.696-41.369 16.696-83.785 0-125.183-16.668-41.369-16.668-83.785 0-125.183 16.696-41.369 16.696-83.786 0-125.183z" fill="#ff7b79" fill-rule="evenodd"/></g><g><path clip-rule="evenodd" d="m121.406 84.45h-49.437c16.696 41.397 16.696 83.814 0 125.183-16.668 41.397-16.668 83.814 0 125.183 16.696 41.397 16.696 83.814 0 125.183h49.436c12.983-32.166 15.874-64.984 8.674-97.433-2.069-9.287-4.961-18.547-8.674-27.749-16.668-41.369-16.668-83.785 0-125.183 7.483-18.547 11.622-37.32 12.387-56.093.965-23.106-3.174-46.24-12.386-69.091z" fill="#ffbdbc" fill-rule="evenodd"/></g><g><path d="m511.712 248.551c-2.341-36.377-18.724-69.665-46.132-93.733-7.434-6.528-16.494-13.849-27.282-18.627-5.362-2.401-11.44-5.122-12.792-6.713-.882-1.037-1.592-5.079-2.49-10.198-.231-1.32-.482-2.746-.763-4.289-3.319-18.264-13.524-35.34-29.515-49.381-19.016-16.694-44.391-25.195-69.611-23.32-24.853 1.846-47.289 13.209-63.172 31.988-.974 1.151-1.897 2.246-2.776 3.29-12.275 14.566-13.558 16.088-25.225 17.353-33.012 3.596-63.79 16.297-88.705 36.308-1.611-16.873-5.79-33.726-12.552-50.492-1.525-3.782-5.195-6.259-9.273-6.259h-98.857c-3.323 0-6.429 1.651-8.287 4.405-1.859 2.754-2.228 6.252-.985 9.334 15.752 39.059 15.753 78.653-.002 117.69-17.723 44.02-17.723 88.645.002 132.639 15.747 39.045 15.747 78.64 0 117.685-1.243 3.082-.874 6.579.985 9.334 1.859 2.754 4.965 4.405 8.287 4.405h98.858c4.077 0 7.746-2.475 9.272-6.257 9.935-24.616 14.306-49.432 13.123-74.228 15.541 12.505 32.929 21.984 51.793 28.2 1.039.343 2.093.506 3.131.506 4.199 0 8.109-2.667 9.495-6.872 1.728-5.244-1.122-10.897-6.367-12.625-18.619-6.137-35.617-15.889-50.535-28.999-4.242-3.714-8.284-7.721-12.072-11.91-2.137-8.923-4.984-17.832-8.566-26.716-15.727-39.033-15.727-78.631-.002-117.686 7.452-18.464 11.763-37.04 12.96-55.635 23.641-23.94 55.615-39.15 90.457-42.946 19.632-2.128 25.114-8.633 38.357-24.347l2.75-3.258c12.392-14.652 29.932-23.517 49.388-24.963 19.907-1.475 39.929 5.23 54.935 18.404 12.385 10.877 20.565 24.348 23.034 37.932.273 1.502.516 2.887.741 4.169 3.402 19.385 5.907 22.348 26.841 31.721 8.36 3.704 15.926 9.857 22.223 15.386 23.391 20.541 37.373 48.949 39.371 79.991 1.997 31.033-8.221 60.984-28.774 84.338-24.473 27.821-60.51 42.488-96.402 39.255-19.788-1.79-22.384-1.714-34.946 6.414-2.174 1.407-4.639 3.002-7.888 4.971-11.665 7.105-24.32 12.521-37.614 16.096-5.332 1.434-8.492 6.92-7.058 12.253 1.201 4.462 5.238 7.404 9.649 7.404.86 0 1.734-.112 2.604-.346 15.128-4.07 29.535-10.237 42.802-18.318 3.482-2.11 6.191-3.864 8.369-5.273 4.609-2.982 5.933-3.766 7.352-4.009 2.396-.41 7.653.064 14.93.722 42.225 3.819 84.545-13.369 113.215-45.96 24.085-27.367 36.059-62.466 33.719-98.833zm-479.903 82.527c-15.729-39.039-15.729-78.643-.002-117.703 15.913-39.43 17.566-79.368 4.96-118.925h28.307c13.322 37.031 12.536 74.488-2.381 111.448-17.726 44.025-17.726 88.657.002 132.657 14.914 36.979 15.701 74.437 2.38 111.442h-28.309c12.6-39.542 10.948-79.482-4.957-118.919zm80.32-125.181c-17.726 44.026-17.726 88.658.001 132.655 0 .001.001.002.001.003 14.913 36.978 15.709 74.438 2.39 111.442h-28.327c12.604-39.532 10.962-79.47-4.949-118.92-15.729-39.039-15.729-78.643-.002-117.703 15.914-39.429 17.556-79.368 4.948-118.925h28.328c13.321 37.03 12.526 74.49-2.39 111.448z"/><path d="m428.653 317.35c1.9 1.671 4.255 2.491 6.601 2.491 2.775 0 5.536-1.148 7.513-3.396 15.751-17.909 23.574-40.958 22.026-64.901-1.548-23.94-12.271-45.788-30.195-61.518-4.15-3.644-10.468-3.231-14.112.92-3.643 4.15-3.231 10.469.92 14.111 13.906 12.204 22.226 29.171 23.429 47.776 1.203 18.608-4.865 36.508-17.085 50.402-3.648 4.149-3.244 10.467.903 14.115z"/><path d="m309.64 189.84h.001l.003.003z"/><path d="m177.463 198.335c-16.514 18.765-24.725 42.834-23.12 67.771 1.605 24.944 12.836 47.765 31.627 64.266 17.763 15.586 39.816 23.237 61.784 23.235 26.016-.001 51.911-10.735 70.39-31.732 16.514-18.765 24.724-42.834 23.12-67.772-1.605-24.942-12.836-47.765-31.623-64.262-38.77-34.075-98.064-30.267-132.178 8.494zm118.979 6.527c.001.001.002.002.003.003 14.771 12.972 23.601 30.914 24.863 50.523 1.262 19.604-5.194 38.525-18.176 53.276-14.537 16.518-34.899 24.959-55.366 24.958-17.279-.002-34.635-6.021-48.605-18.28-14.771-12.97-23.601-30.912-24.863-50.521-1.262-19.604 5.194-38.525 18.175-53.276 14.551-16.531 34.917-24.979 55.383-24.979 17.278.001 34.627 6.027 48.586 18.296z"/><path d="m244.004 405.996c-5.523 0-10 4.478-10 10s4.477 10 10 10h.057c5.523 0 9.972-4.478 9.972-10s-4.506-10-10.029-10z"/></g></g></svg>