<svg id="Capa_1" enable-background="new 0 0 512 512" height="512" viewBox="0 0 512 512" width="512" xmlns="http://www.w3.org/2000/svg"><g><g><path clip-rule="evenodd" d="m197.197 327.033h103.831 144.479 26.135 9.468c6.321 0 11.48-5.164 11.48-11.49v-16.455c0-59.977-70.808-108.605-158.17-108.605-19.304 0-37.785 2.355-54.906 6.696-30.387 7.717-56.38 21.676-74.691 39.606-18.028 17.619-28.601 39.124-28.601 62.303v6.157 10.299c0 6.327 5.187 11.49 11.508 11.49h9.467z" fill="#ffa96b" fill-rule="evenodd"/></g><g><path clip-rule="evenodd" d="m258.622 369.363c20.466 18.725 53.347 19.122 74.38 1.248l-31.974-43.578h-103.831c-7.909 0-14.4 6.327-14.4 14.015 0 9.958 2.721 17.902 7.172 24.002 15.306 20.995 51.249 20.229 68.653 4.313z" fill="#ffea60" fill-rule="evenodd"/></g><g><path clip-rule="evenodd" d="m35.483 144.294c15.25 4.142 30.614 7.433 46.09 9.845v-110.279-27.662c0-3.234-3.033-7.405-5.868-5.873l-34.354 18.442c-2.835 1.532-5.868 2.639-5.868 5.873z" fill="#ffea60" fill-rule="evenodd"/></g><g><path clip-rule="evenodd" d="m81.574 154.139c15.25 2.412 30.614 3.972 46.062 4.681v-96.519l-46.062-18.441z" fill="#fff2a0" fill-rule="evenodd"/></g><g><path clip-rule="evenodd" d="m127.636 158.82c7.653.369 15.335.511 23.045.482 7.71.028 15.392-.113 23.045-.482v-96.519-46.103c0-3.234-3.033-7.405-5.868-5.873l-34.355 18.441c-2.835 1.532-5.868 2.639-5.868 5.873v27.662 96.519z" fill="#ffea60" fill-rule="evenodd"/></g><g><path clip-rule="evenodd" d="m173.726 158.82c15.449-.709 30.812-2.27 46.062-4.681v-110.279l-46.062 18.441z" fill="#fff2a0" fill-rule="evenodd"/></g><g><path clip-rule="evenodd" d="m219.788 154.139c15.477-2.412 30.84-5.703 46.09-9.845v-109.655c0-3.234-3.033-4.341-5.868-5.873l-34.355-18.441c-2.835-1.532-5.868 2.639-5.868 5.873v27.662 110.279z" fill="#ffea60" fill-rule="evenodd"/></g><g><path clip-rule="evenodd" d="m29.559 236.784h175.263c18.311-17.931 44.305-31.889 74.691-39.606l11.849-60.629c-8.475 2.837-16.951 5.419-25.483 7.745-15.25 4.142-30.614 7.433-46.09 9.845-15.25 2.412-30.614 3.972-46.062 4.681-7.653.369-15.335.511-23.045.482-7.71.028-15.392-.113-23.045-.482-15.449-.709-30.812-2.27-46.062-4.681-15.477-2.412-30.84-5.703-46.09-9.845-8.532-2.326-17.036-4.908-25.483-7.745z" fill="#ff7b79" fill-rule="evenodd"/></g><g><path clip-rule="evenodd" d="m42.91 305.244h133.311v-6.157c0-23.179 10.573-44.685 28.601-62.303h-175.263z" fill="#ffbdbc" fill-rule="evenodd"/></g><g><path clip-rule="evenodd" d="m54.588 365.051h135.38c-4.45-6.1-7.172-14.044-7.172-24.002 0-7.689 6.491-14.015 14.4-14.015h-9.468c-6.321 0-11.508-5.164-11.508-11.49v-10.299h-133.31z" fill="#ff7b79" fill-rule="evenodd"/></g><g><path clip-rule="evenodd" d="m333.002 370.611 40.279 54.899 39.571-53.962 32.655-44.515h-144.479z" fill="#fff2a0" fill-rule="evenodd"/></g><g><path clip-rule="evenodd" d="m412.852 371.548c18.17 13.732 51.448 13.476 66.018-6.497 4.422-6.1 7.143-14.044 7.143-24.002 0-7.689-6.491-14.015-14.371-14.015h-26.135z" fill="#ffea60" fill-rule="evenodd"/></g><g><path clip-rule="evenodd" d="m373.281 425.51h98.02c16.894 0 30.699-13.817 30.699-30.698 0-14.299-9.893-26.385-23.13-29.761-14.57 19.973-47.848 20.229-66.018 6.497z" fill="#ffbdbc" fill-rule="evenodd"/></g><g><path clip-rule="evenodd" d="m197.508 425.51h175.773l-40.28-54.898c-21.033 17.874-53.914 17.477-74.38-1.248-17.404 15.916-53.347 16.682-68.654-4.312-13.266 3.376-23.13 15.462-23.13 29.761.001 16.88 13.806 30.697 30.671 30.697z" fill="#ffbdbc" fill-rule="evenodd"/></g><g><path clip-rule="evenodd" d="m218.484 501.998h231.87c23.215 0 42.235-19.009 42.235-42.273v-15.86c0-10.1-8.249-18.356-18.34-18.356h-2.948-98.02-175.773-2.948c-10.063 0-18.34 8.256-18.34 18.356v15.86c.001 23.236 19.021 42.273 42.264 42.273z" fill="#ffa96b" fill-rule="evenodd"/></g><g><path d="m260.748 277.596c2.561 0 5.122-.978 7.074-2.932l17.659-17.675c3.903-3.907 3.901-10.239-.006-14.142s-10.238-3.901-14.142.006l-17.659 17.675c-3.903 3.907-3.901 10.239.006 14.142 1.953 1.95 4.51 2.926 7.068 2.926z"/><path d="m325.575 277.596c2.558 0 5.116-.976 7.069-2.926l17.688-17.675c3.906-3.904 3.909-10.236.005-14.143s-10.235-3.908-14.143-.005l-17.688 17.675c-3.906 3.904-3.909 10.236-.005 14.143 1.954 1.953 4.514 2.931 7.074 2.931z"/><path d="m390.403 277.596c2.558 0 5.116-.976 7.069-2.926l17.688-17.675c3.906-3.904 3.909-10.236.005-14.143s-10.235-3.908-14.143-.005l-17.688 17.675c-3.906 3.904-3.909 10.236-.005 14.143 1.953 1.953 4.513 2.931 7.074 2.931z"/><path d="m512 394.812c0-14.391-7.535-27.339-19.29-34.609 2.161-5.779 3.303-12.194 3.303-19.154 0-3.044-.584-5.955-1.637-8.638 4.992-3.939 8.214-10.028 8.214-16.868v-16.455c0-32.403-17.993-62.604-50.664-85.038-31.524-21.646-73.255-33.567-117.507-33.567-14.418 0-28.565 1.273-42.183 3.728l8.94-45.744c.683-3.497-.545-7.092-3.225-9.44s-6.406-3.091-9.782-1.955c-4.082 1.375-8.182 2.665-12.29 3.913v-96.346c0-8.917-7.154-12.617-10.209-14.196-.3-.155-35.258-18.915-35.258-18.915-3.974-2.148-8.715-2.02-12.68.343-4.751 2.833-7.943 8.59-7.943 14.326v20.894l-26.062 10.434v-31.327c0-5.736-3.192-11.493-7.943-14.326-3.966-2.363-8.705-2.491-12.654-.357 0 0-34.984 18.773-35.285 18.929-3.055 1.58-10.208 5.279-10.208 14.196v12.887l-26.064-10.435v-20.894c0-5.736-3.192-11.494-7.943-14.326-3.964-2.363-8.705-2.491-12.653-.357 0 0-34.984 18.774-35.285 18.929-3.055 1.58-10.208 5.279-10.208 14.196v96.349c-4.108-1.25-8.207-2.54-12.288-3.916-3.376-1.138-7.102-.395-9.782 1.953-2.68 2.347-3.91 5.942-3.228 9.438l44.588 228.502c.917 4.696 5.03 8.085 9.815 8.085h107.363c-3.273 5.896-5.113 12.652-5.113 19.761 0 12.837 5.977 24.297 15.284 31.762-3.696 4.79-5.902 10.786-5.902 17.292v15.86c0 28.823 23.446 52.273 52.264 52.273h70.978c5.523 0 10-4.477 10-10s-4.477-10-10-10h-70.978c-17.791 0-32.264-14.478-32.264-32.273v-15.86c0-4.529 3.819-8.356 8.34-8.356h279.689c4.599 0 8.34 3.749 8.34 8.356v15.86c0 17.795-14.461 32.273-32.236 32.273h-71.091c-5.523 0-10 4.477-10 10s4.477 10 10 10h71.091c28.803 0 52.236-23.45 52.236-52.273v-15.86c0-6.502-2.203-12.495-5.895-17.283 9.32-7.465 15.305-18.929 15.305-31.771zm-177.581-194.329c40.25 0 77.961 10.674 106.186 30.055 27.074 18.591 41.985 42.936 41.985 68.55v16.455c0 .808-.678 1.49-1.48 1.49h-293.38c-.804 0-1.509-.696-1.509-1.49v-16.455c0-19.693 8.827-38.633 25.213-54.789.294-.258.572-.534.834-.825 4.72-4.554 10.046-8.882 15.951-12.936 28.232-19.381 65.948-30.055 106.2-30.055zm141.594 140.566c0 7.119-1.669 13.045-4.963 17.745-.153.191-.298.389-.438.592-2.407 3.22-5.603 5.845-9.606 7.836-9.671 4.811-22.788 4.977-33.345 1.052l22.913-31.241h21.068c2.369 0 4.371 1.839 4.371 4.016zm-157.189 27.144c-16.887 8.968-39.2 6.832-53.452-6.208-3.819-3.494-9.674-3.497-13.496-.004-10.058 9.188-29.223 11.822-42.721 5.871-7.463-3.29-16.359-10.611-16.359-26.803 0-2.177 2.015-4.016 4.399-4.016h98.765zm-89.036-324.13c0-.015 0-.029 0-.044v-20.126l25.469 13.671c.207.112.414.221.621.33v98.651c-8.652 2.176-17.351 4.078-26.09 5.699zm-46.062 25.007 26.062-10.434v86.819c-8.66 1.179-17.35 2.087-26.062 2.723zm-46.09-6.929c0-.014 0-.027 0-.041v-24.206c.203-.106.404-.212.597-.316l25.494-13.685v38.207.041 87.012c-4.326.109-8.654.174-12.986.15-.04 0-.079 0-.119 0-4.333.028-8.66-.035-12.985-.142v-87.02zm-46.063-3.506 26.063 10.434v79.124c-8.715-.634-17.405-1.541-26.063-2.72zm-46.09-20.74c.204-.106.404-.212.597-.317l25.493-13.685v20.127.041 98.201c-8.741-1.623-17.44-3.528-26.09-5.707zm-22.443 113.264c41.607 12.295 84.449 18.381 127.641 18.144 43.164.243 86.009-5.849 127.637-18.146l-7.425 37.991c-19.909 5.686-38.227 14.078-53.994 24.902-5.836 4.007-11.195 8.265-16.076 12.735h-163.026zm28.115 144.085-9.456-48.459h141.511c-10.342 14.914-16.139 31.344-16.895 48.459zm11.67 59.807-7.768-39.807h111.163v.299c0 6.836 3.223 12.924 8.218 16.863-1.056 2.684-1.641 5.597-1.641 8.643 0 4.93.59 9.614 1.72 14.002zm134.683 60.459c-11.397 0-20.67-9.285-20.67-20.698 0-7.524 4.049-14.263 10.307-17.897 3.923 3.758 8.591 6.877 13.943 9.237 17.993 7.932 41.148 5.952 57.344-4.167 11.247 7.825 24.659 11.756 38.088 11.755 11.897 0 23.801-3.1 34.228-9.296l22.793 31.065h-156.033zm123.26-78.477h105.003l-20.855 28.435c-.012.016-.026.03-.039.046-.022.03-.04.062-.062.091l-31.536 42.998zm150.533 78.477h-78.285l22.506-30.686c8.456 4.118 18.175 6.244 27.853 6.244 9.275 0 18.507-1.945 26.537-5.938 4.482-2.229 8.41-4.99 11.788-8.198 6.255 3.64 10.301 10.37 10.301 17.88-.001 11.412-9.286 20.698-20.7 20.698z"/><path d="m334.363 491.998c-5.523 0-10 4.477-10 10s4.477 10 10 10h.057c5.523 0 9.972-4.477 9.972-10s-4.507-10-10.029-10z"/></g></g></svg>