<svg id="Capa_1" enable-background="new 0 0 512 512" height="512" viewBox="0 0 512 512" width="512" xmlns="http://www.w3.org/2000/svg"><g><g><path clip-rule="evenodd" d="m368.43 249.588c-67.434-64.178-224.109-121.467-324.85-133.486-30.786-3.657-31.607 11.679-31.607 33.194v1.332 1.672 156.476 156.504.057 3.487c.028 21.204 1.076 36.284 31.607 32.627 100.74-12.019 257.416-69.28 324.849-133.458 20.448-19.446 32.712-39.544 32.712-59.217 0-19.644-12.263-39.742-32.711-59.188z" fill="#ffa96b" fill-rule="evenodd"/></g><g><path clip-rule="evenodd" d="m463.676 203.552-95.246 46.036c20.448 19.446 32.712 39.544 32.712 59.189 0 19.673-12.263 39.771-32.712 59.217l95.246 46.007c47.212 22.819 38.801-26.334 27.444-45.299-36.592-61.088-36.592-58.735 0-119.823 11.356-18.992 19.768-68.118-27.444-45.327z" fill="#ffd4b5" fill-rule="evenodd"/></g><g><path d="m155.91 94.268c-4.1 0-6.953-2.44-9.254-5.578-2.354-3.21-4.135-6.826-5.306-10.628-2.123-6.895-2.345-14.69-.803-21.74.824-3.77 2.232-7.408 4.205-10.727 2.045-3.442 5.097-6.196 6.411-10.048 1.043-3.056 1.187-6.459.898-9.658-.16-1.769-.553-3.521-1.22-5.169-.768-1.897-1.976-3.341-3.132-4.992-4.199-5.997-.462-14.616 6.8-15.633 3.393-.475 6.799.854 9.027 3.44 2.662 3.089 4.754 6.702 6.188 10.514 2.269 6.037 2.834 12.659 2.254 19.056-.7 7.717-3.708 14.672-8.581 20.662-2.512 3.088-3.707 6.865-3.758 10.826-.045 3.555.23 7.045 1.895 10.262.783 1.513 1.96 2.69 2.853 4.115.886 1.414 1.406 3.044 1.502 4.711.202 3.477-1.463 6.869-4.334 8.838-1.656 1.135-3.638 1.749-5.645 1.749zm-.006-47.134h.01z"/></g><g><path d="m254.498 127.179c-4.033 0-6.874-2.36-9.155-5.447-2.267-3.068-4.008-6.512-5.188-10.137-2.48-7.614-2.637-16.356-.559-24.082 1.02-3.792 2.632-7.426 4.815-10.694 1.98-2.965 4.444-5.345 5.532-8.843 1.126-3.62 1.189-7.99.362-11.682-.401-1.791-1.089-3.515-2.064-5.071-.945-1.507-2.222-2.736-2.934-4.39-2.802-6.503 2.154-13.983 9.233-13.952 3.443.015 6.2 1.78 8.29 4.398 2.579 3.23 4.588 6.896 5.915 10.811 2.014 5.942 2.457 12.464 1.77 18.683-.82 7.426-3.799 14.142-8.528 19.898-2.405 2.928-3.581 6.556-3.72 10.321-.145 3.929.202 7.892 2.19 11.37.79 1.382 1.943 2.493 2.729 3.87.824 1.444 1.275 3.089 1.305 4.751.061 3.402-1.646 6.658-4.484 8.538-1.627 1.078-3.56 1.658-5.509 1.658zm-.006-47.134h.01z"/></g><g><path d="m353.113 170.238c-4.101 0-6.951-2.438-9.254-5.578-2.354-3.21-4.135-6.825-5.306-10.628-2.355-7.652-2.411-16.414-.185-24.104 1.093-3.776 2.778-7.38 5.03-10.605 1.014-1.452 2.254-2.74 3.224-4.219 1.059-1.614 1.797-3.422 2.23-5.3.701-3.036.734-6.49.198-9.559-.322-1.845-.922-3.643-1.83-5.284-.919-1.661-2.329-2.98-3.147-4.697-3.118-6.542 1.857-14.353 9.106-14.295 3.6.029 6.354 1.95 8.496 4.694 2.527 3.237 4.479 6.902 5.76 10.803 1.975 6.013 2.378 12.641 1.605 18.909-.449 3.643-1.406 7.224-2.894 10.582-.838 1.891-1.843 3.708-2.999 5.424-1.046 1.553-2.326 2.919-3.395 4.449-2.066 2.959-2.917 6.562-2.914 10.134.003 3.431.289 6.753 1.896 9.86.804 1.553 2.03 2.756 2.927 4.233.865 1.425 1.36 3.061 1.434 4.725.156 3.49-1.565 6.872-4.48 8.801-1.623 1.076-3.553 1.655-5.502 1.655zm-.006-47.135h.01z"/></g><g><path d="m499.698 363.563-2.037-3.399c-15.97-26.641-23.985-40.013-23.985-51.373 0-11.361 8.016-24.733 23.985-51.373l2.041-3.406c7.033-11.762 17.564-42.89 3.043-58.768-6.271-6.854-18.889-12.536-43.423-.694-14.641 7.08-28.952 13.994-43.118 20.839-15.425 7.453-30.68 14.824-45.995 22.23-22.907-20.434-54.607-40.607-94.233-59.964-72.212-35.274-162.968-63.333-231.216-71.483-15.099-1.796-25.471.338-32.641 6.708-10.16 9.029-10.153 23.195-10.146 38.193v112.802c0 5.522 4.477 10 10 10s10-4.478 10-10v-112.812c-.005-10.375-.009-20.176 3.432-23.233 1.416-1.258 5.505-3.166 16.99-1.799 66.2 7.905 154.44 35.223 224.804 69.594 78.768 38.477 123.943 79.719 123.943 113.151 0 33.446-45.176 74.696-123.943 113.173-70.367 34.373-158.607 61.682-224.807 69.573-11.488 1.372-15.576-.526-16.991-1.781-3.437-3.051-3.433-12.85-3.428-23.224v-112.811c0-5.522-4.477-10-10-10s-10 4.478-10 10v112.801c-.007 15-.014 29.167 10.149 38.189 5.539 4.917 12.984 7.304 23.041 7.303 2.967 0 6.163-.207 9.601-.619 68.239-8.134 158.995-36.184 231.212-71.461 39.621-19.354 71.317-39.527 94.224-59.962 29.384 14.211 58.539 28.284 89.123 43.047 10.314 4.985 18.522 6.869 25.04 6.869 8.981 0 14.749-3.58 18.383-7.554 14.531-15.889 3.991-47.002-3.048-58.756zm-11.711 45.261c-1.84 2.008-8.721 1.606-19.965-3.829-28.377-13.697-55.516-26.796-82.752-39.965 17.177-19.127 25.871-37.99 25.871-56.254 0-18.255-8.691-37.11-25.862-56.229 13.181-6.373 26.339-12.731 39.626-19.15 14.167-6.845 28.48-13.761 43.118-20.838 11.237-5.427 18.122-5.828 19.963-3.816 4.287 4.688 1.333 23.662-5.446 34.999l-2.033 3.394c-17.864 29.801-26.831 44.76-26.831 61.656s8.967 31.854 26.831 61.656l2.033 3.393c6.785 11.328 9.737 30.291 5.447 34.983z"/><path d="m284.492 349.931c4.477 0 8.552-3.028 9.691-7.567l15.634-62.278c1.345-5.356-1.908-10.789-7.265-12.134-5.354-1.34-10.789 1.908-12.134 7.265l-15.634 62.278c-1.345 5.356 1.908 10.789 7.265 12.134.818.205 1.636.302 2.443.302z"/><path d="m209.326 381.539c4.477 0 8.552-3.027 9.691-7.566l31.522-125.521c1.345-5.356-1.907-10.789-7.263-12.135-5.354-1.342-10.789 1.907-12.134 7.264l-31.522 125.52c-1.345 5.356 1.907 10.789 7.263 12.135.818.205 1.637.303 2.443.303z"/><path d="m134.67 411.161c4.477 0 8.552-3.027 9.691-7.566l46.391-184.737c1.345-5.356-1.907-10.789-7.263-12.135-5.36-1.345-10.79 1.907-12.134 7.264l-46.391 184.737c-1.345 5.356 1.907 10.789 7.263 12.135.818.204 1.637.302 2.443.302z"/><path d="m72.362 391.602c4.477 0 8.552-3.027 9.691-7.566l36.563-145.619c1.345-5.356-1.907-10.789-7.263-12.135-5.359-1.342-10.789 1.907-12.134 7.264l-36.563 145.619c-1.345 5.356 1.907 10.789 7.263 12.135.818.205 1.637.302 2.443.302z"/><path d="m11.974 318.805c5.523 0 10-4.506 10-10.028s-4.477-10-10-10-10 4.478-10 10v.057c0 5.521 4.477 9.971 10 9.971z"/></g></g></svg>