<svg id="Capa_1" enable-background="new 0 0 512.035 512.035" height="512" viewBox="0 0 512.035 512.035" width="512" xmlns="http://www.w3.org/2000/svg"><g><g><path clip-rule="evenodd" d="m53.032 413.486c135.326 56.065 280.544 51.953 405.949 0 32.372-13.414 47.877-50.876 34.469-83.233-4.195-10.152-10.743-18.632-18.765-25.069-17.575-14.179-42.208-18.603-64.431-9.415-95.301 39.504-205.653 42.623-308.494 0-22.224-9.188-46.828-4.764-64.403 9.415-8.022 6.437-14.598 14.945-18.794 25.069-13.379 32.358 2.126 69.82 34.469 83.233z" fill="#ffa96b" fill-rule="evenodd"/></g><g><path clip-rule="evenodd" d="m101.76 295.769c102.841 42.623 213.193 39.504 308.494 0 22.224-9.188 46.857-4.764 64.431 9.415 2.296-1.305 4.62-2.581 6.888-3.914 11.82-6.834 18.964-18.774 20.239-31.45.255-2.722.283-5.502 0-8.252-.567-5.558-2.296-11.088-5.244-16.221-10.573-18.291-33.364-25.353-52.242-16.874-1.247.567-2.466 1.191-3.657 1.9-113.867 65.764-255.429 65.764-369.325 0-1.191-.709-2.409-1.333-3.657-1.9-18.879-8.479-41.669-1.418-52.214 16.874-11.253 19.511-4.535 44.665 14.967 55.923 2.296 1.333 4.592 2.609 6.917 3.914 17.575-14.179 42.179-18.603 64.403-9.415z" fill="#ff7b79" fill-rule="evenodd"/></g><g><path clip-rule="evenodd" d="m71.344 230.373c113.896 65.764 255.458 65.764 369.325 0 1.191-.709 2.409-1.333 3.657-1.9-13.578-19.709-39.657-28.047-62.617-18.547-77.669 32.187-167.612 34.74-251.404 0-22.961-9.5-49.039-1.163-62.617 18.547 1.247.567 2.466 1.191 3.656 1.9z" fill="#ffd4b5" fill-rule="evenodd"/></g><g><path d="m423.719 391.838h-.057c-5.522 0-10-4.477-10-10s4.478-10 10-10 10.028 4.477 10.028 10-4.449 10-9.971 10z"/></g><g><path d="m339.687 158.379c4.85 6.063 14.838 4.288 17.293-3.077 1.002-3.006.503-6.384-1.336-8.966-1.08-1.517-2.182-2.851-2.851-4.622-5.648-19.151 12.143-16.987 10.315-43.807-.494-7.201-3.112-14.149-7.737-19.721-4.326-5.21-12.646-5.049-16.349.848-1.668 2.657-1.988 6.038-.845 8.96 1.414 2.973 4.049 5.252 4.584 8.647 1.873 7.726-.858 12.999-5.615 18.806-3.632 5.676-5.369 12.374-5.36 19.086.009 6.636 1.142 13.052 4.458 18.893.996 1.751 2.151 3.41 3.443 4.953z"/><path d="m256.027 135.787c7.163 0 12.061-7.656 9.096-14.149-.635-1.391-1.682-2.432-2.506-3.696-2.782-4.412-2.98-10.343-1.447-15.225 1.095-3.208 3.613-5.504 5.374-8.33 5.096-8.127 6.292-18.384 4.435-27.695-.719-3.521-1.977-6.931-3.76-10.053-1.762-3.084-3.976-6.475-7.387-7.876-6.251-2.569-13.398 1.918-13.794 8.666-.089 1.513.169 3.043.755 4.441.677 1.617 1.901 2.793 2.805 4.264 3.261 5.985 3.011 14.184-1.396 19.525-6.898 8.128-9.099 19.44-7.433 29.818.539 3.444 1.574 6.809 3.118 9.937 1.631 3.305 3.912 7.217 7.211 9.081 1.497.844 3.21 1.292 4.929 1.292z"/><path d="m156.706 158.374c4.848 6.065 14.835 4.299 17.295-3.066 1.004-3.005.509-6.384-1.328-8.967-4.358-4.951-4.944-12.4-2.559-18.4 1.615-3.275 4.443-5.731 6.013-9.058 3.416-6.4 4.486-13.672 4.015-20.854-.467-7.124-3.004-14.002-7.516-19.563-2.068-2.548-4.926-4.164-8.27-4.112-3.259.051-6.359 1.744-8.165 4.458-1.739 2.612-2.146 5.984-1.081 8.935 1.258 3.037 4.021 5.238 4.609 8.609 1.146 4.893.779 10.685-2.322 14.804-5.65 6.414-8.663 14.831-8.584 23.366.008 6.639 1.142 13.051 4.455 18.896.992 1.75 2.147 3.408 3.438 4.952z"/><path d="m87.983 339.14c-5.522 0-10 4.477-10 10s4.478 10 10 10h.057c5.522 0 9.972-4.477 9.972-10s-4.506-10-10.029-10z"/><path d="m137.476 379.665c-5.522 0-10 4.477-10 10s4.478 10 10 10h.057c5.522 0 9.972-4.477 9.972-10s-4.506-10-10.029-10z"/><path d="m191.476 357.148c-5.522 0-10 4.477-10 10s4.478 10 10 10h.057c5.522 0 9.972-4.477 9.972-10s-4.506-10-10.029-10z"/><path d="m235.754 390.186c-5.522 0-10 4.477-10 10s4.478 10 10 10h.028c5.522 0 9.986-4.477 9.986-10s-4.492-10-10.014-10z"/><path d="m291.227 354.17c-5.522 0-10 4.477-10 10s4.478 10 10 10h.057c5.522 0 9.972-4.477 9.972-10s-4.506-10-10.029-10z"/><path d="m334.002 390.186c-5.522 0-10 4.477-10 10s4.478 10 10 10h.028c5.522 0 9.986-4.477 9.986-10s-4.492-10-10.014-10z"/><path d="m365.438 343.649c-5.522 0-10 4.477-10 10s4.478 10 10 10h.057c5.522 0 9.972-4.477 9.972-10s-4.506-10-10.029-10z"/><path d="m255.965 289.689h.057c5.522 0 9.972-4.477 9.972-10s-4.506-10-10.028-10-10 4.477-10 10 4.476 10 9.999 10z"/><path d="m490.927 307.115c20.92-15.083 27.462-43.952 14.303-66.764-6.776-11.75-17.762-20.164-30.932-23.689-8.861-2.371-17.969-2.323-26.56.022-17.291-19.297-45.476-26.084-69.858-15.995-78.609 32.576-165.172 32.577-243.753-.002-24.376-10.088-52.559-3.301-69.85 15.994-8.583-2.343-17.684-2.389-26.538-.018-13.167 3.526-24.15 11.938-30.928 23.688-13.164 22.825-6.628 51.701 14.273 66.765-4.777 5.655-8.781 12.121-11.763 19.317-15.521 37.538 2.367 80.734 39.883 96.292 66.14 27.402 135.6 41.284 206.536 41.284 1.351 0 2.71-.005 4.061-.015 69.866-.521 138.167-14.406 203.007-41.268h.001c18.123-7.509 32.262-21.688 39.813-39.925 7.551-18.235 7.574-38.256.066-56.374-2.98-7.195-6.983-13.659-11.761-19.312zm-466.791-56.772c4.106-7.119 10.774-12.219 18.777-14.362 8.002-2.141 16.32-1.058 23.432 3.053 44.223 25.532 92.505 41.634 143.507 47.859 5.494.668 10.469-3.232 11.139-8.715.669-5.482-3.233-10.469-8.715-11.138-45.55-5.56-88.8-19.44-128.689-41.266 11.742-9.754 28.322-12.637 42.888-6.61 41.761 17.313 85.632 25.97 129.521 25.968 43.877-.002 87.771-8.657 129.537-25.965 14.574-6.03 31.155-3.146 42.896 6.608-39.943 21.857-83.218 35.735-128.768 41.265-5.482.666-9.388 5.65-8.722 11.132.665 5.483 5.645 9.379 11.132 8.722 51.005-6.192 99.319-22.295 143.6-47.86 7.121-4.113 15.45-5.196 23.457-3.053 8.004 2.143 14.674 7.243 18.779 14.362 8.523 14.778 3.44 33.739-11.4 42.307-.368.217-.746.423-1.118.637-19.757-13.089-45.465-16.47-68.963-6.756-96.992 40.205-203.831 40.204-300.841-.002-23.494-9.724-49.203-6.342-68.963 6.756-.393-.225-.785-.446-1.18-.675-14.763-8.521-19.834-27.482-11.306-42.267zm460.007 124.805c-5.507 13.301-15.803 23.636-28.989 29.1-128.423 53.204-269.874 53.206-398.291.001-27.336-11.337-40.371-42.817-29.062-70.167 8.561-20.658 28.605-33.152 49.685-33.152 6.824 0 13.759 1.311 20.444 4.077 51.521 21.353 105.669 31.975 160.979 31.56 53.405-.398 105.613-11.016 155.166-31.556 27.344-11.306 58.81 1.733 70.137 29.071 5.463 13.183 5.438 27.767-.069 41.066z"/></g></g></svg>