<svg id="Capa_1" enable-background="new 0 0 512 512" height="512" viewBox="0 0 512 512" width="512" xmlns="http://www.w3.org/2000/svg"><g><g><path clip-rule="evenodd" d="m143.806 127.019c-40.174 16.043-76.12 46.298-101.35 90.338-36.232 62.341-37.546 129.515-12.202 184.821 10.172 22.191 6.115 22.22 4.572 45.698-1.229 18.588 9.029 36.89 26.259 46.87 17.258 9.952 38.231 9.694 53.69-.658 19.544-13.069 17.544-16.615 41.86-18.903 26.802-2.517 52.975-10.724 76.977-24.536-28.116-28.139-45.518-67.031-45.518-109.984 0-78.699 58.376-143.757 134.181-154.137-9.686-21.333-5.715-21.676-4.2-44.84 1.229-18.588-9.029-36.919-26.259-46.87-1.914-1.115-3.886-2.088-5.858-2.945-11.687-5.004-24.488-5.691-35.917-2.088-4.2 1.315-8.229 3.203-11.915 5.691-19.544 13.069-17.544 16.615-41.86 18.874-17.915 1.688-35.545 5.92-52.46 12.669z" fill="#ffea60" fill-rule="evenodd"/></g><g><path clip-rule="evenodd" d="m322.276 186.529c-75.806 10.381-134.181 75.439-134.181 154.137 0 42.953 17.401 81.844 45.518 109.984 28.116 28.168 67.005 45.612 109.951 45.612 85.863 0 155.469-69.662 155.469-155.596s-69.605-155.596-155.469-155.596c-7.23.001-14.345.487-21.288 1.459zm-88.635 154.137c0-30.37 12.287-57.88 32.202-77.784 19.887-19.932 47.375-32.229 77.72-32.229s57.833 12.297 77.72 32.229c19.916 19.903 32.202 47.414 32.202 77.784s-12.287 57.88-32.202 77.784c-19.887 19.932-47.375 32.229-77.72 32.229s-57.833-12.297-77.72-32.229c-19.916-19.903-32.202-47.414-32.202-77.784z" fill="#fff2a0" fill-rule="evenodd"/></g><g><path clip-rule="evenodd" d="m265.843 262.883c-19.916 19.903-32.202 47.414-32.202 77.784h80.234c0-8.207 3.315-15.642 8.686-21.019z" fill="#fff2a0" fill-rule="evenodd"/></g><g><path clip-rule="evenodd" d="m343.563 230.654c-30.345 0-57.833 12.297-77.72 32.229l56.718 56.765c5.372-5.376 12.801-8.693 21.002-8.693z" fill="#ffea60" fill-rule="evenodd"/></g><g><path clip-rule="evenodd" d="m343.563 230.654v80.3c8.201 0 15.63 3.317 21.002 8.693l56.718-56.765c-19.887-19.931-47.375-32.228-77.72-32.228z" fill="#fff2a0" fill-rule="evenodd"/></g><g><path clip-rule="evenodd" d="m421.283 262.883-56.718 56.765c5.372 5.376 8.686 12.811 8.686 21.019h80.234c0-30.371-12.286-57.881-32.202-77.784z" fill="#ffea60" fill-rule="evenodd"/></g><g><path clip-rule="evenodd" d="m453.485 340.666h-80.234c0 8.207-3.315 15.643-8.686 21.019l56.718 56.765c19.916-19.903 32.202-47.414 32.202-77.784z" fill="#fff2a0" fill-rule="evenodd"/></g><g><path clip-rule="evenodd" d="m364.565 361.685c-5.372 5.376-12.801 8.693-21.002 8.693v80.3c30.345 0 57.833-12.297 77.72-32.229z" fill="#ffea60" fill-rule="evenodd"/></g><g><path clip-rule="evenodd" d="m322.562 361.685-56.718 56.765c19.887 19.932 47.375 32.229 77.72 32.229v-80.3c-8.202 0-15.631-3.318-21.002-8.694z" fill="#fff2a0" fill-rule="evenodd"/></g><g><path clip-rule="evenodd" d="m233.641 340.666c0 30.37 12.287 57.88 32.202 77.784l56.718-56.765c-5.372-5.376-8.686-12.811-8.686-21.019z" fill="#ffea60" fill-rule="evenodd"/></g><g><path clip-rule="evenodd" d="m343.563 310.954c-8.201 0-15.63 3.317-21.002 8.693s-8.686 12.811-8.686 21.019c0 8.207 3.315 15.643 8.686 21.019 5.372 5.376 12.801 8.693 21.002 8.693s15.63-3.317 21.002-8.693 8.686-12.811 8.686-21.019c0-8.207-3.315-15.642-8.686-21.019-5.372-5.376-12.801-8.693-21.002-8.693z" fill="#fff2a0" fill-rule="evenodd"/></g><g><path clip-rule="evenodd" d="m222.526 57.042c-28.802-18.359-81.892-30.885-115.551-18.102-1.343 28.625 16.315 63.914 36.831 88.078 16.916-6.749 34.545-10.981 52.461-12.668 24.316-2.259 22.316-5.805 41.86-18.874 3.686-2.488 7.715-4.375 11.915-5.691-4.172-10.838-11.544-21.362-23.087-29.741-1.401-1-2.886-2.001-4.429-3.002z" fill="#a0e5a5" fill-rule="evenodd"/></g><g><path clip-rule="evenodd" d="m268.958 10c-18.716 6.606-36.717 27.567-46.432 47.042 1.543 1.001 3.029 2.002 4.429 3.003 11.544 8.379 18.916 18.903 23.087 29.741 11.429-3.603 24.23-2.917 35.917 2.088 6.515-23.536-.086-63.715-17.001-81.874z" fill="#d0f2d2" fill-rule="evenodd"/></g><g><path d="m223.64 340.667c0 66.175 53.797 120.012 119.924 120.012 66.126 0 119.923-53.838 119.923-120.012 0-66.176-53.797-120.013-119.923-120.013-66.127-.001-119.924 53.837-119.924 120.013zm109.922-99.513v61.079c-3.579.933-6.959 2.361-10.072 4.195l-43.13-43.165c14.806-12.133 33.138-20.104 53.202-22.109zm-67.338 36.259 43.125 43.161c-1.836 3.119-3.265 6.505-4.199 10.092h-61.01c2.001-20.083 9.963-38.433 22.084-53.253zm-22.084 73.254h61.011c.933 3.586 2.362 6.973 4.199 10.092l-43.125 43.16c-12.122-14.819-20.084-33.169-22.085-53.252zm89.422 89.511c-20.064-2.005-38.397-9.976-53.201-22.108l43.129-43.165c3.113 1.834 6.493 3.262 10.072 4.195zm-9.686-99.511c0-10.869 8.832-19.711 19.687-19.711 10.856 0 19.686 8.842 19.686 19.711s-8.831 19.711-19.686 19.711-19.687-8.843-19.687-19.711zm29.688 99.511v-61.078c3.579-.933 6.958-2.361 10.071-4.195l43.129 43.165c-14.804 12.132-33.136 20.103-53.2 22.108zm67.338-36.259-43.125-43.16c1.837-3.119 3.265-6.505 4.199-10.092h61.011c-2.002 20.083-9.965 38.433-22.085 53.252zm22.084-73.253h-61.011c-.933-3.586-2.362-6.973-4.199-10.092l43.125-43.161c12.122 14.82 20.084 33.17 22.085 53.253zm-89.422-89.512c20.063 2.005 38.396 9.976 53.201 22.109l-43.13 43.165c-3.113-1.834-6.492-3.262-10.071-4.195z"/><path d="m117.546 186.28c-5.523 0-10.001 4.478-10.001 10.001s4.478 10.001 10.001 10.001h.058c5.523 0 9.973-4.478 9.973-10.001s-4.508-10.001-10.031-10.001z"/><path d="m155.349 164.06c-5.523 0-10.001 4.478-10.001 10.001s4.478 10.001 10.001 10.001h.058c5.523 0 9.973-4.478 9.973-10.001-.001-5.523-4.508-10.001-10.031-10.001z"/><path d="m97.317 226.83c-5.523 0-10.001 4.478-10.001 10.001s4.478 10.001 10.001 10.001h.028c5.523 0 9.987-4.478 9.987-10.001s-4.492-10.001-10.015-10.001z"/><path d="m198.581 165.76h.058c5.523 0 9.972-4.478 9.972-10.001s-4.506-10.001-10.029-10.001-10.001 4.478-10.001 10.001 4.477 10.001 10 10.001z"/><path d="m147.949 216.707c-5.523 0-10.001 4.478-10.001 10.001s4.478 10.001 10.001 10.001h.058c5.523 0 9.972-4.478 9.972-10.001s-4.507-10.001-10.03-10.001z"/><path d="m190.723 206.481h.057c5.523 0 9.973-4.478 9.973-10.001s-4.506-10.001-10.029-10.001-10.001 4.478-10.001 10.001 4.477 10.001 10 10.001z"/><path d="m489.628 262.757c-2.597-4.874-8.652-6.723-13.529-4.125-4.875 2.596-6.722 8.653-4.125 13.528 30.32 56.928 20.048 125.827-25.564 171.45-27.478 27.501-64.004 42.646-102.858 42.645-.005 0-.013 0-.018 0-38.845-.004-75.359-15.149-102.82-42.645-56.717-56.763-56.717-149.123.002-205.889 44.915-44.977 115.379-55.476 171.362-25.53 4.871 2.608 10.931.77 13.535-4.101 2.606-4.87.77-10.93-4.101-13.535-28.238-15.106-60.955-21.669-92.986-18.79-3.189-8.076-2.831-11.067-1.831-19.413.433-3.614.972-8.111 1.358-14.002 1.463-22.143-10.595-44.018-30.747-55.895 4.059-26.077-2.759-63.652-21.033-83.27-2.711-2.911-6.893-3.937-10.647-2.613-19.711 6.957-36.496 25.752-46.911 42.763-32.65-17.035-82.35-26.245-115.29-13.744-3.724 1.414-6.255 4.903-6.441 8.881-1.376 29.336 14.438 61.76 31.016 84.573-38.372 18.365-71.137 49.029-94.191 89.287-36.087 62.09-40.695 132.805-12.646 194.014 6.557 14.304 6.297 16.466 5.047 26.856-.435 3.615-.976 8.115-1.363 14.015-1.473 22.289 10.783 44.342 31.242 56.193 9.944 5.734 21.002 8.59 31.874 8.59 11.52-.001 22.829-3.208 32.37-9.598 4.922-3.291 8.55-6.013 11.465-8.2 8.368-6.279 10.109-7.585 25.771-9.059 26.173-2.457 51.17-9.93 74.427-22.203 30.543 27.982 69.858 43.311 111.536 43.316h.02c44.197-.001 85.752-17.228 117.005-48.506 25.591-25.598 41.786-58.036 46.834-93.808 4.88-34.583-1.429-70.517-17.763-101.185zm-223.693-240.375c9.532 14.7 13.754 38.686 12.148 56.571-7.422-1.583-15.004-1.82-22.326-.704-4.891-9.272-11.736-17.492-20.162-24.186 8.331-13.775 19.652-25.593 30.34-31.681zm-148.894 23.876c31.396-7.901 79.925 4.376 104.038 21.88 6.407 4.65 11.565 10.223 15.421 16.631-1.339.743-2.654 1.537-3.933 2.394-4.916 3.287-8.54 6.006-11.452 8.191-8.367 6.277-10.107 7.584-25.785 9.04-16.683 1.569-32.862 5.192-48.307 10.706-14.898-19.272-28.47-45.866-29.982-68.842zm38.658 418.971c-20.466 1.926-25.503 5.17-35.905 12.975-2.863 2.148-6.107 4.582-10.584 7.576-12.27 8.216-29.198 8.337-43.112.313-13.911-8.057-22.268-22.799-21.292-37.56.353-5.365.837-9.39 1.264-12.943 1.552-12.91 1.841-18.894-6.723-37.577-25.305-55.22-21.021-119.235 11.787-175.685 32.419-56.612 85.66-92.339 146.058-98.019 20.48-1.902 25.52-5.147 35.927-12.955 2.861-2.147 6.102-4.578 10.572-7.567 12.288-8.23 29.213-8.35 43.122-.308 13.906 8.032 22.26 22.771 21.282 37.558-.351 5.359-.833 9.383-1.259 12.934-1.138 9.497-1.592 15.206 1.581 24.86-31.036 6.688-59.139 22.01-81.853 44.754-61.317 61.368-64.341 159.316-9.087 224.298-19.444 9.483-40.168 15.318-61.778 17.346z"/></g><g><path d="m453.514 240.684c-2.616 0-5.229-1.021-7.191-3.05-3.839-3.971-3.746-10.317.225-14.155 3.973-3.839 10.29-3.746 14.127.225l.028.029c3.839 3.971 3.732 10.303-.239 14.141-1.941 1.876-4.446 2.81-6.95 2.81z"/></g></g></svg>