<svg id="Capa_1" enable-background="new 0 0 512 512" height="512" viewBox="0 0 512 512" width="512" xmlns="http://www.w3.org/2000/svg"><g><g><path clip-rule="evenodd" d="m321.918 259.853h-144.167-48.5-43.114-48.5-3.912c-12.982 0-23.612 10.54-23.726 23.459v.227.255c.113 12.919 10.743 23.459 23.726 23.459h153.096 138.329 153.125c13.039 0 23.726-10.653 23.726-23.714 0-11.106-7.795-20.512-18.17-23.034-1.786-.425-3.657-.652-5.556-.652z" fill="#faf7f5" fill-rule="evenodd"/></g><g><path clip-rule="evenodd" d="m65.501 67.62c-29.735 0-53.857 46.351-53.857 103.554 0 37.597 10.431 70.519 25.993 88.68h48.5v-176.822-.51c0-8.188-5.698-14.903-12.642-14.903h-7.994z" fill="#ffbdbc" fill-rule="evenodd"/></g><g><path clip-rule="evenodd" d="m107.708 61.5c-11.849 0-21.571 9.69-21.571 21.532v176.821h43.114v-176.821c0-11.842-9.694-21.532-21.543-21.532z" fill="#faf7f5" fill-rule="evenodd"/></g><g><path clip-rule="evenodd" d="m149.887 67.62h-7.994c-6.945 0-12.642 6.715-12.642 14.903v.51 176.821h48.5c8.872-10.341 16.072-25.442 20.607-43.49 3.316-13.061 5.216-27.652 5.386-43.093 0-.68 0-1.388 0-2.097 0-26.321-5.102-50.375-13.521-68.649-9.864-21.419-24.292-34.905-40.336-34.905z" fill="#ffbdbc" fill-rule="evenodd"/></g><g><path clip-rule="evenodd" d="m309.333 119.241c-18.963-12.438-48.301-20.427-81.239-20.427-13.379 0-26.135 1.332-37.87 3.712 8.419 18.274 13.521 42.328 13.521 68.649v2.097h112.533.51c8.192 0 14.91-5.695 14.91-12.636v-7.99c0-12.638-8.362-24.226-22.365-33.405z" fill="#fff2a0" fill-rule="evenodd"/></g><g><path clip-rule="evenodd" d="m494.205 152.644c0-29.72-46.374-53.831-103.604-53.831-32.938 0-62.276 7.99-81.268 20.427 14.003 9.18 22.365 20.767 22.365 33.404v7.99c0 6.941-6.718 12.636-14.91 12.636h161.997.51c8.22 0 14.91-5.695 14.91-12.636z" fill="#ff7b79" fill-rule="evenodd"/></g><g><path clip-rule="evenodd" d="m478.785 173.27h-161.997-.51c11.849 0 21.543 9.718 21.543 21.561s-9.694 21.532-21.543 21.532h.51 161.997c11.849 0 21.543-9.69 21.543-21.532s-9.695-21.561-21.543-21.561z" fill="#faf7f5" fill-rule="evenodd"/></g><g><path clip-rule="evenodd" d="m478.785 216.363h-161.997c8.192 0 14.91 5.695 14.91 12.636v7.99c0 8.188-3.515 15.923-9.779 22.864h156.356c1.899 0 3.77.227 5.556.652 6.661-7.111 10.375-15.073 10.375-23.516v-7.99c0-6.941-6.69-12.636-14.91-12.636z" fill="#ff7b79" fill-rule="evenodd"/></g><g><path clip-rule="evenodd" d="m316.278 216.363h-117.919c-4.535 18.048-11.735 33.149-20.607 43.49h144.167c6.264-6.941 9.779-14.676 9.779-22.864v-7.99c0-6.941-6.718-12.636-14.91-12.636z" fill="#fff2a0" fill-rule="evenodd"/></g><g><path clip-rule="evenodd" d="m316.278 173.27h-112.534c-.17 15.441-2.069 30.032-5.386 43.093h117.919c11.849 0 21.543-9.69 21.543-21.532s-9.694-21.561-21.542-21.561z" fill="#faf7f5" fill-rule="evenodd"/></g><g><path clip-rule="evenodd" d="m325.15 307.253h-138.328l-19.984 88.708h178.324z" fill="#ebddd9" fill-rule="evenodd"/></g><g><path clip-rule="evenodd" d="m345.162 395.961h-178.324-10.006c-17.773 0-32.314 14.534-32.314 32.299v15.866c0 3.513 2.863 6.375 6.378 6.375h250.209c3.487 0 6.378-2.862 6.378-6.375v-15.866c0-17.736-14.541-32.299-32.314-32.299z" fill="#faf7f5" fill-rule="evenodd"/></g><g><path d="m498.842 256.87c3.529-6.341 5.363-13.064 5.363-19.881v-7.99c0-4.211-1.276-8.155-3.489-11.536 5.921-5.736 9.612-13.759 9.612-22.632 0-8.883-3.692-16.915-9.615-22.656 2.215-3.382 3.493-7.328 3.493-11.542v-7.989c0-18.292-12.689-34.96-35.729-46.935-20.967-10.896-48.624-16.896-77.875-16.896-30.949 0-60.121 6.778-81.259 18.732-1.101-.622-2.22-1.236-3.373-1.835-20.967-10.896-48.624-16.896-77.875-16.896-11.008 0-21.833.867-32.295 2.551-11.891-21.781-28.132-33.744-45.911-33.744h-7.994c-4.214 0-8.161 1.277-11.543 3.491-5.737-5.92-13.764-9.611-22.642-9.611-8.887 0-16.922 3.692-22.665 9.614-3.384-2.216-7.332-3.494-11.549-3.494h-7.993c-18.297 0-34.971 12.683-46.951 35.711-10.904 20.957-16.908 48.603-16.908 77.842 0 31.256 6.876 60.39 18.823 81.396-12.023 5.155-20.467 17.094-20.467 30.969 0 18.59 15.129 33.714 33.726 33.714h140.593l-15.478 68.708h-2.008c-23.332 0-42.314 18.976-42.314 42.299v15.865c0 9.029 7.347 16.375 16.378 16.375h250.209c9.031 0 16.378-7.346 16.378-16.375v-15.865c0-23.323-18.982-42.299-42.314-42.299h-2.011l-15.5-68.708h140.617c18.596 0 33.726-15.124 33.726-33.714-.002-10.845-5.165-20.504-13.16-26.669zm-8.514-62.039c0 6.358-5.178 11.532-11.543 11.532h-133.159c1.411-3.575 2.194-7.462 2.194-11.532 0-4.08-.786-7.978-2.201-11.561h133.166c6.364.001 11.543 5.187 11.543 11.561zm-279.599 11.532c1.314-7.431 2.207-15.166 2.663-23.093h102.886c6.365 0 11.543 5.187 11.543 11.561 0 6.358-5.178 11.532-11.543 11.532zm130.794 20h137.772c2.998 0 4.91 1.73 4.91 2.636v7.99c0 4.333-1.528 8.654-4.552 12.893-.459-.019-.919-.028-1.379-.028h-138.795c1.461-4.207 2.219-8.521 2.219-12.864v-7.99c0-.893-.064-1.771-.175-2.637zm49.078-117.55c26.101 0 50.481 5.2 68.652 14.644 15.857 8.241 24.952 18.879 24.952 29.188v7.989c0 .905-1.912 2.637-4.91 2.637h-137.772c.111-.866.174-1.744.174-2.637v-7.989c0-11.48-5-22.32-14.419-31.762 17.307-7.745 39.579-12.07 63.323-12.07zm-162.508 0c26.101 0 50.481 5.2 68.652 14.644 15.857 8.241 24.952 18.879 24.952 29.188v7.989c0 .905-1.912 2.637-4.91 2.637h-103.207c-.709-19.011-3.954-37.135-9.45-52.915 7.805-1.018 15.821-1.543 23.963-1.543zm-22.123 117.55h110.818c2.998 0 4.91 1.73 4.91 2.636v7.99c0 4.308-1.531 8.621-4.548 12.864h-120.728c3.75-7.061 6.954-14.959 9.548-23.49zm-66.719-143.841c0-2.993 1.735-4.902 2.642-4.902h7.994c10.327 0 20.976 9.09 29.217 24.939 9.44 18.154 14.64 42.522 14.64 68.614 0 31.545-7.898 61.118-20.814 78.68h-33.678v-167.331zm-43.114.51c0-6.359 5.191-11.532 11.571-11.532 6.365 0 11.543 5.173 11.543 11.532v166.821h-23.114zm-59.844 19.529c8.246-15.85 18.891-24.94 29.208-24.94h7.993c.907 0 2.643 1.909 2.643 4.902v167.331h-33.67c-12.92-17.59-20.823-47.163-20.823-78.68 0-26.086 5.203-50.453 14.649-68.613zm308.814 303.4c.015 0 .03.002.045.002.012 0 .024-.002.035-.002h9.98c12.304 0 22.314 10.003 22.314 22.299v12.24h-242.963v-12.24c0-12.296 10.01-22.299 22.314-22.299h9.98c.012 0 .024.002.035.002.015 0 .03-.002.045-.002h44.193c5.523 0 10-4.478 10-10s-4.477-10-10-10h-31.745l15.478-68.708h122.335l15.5 68.708h-31.769c-5.523 0-10 4.478-10 10s4.477 10 10 10zm133.167-108.708h-444.548c-7.568 0-13.726-6.152-13.726-13.714 0-7.546 6.157-13.686 13.726-13.686h444.549c.508 0 1.015.034 1.52.089.186.021.368.056.552.084.301.045.602.094.9.159 6.143 1.359 10.754 6.826 10.754 13.354-.001 7.562-6.158 13.714-13.727 13.714z"/><path d="m255.986 385.961c-5.523 0-10 4.478-10 10s4.477 10 10 10h.057c5.523 0 9.972-4.478 9.972-10s-4.506-10-10.029-10z"/></g></g></svg>