<svg id="Capa_1" enable-background="new 0 0 512.001 512.001" height="512" viewBox="0 0 512.001 512.001" width="512" xmlns="http://www.w3.org/2000/svg"><g><g><path clip-rule="evenodd" d="m74.936 369.087h362.129c13.633-14.995 22.305-29.111 27.549-46.402h-417.227c5.215 17.291 13.916 31.407 27.549 46.402z" fill="#ff7b79" fill-rule="evenodd"/></g><g><path clip-rule="evenodd" d="m40.528 260.522h430.944c10.742 0 19.528-8.787 19.528-19.502v-7.795c0-10.743-8.786-19.53-19.528-19.53h-9.92-47.615-47.587-82.22-47.587-47.615-8.673-82.22-47.587-9.92c-10.742 0-19.528 8.787-19.528 19.53v7.795c0 10.715 8.787 19.502 19.528 19.502z" fill="#faf7f5" fill-rule="evenodd"/></g><g><path clip-rule="evenodd" d="m47.387 322.685h417.227c5.017-16.554 6.859-36.084 6.859-62.163h-430.945c0 26.078 1.842 45.609 6.859 62.163z" fill="#ebddd9" fill-rule="evenodd"/></g><g><path clip-rule="evenodd" d="m170.761 454.011h170.479c4.081-24.207 48.805-40.846 72.386-62.021 9.098-8.164 16.835-15.647 23.439-22.904h-362.129c6.604 7.257 14.341 14.74 23.439 22.904 23.581 21.175 68.305 37.814 72.386 62.021z" fill="#ebddd9" fill-rule="evenodd"/></g><g><path clip-rule="evenodd" d="m160.756 502.001h190.46l-9.976-47.99h-170.479z" fill="#faf7f5" fill-rule="evenodd"/></g><g><path clip-rule="evenodd" d="m50.448 213.695h47.587c0-22.705 18.422-41.102 41.125-41.102s41.096 18.396 41.096 41.102h8.673c0-21.996 5.215-42.774 14.483-61.17-16.184-16.952-38.971-27.525-64.253-27.525-49.003 0-88.711 39.713-88.711 88.695z" fill="#fff2a0" fill-rule="evenodd"/></g><g><path clip-rule="evenodd" d="m98.035 213.695h82.221c0-22.705-18.394-41.102-41.096-41.102s-41.125 18.396-41.125 41.102z" fill="#ffea60" fill-rule="evenodd"/></g><g><path clip-rule="evenodd" d="m188.928 213.695h47.615c0-48.982 39.708-88.694 88.711-88.694 48.975 0 88.683 39.713 88.683 88.694h47.615c0-75.287-61.021-136.315-136.298-136.315-53.284 0-99.453 30.585-121.843 75.145-9.268 18.396-14.483 39.173-14.483 61.17z" fill="#ffea60" fill-rule="evenodd"/></g><g><path clip-rule="evenodd" d="m236.543 213.695h47.587c0-22.705 18.422-41.102 41.125-41.102 22.702 0 41.096 18.396 41.096 41.102h47.587c0-48.982-39.708-88.694-88.683-88.694-49.004-.001-88.712 39.712-88.712 88.694z" fill="#fff2a0" fill-rule="evenodd"/></g><g><path clip-rule="evenodd" d="m284.13 213.695h82.221c0-22.705-18.394-41.102-41.096-41.102s-41.125 18.396-41.125 41.102z" fill="#ffea60" fill-rule="evenodd"/></g><g><path d="m188.907 92.51c-2.959 0-5.89-1.308-7.863-3.813l-.023-.025c-6.994-8.416-8.342-17.813-8.217-24.302-.182-9.298 2.686-17.724 8.301-24.381 2.948-3.554 3.909-7.56 3.919-12.104.01-4.299-1.096-8.237-3.885-11.577-3.483-4.286-2.833-10.584 1.454-14.067 4.273-3.475 10.551-2.836 14.04 1.42l.06.071c5.616 6.656 8.494 15.082 8.331 24.382.112 6.484-1.249 15.887-8.247 24.305l-.384.464c-3.109 3.687-3.668 8.142-3.59 11.231.004.169.004.339 0 .508-.113 4.465 1.098 8.256 3.6 11.267.149.18.268.325.353.433 3.417 4.339 2.67 10.626-1.668 14.043-1.834 1.444-4.016 2.145-6.181 2.145zm-.007-46.255h.01z"/></g><g><path d="m133.298 92.51c-2.897 0-5.77-1.252-7.747-3.669l-.042-.049c-5.624-6.648-8.505-15.088-8.341-24.423-.162-9.299 2.83-17.996 8.435-24.509.055-.067.117-.142.185-.224 2.502-3.011 3.713-6.802 3.601-11.268-.004-.169-.004-.338 0-.507.078-3.089-.481-7.544-3.59-11.231l-.269-.324c-3.482-4.287-2.829-10.585 1.458-14.066 4.274-3.473 10.551-2.833 14.04 1.425l.059.07c5.615 6.657 8.483 15.083 8.301 24.381.125 6.489-1.224 15.886-8.217 24.302l-.078.095c-.069.087-.084.105-.156.19l-.173.203c-2.42 2.812-3.697 6.802-3.595 11.234.003.152.003.305 0 .458-.071 3.113.498 7.597 3.611 11.278l.253.303c3.497 4.275 2.865 10.576-1.41 14.072-1.857 1.519-4.098 2.259-6.325 2.259zm-.006-46.255h.01z"/></g><g><path d="m77.663 92.51c-2.959 0-5.89-1.308-7.863-3.813l-.023-.025c-6.993-8.416-8.342-17.813-8.217-24.302-.182-9.298 2.686-17.724 8.301-24.381 2.966-3.574 3.868-7.57 3.892-12.129.023-4.29-1.079-8.221-3.859-11.555-3.482-4.287-2.829-10.585 1.458-14.066 4.274-3.473 10.552-2.833 14.04 1.425l.059.07c5.615 6.657 8.483 15.083 8.301 24.381.125 6.489-1.224 15.886-8.217 24.302l-.386.466c-3.109 3.687-3.668 8.143-3.59 11.231.004.169.004.338 0 .507-.113 4.465 1.098 8.256 3.601 11.268.149.18.268.325.353.433 3.417 4.339 2.67 10.626-1.668 14.043-1.834 1.444-4.016 2.145-6.182 2.145zm-.006-46.255h.01z"/></g><g><path d="m471.472 203.695h-.267c-5.157-76.032-68.642-136.315-145.95-136.315-52.439 0-98.516 27.731-124.355 69.293-17.428-14.055-38.918-21.673-61.74-21.673-51.054 0-93.179 38.953-98.208 88.694h-.424c-16.282 0-29.528 13.247-29.528 29.53v7.795c0 12.787 8.186 23.695 19.595 27.78.374 22.887 2.408 40.972 7.234 56.831.005.016.01.032.015.049 5.498 18.041 14.618 33.211 29.031 49.308.404.551.862 1.057 1.367 1.514 6.672 7.311 14.434 14.836 23.451 22.93 8.876 7.971 20.229 15.149 31.208 22.091 16.146 10.209 34.337 21.718 37.621 32.601l-9.556 45.837c-.614 2.947.131 6.014 2.03 8.35 1.899 2.335 4.749 3.691 7.759 3.691h190.46c3.009 0 5.858-1.355 7.758-3.689 1.898-2.334 2.646-5.4 2.033-8.346l-9.53-45.842c3.283-10.884 21.475-22.393 37.622-32.603 10.979-6.941 22.332-14.12 31.207-22.089 9.018-8.094 16.781-15.62 23.453-22.932.505-.456.962-.962 1.366-1.512 14.411-16.095 23.53-31.264 29.029-49.302.007-.021.013-.043.02-.065 4.824-15.857 6.857-33.939 7.231-56.822 11.41-4.085 19.595-14.993 19.595-27.78v-7.795c.001-16.282-13.245-29.529-29.527-29.529zm-146.218-116.316c66.275 0 120.791 51.324 125.907 116.315h-27.727c-5.027-49.741-47.14-88.694-98.18-88.694-51.054 0-93.178 38.953-98.207 88.694h-27.726c5.116-64.991 59.644-116.315 125.933-116.315zm50.108 116.316c-4.662-23.406-25.355-41.102-50.108-41.102-24.766 0-45.47 17.696-50.135 41.102h-27.919c4.933-38.685 38.043-68.695 78.054-68.695 39.998 0 73.096 30.01 78.026 68.694h-27.918zm-20.67 0h-58.902c4.178-12.257 15.803-21.102 29.464-21.102 13.649 0 25.264 8.845 29.438 21.102zm-215.532-68.695c19.507 0 37.782 6.994 52.165 19.792-4.284 9.7-7.543 19.949-9.64 30.611-9.169-13.739-24.805-22.81-42.525-22.81-24.767 0-45.471 17.696-50.136 41.102h-27.918c4.932-38.685 38.042-68.695 78.054-68.695zm29.437 68.695h-58.903c4.178-12.257 15.803-21.102 29.465-21.102 13.65 0 25.264 8.845 29.438 21.102zm-137.597 29.53c0-5.255 4.274-9.53 9.528-9.53h148.4 272.625 9.919c5.254 0 9.528 4.275 9.528 9.53v7.795c0 5.239-4.274 9.502-9.528 9.502h-250.602c-5.523 0-10 4.477-10 10s4.477 10 10 10h240.505c-.337 16.641-1.604 30.23-4.421 42.163h-401.907c-2.817-11.932-4.084-25.521-4.421-42.163h80.428c5.523 0 10-4.477 10-10s-4.477-10-10-10h-90.526c-5.254 0-9.528-4.263-9.528-9.502zm401.508 125.862h-353.015c-7.582-8.806-13.303-17.299-17.568-26.402h388.15c-4.264 9.102-9.985 17.595-17.567 26.402zm-259.452 132.914 5.835-27.99h154.213l5.818 27.99zm205.356-87.384c-18.362 11.61-37.25 23.563-44.443 39.394h-155.937c-7.193-15.831-26.079-27.784-44.441-39.394-10.28-6.5-20.909-13.221-28.536-20.069-2.07-1.858-4.063-3.676-5.986-5.462h313.864c-1.923 1.786-3.917 3.605-5.987 5.463-7.625 6.848-18.255 13.568-28.534 20.068z"/><path d="m175.948 270.522h.057c5.523 0 9.972-4.477 9.972-10s-4.505-10-10.028-10-10 4.477-10 10 4.476 10 9.999 10z"/></g></g></svg>