<svg id="Capa_1" enable-background="new 0 0 511.965 511.965" height="512" viewBox="0 0 511.965 511.965" width="512" xmlns="http://www.w3.org/2000/svg"><g><g><path clip-rule="evenodd" d="m359.989 66.352c32.402 5.527 61.598 20.409 84.722 41.782 24.458-16.271 50.646-46.431 55.271-73.926-28.089-18.283-80.012-16.327-107.421-4.309-18.13 7.937-28.345 22.394-32.572 36.453z" fill="#a0e5a5" fill-rule="evenodd"/></g><g><path clip-rule="evenodd" d="m178.089 170.013c91.759 0 166.153 74.323 166.153 165.993 0 21.146-3.944 41.357-11.179 59.98 91.22-.652 164.99-74.72 164.99-165.993 0-48.16-20.542-91.557-53.341-121.859-23.124-21.373-52.32-36.254-84.722-41.782-9.136-1.559-18.528-2.353-28.089-2.353-2.355 0-4.682.028-7.008.142-67.556 2.806-124.7 45.892-147.966 105.872z" fill="#ffa96b" fill-rule="evenodd"/></g><g><path clip-rule="evenodd" d="m178.089 218.626c32.459 0 61.825 13.124 83.077 34.384 21.28 21.231 34.417 50.569 34.417 82.997 0 32.399-13.137 61.737-34.417 82.997-21.251 21.231-50.618 34.355-83.077 34.355-32.43 0-61.797-13.124-83.077-34.355-21.251-21.259-34.388-50.597-34.388-82.997 0-32.428 13.137-61.766 34.388-82.997 21.28-21.26 50.646-34.384 83.077-34.384zm-166.125 117.381c0 91.67 74.366 165.993 166.125 165.993 70.592 0 130.914-43.993 154.974-106.014 7.235-18.623 11.179-38.834 11.179-59.98 0-91.671-74.394-165.993-166.153-165.993h-1.163c-91.22.624-164.962 74.691-164.962 165.994z" fill="#fff2a0" fill-rule="evenodd"/></g><g><path clip-rule="evenodd" d="m178.089 304.287c8.767 0 16.712 3.543 22.443 9.297l60.633-60.575c-21.251-21.259-50.618-34.384-83.077-34.384v85.662z" fill="#ffa96b" fill-rule="evenodd"/></g><g><path clip-rule="evenodd" d="m95.012 253.01 60.633 60.575c5.76-5.754 13.676-9.297 22.443-9.297v-85.661c-32.43-.001-61.796 13.123-83.076 34.383z" fill="#ffd4b5" fill-rule="evenodd"/></g><g><path clip-rule="evenodd" d="m60.624 336.007h85.744c0-8.759 3.547-16.696 9.278-22.422l-60.634-60.575c-21.252 21.231-34.388 50.569-34.388 82.997z" fill="#ffa96b" fill-rule="evenodd"/></g><g><path clip-rule="evenodd" d="m60.624 336.007c0 32.399 13.137 61.737 34.388 82.997l60.633-60.575c-5.731-5.754-9.278-13.663-9.278-22.422z" fill="#ffd4b5" fill-rule="evenodd"/></g><g><path clip-rule="evenodd" d="m95.012 419.003c21.28 21.231 50.646 34.355 83.077 34.355v-85.661c-8.767 0-16.683-3.543-22.443-9.269z" fill="#ffa96b" fill-rule="evenodd"/></g><g><path clip-rule="evenodd" d="m178.089 453.358c32.459 0 61.825-13.124 83.077-34.355l-60.633-60.575c-5.731 5.726-13.676 9.269-22.443 9.269v85.661z" fill="#ffd4b5" fill-rule="evenodd"/></g><g><path clip-rule="evenodd" d="m200.532 358.428 60.633 60.575c21.28-21.259 34.417-50.597 34.417-82.997h-85.744c0 8.759-3.547 16.668-9.306 22.422z" fill="#ffa96b" fill-rule="evenodd"/></g><g><path clip-rule="evenodd" d="m209.838 336.007h85.744c0-32.428-13.137-61.766-34.417-82.997l-60.633 60.575c5.759 5.726 9.306 13.663 9.306 22.422z" fill="#ffd4b5" fill-rule="evenodd"/></g><g><path clip-rule="evenodd" d="m155.645 358.428c5.76 5.726 13.676 9.269 22.443 9.269s16.712-3.543 22.443-9.269c5.76-5.754 9.306-13.663 9.306-22.422s-3.547-16.696-9.306-22.422c-5.731-5.754-13.676-9.297-22.443-9.297s-16.683 3.543-22.443 9.297c-5.731 5.726-9.278 13.663-9.278 22.422s3.547 16.668 9.278 22.422z" fill="#ffa96b" fill-rule="evenodd"/></g><g><path d="m425.19 136.457h-.028c-5.523 0-9.986 4.478-9.986 10s4.491 10 10.015 10c5.523 0 10-4.478 10-10s-4.478-10-10.001-10z"/><path d="m438.13 222.963c0 5.522 4.491 10 10.015 10 5.523 0 10-4.478 10-10s-4.477-10-10-10h-.028c-5.524 0-9.987 4.478-9.987 10z"/><path d="m405.357 180.649h-.028c-5.523 0-9.986 4.478-9.986 10s4.491 10 10.015 10 10-4.478 10-10-4.477-10-10.001-10z"/><path d="m509.844 35.866c.66-3.925-1.07-7.868-4.406-10.039-30.48-19.839-86.066-18.604-116.888-5.088-19.991 8.752-30.077 23.32-35.099 34.58-7.065-.865-14.256-1.319-21.552-1.319-.009 0-.018 0-.027 0-.56-1.385-1.156-2.766-1.791-4.142-7.433-16.111-19.541-31.169-38.106-47.388-4.16-3.635-10.477-3.209-14.111.951-3.634 4.159-3.208 10.476.951 14.109 14.734 12.872 25.229 25.307 31.671 37.76-28.461 3.437-55.525 13.719-79.252 30.254-27.111 18.892-48.139 44.633-61.127 74.735-42.403 1.908-84.243 18.995-116.552 51.272-27.729 27.704-45.057 62.833-50.11 101.592-4.893 37.527 2.585 76.261 21.057 109.066 2.71 4.813 8.809 6.518 13.621 3.808 4.813-2.71 6.517-8.808 3.808-13.62-34.152-60.652-23.559-137.424 25.761-186.696 60.881-60.822 159.941-60.822 220.822 0 29.497 29.469 45.739 68.647 45.735 110.319-.002 19.343-3.51 38.146-10.215 55.689-.217.458-.409.931-.556 1.424-7.748 19.685-19.541 37.749-34.966 53.154-49.276 49.254-126.099 59.86-186.819 25.79-4.816-2.7-10.912-.988-13.615 3.827-2.703 4.816-.989 10.912 3.827 13.614 26.254 14.731 56.29 22.447 86.461 22.447 7.564 0 15.137-.485 22.66-1.466 38.773-5.057 73.915-22.369 101.622-50.064 16-15.977 28.532-34.495 37.244-54.636 44.249-1.977 85.564-20.204 116.963-51.774 33.015-33.195 51.197-77.244 51.197-124.032 0-46.662-18.277-89.134-48.045-120.664 22.329-17.755 45.191-45.845 49.837-73.463zm-21.792 194.126c0 80.588-61.939 147.429-140.761 155.227 4.576-15.784 6.956-32.306 6.958-49.197.005-47.018-18.32-91.224-51.599-124.471-30.809-30.779-70.286-47.74-110.653-50.903 23.954-48 71.803-80.801 125.248-85.926 2.245 12.44.621 25.126-4.753 38.498-2.06 5.124.425 10.948 5.55 13.007 1.223.492 2.484.725 3.726.725 3.963 0 7.714-2.372 9.283-6.274 6.355-15.814 8.445-31.398 6.28-46.574 83.596 2.87 150.721 71.69 150.721 155.888zm-42.748-134.555c-20.37-17.164-44.673-29.802-71.35-36.356 4.056-7.05 10.955-14.916 22.623-20.024 23.583-10.342 66.565-11.908 91.95.191-6.252 20.557-24.854 42.259-43.223 56.189z"/><path d="m69.568 448.887c-2.47-4.94-8.461-6.915-13.403-4.444-4.94 2.47-6.928 8.505-4.458 13.444 1.753 3.505 5.284 5.53 8.953 5.53 1.503 0 3.029-.34 4.465-1.058 4.94-2.47 6.942-8.477 4.472-13.416z"/><path d="m178.088 463.358c70.3 0 127.494-57.13 127.494-127.352 0-70.237-57.194-127.38-127.494-127.38-70.285 0-127.465 57.143-127.465 127.38 0 70.223 57.181 127.352 127.465 127.352zm-10-20.468c-22.132-2.05-42.34-10.828-58.545-24.268l46.982-46.937c3.544 2.147 7.434 3.775 11.563 4.794zm20.001 0v-66.41c4.13-1.018 8.022-2.645 11.568-4.79l46.985 46.94c-16.208 13.436-36.418 22.211-58.553 24.26zm72.707-38.391-46.983-46.938c2.151-3.542 3.782-7.429 4.803-11.555h66.495c-2.055 22.114-10.85 42.304-24.315 58.493zm24.315-78.493h-66.494c-1.02-4.127-2.65-8.016-4.799-11.559l46.986-46.941c13.461 16.192 22.253 36.384 24.307 58.5zm-97.022-96.911c22.14 2.05 42.355 10.831 58.565 24.276l-46.982 46.936c-3.55-2.151-7.448-3.782-11.584-4.802v-66.41zm11.749 106.911c0 11.961-9.757 21.691-21.749 21.691-11.977 0-21.721-9.73-21.721-21.691 0-11.976 9.744-21.719 21.721-21.719 11.992 0 21.749 9.743 21.749 21.719zm-31.75-106.911v66.412c-4.134 1.021-8.03 2.653-11.578 4.806l-46.979-46.933c16.207-13.45 36.419-22.234 58.557-24.285zm-72.704 38.423 46.99 46.944c-2.143 3.539-3.769 7.423-4.787 11.544h-66.493c2.054-22.11 10.839-42.298 24.29-58.488zm42.205 78.488c1.019 4.12 2.646 8.002 4.791 11.539l-46.987 46.942c-13.456-16.187-22.244-36.373-24.298-58.481z"/></g></g></svg>