<svg id="Capa_1" enable-background="new 0 0 512 512" height="512" viewBox="0 0 512 512" width="512" xmlns="http://www.w3.org/2000/svg"><g><g><path clip-rule="evenodd" d="m109.866 421.008c40.856 16.663 91.399 26.492 146.148 26.492 13.95 0 27.673-.629 40.998-1.888-.881-40.787-65.687-40.278-64.92-66.291v-56.521-25.503c0-16.633 12.87-30.208 28.639-30.208 15.74 0 28.639 13.576 28.639 30.208v15.524c0 3.147.455 6.174 1.307 9.021 3.665 12.257 14.547 21.188 27.332 21.188 15.768 0 28.639-13.606 28.639-30.208v-2.338-56.521c41.197-12.857 72.506-34.224 86.001-59.758 4.773-9.021 7.33-18.551 7.33-28.41 0-31.887-26.792-60.357-68.642-78.908-18.269-8.122-39.407-14.325-62.448-18.131-16.734-2.757-34.491-4.256-52.874-4.256-101.628 0-183.992 45.343-183.992 101.294 0 9.83 2.529 19.3 7.245 28.29 14.518 27.511 49.606 50.168 95.519 62.635v56.551 56.521c-.001 37.071-64.069 10.429-64.921 51.217zm114.413-253.386-16.479 33.715c-2.074 4.286-7.103 5.964-11.166 3.776l-28.269-15.374c-4.063-2.218-5.682-7.522-3.58-11.778l16.45-33.745c2.102-4.256 7.131-5.964 11.194-3.776l28.269 15.374c4.064 2.218 5.655 7.523 3.581 11.808zm66.965 2.068-16.479-33.715c-2.074-4.286-.455-9.59 3.58-11.808l28.298-15.344c4.063-2.218 9.092-.509 11.166 3.746l16.479 33.745c2.074 4.256.483 9.56-3.58 11.778l-28.298 15.374c-4.034 2.188-9.063.51-11.166-3.776z" fill="#ffa96b" fill-rule="evenodd"/></g><g><path clip-rule="evenodd" d="m10 312.041c0 44.683 39.265 84.302 99.866 108.966.852-40.787 64.92-14.145 64.92-51.216-60.8-16.543-102.622-51.037-102.622-90.925 0-9.74 2.5-19.18 7.188-28.141-4.773-8.991-7.33-18.521-7.33-28.38 0-.09 0-.15 0-.21-38.583 23.915-62.022 55.413-62.022 89.906z" fill="#faf7f5" fill-rule="evenodd"/></g><g><path clip-rule="evenodd" d="m72.164 278.866c0 39.888 41.822 74.382 102.622 90.925v-56.521c-45.828-12.437-80.916-35.063-95.434-62.545-4.688 8.961-7.188 18.401-7.188 28.141z" fill="#ffd4b5" fill-rule="evenodd"/></g><g><path clip-rule="evenodd" d="m79.352 250.726c14.518 27.481 49.606 50.108 95.434 62.545v-56.551c-45.913-12.467-81.001-35.123-95.519-62.635-4.688 8.901-7.216 18.311-7.245 28.051v.21c0 9.859 2.557 19.389 7.33 28.38z" fill="#ffd4b5" fill-rule="evenodd"/></g><g><path clip-rule="evenodd" d="m232.092 322.8c7.785.569 15.768.839 23.837.839 11.876 0 23.496-.629 34.747-1.798-.852-2.847-1.307-5.874-1.307-9.021v-15.524c0-16.633-12.899-30.208-28.639-30.208-15.768 0-28.639 13.576-28.639 30.208v25.504z" fill="#ffd4b5" fill-rule="evenodd"/></g><g><path clip-rule="evenodd" d="m256.071 380.19c101.571 0 183.907-45.373 183.907-101.324 0-9.83-2.557-19.36-7.302-28.38-13.439 25.623-44.748 47.081-86.03 59.997v2.338c0 16.603-12.87 30.208-28.639 30.208-12.785 0-23.667-8.931-27.332-21.188-11.251 1.169-22.871 1.798-34.747 1.798-8.069 0-16.052-.27-23.837-.839v56.521c7.842.57 15.854.869 23.98.869z" fill="#ffd4b5" fill-rule="evenodd"/></g><g><path clip-rule="evenodd" d="m346.647 310.483c41.282-12.917 72.591-34.374 86.03-59.997 4.659-8.931 7.188-18.371 7.188-28.141 0-.09 0-.21 0-.3-.057-9.65-2.557-19-7.216-27.841-13.495 25.533-44.805 46.901-86.001 59.758v56.521z" fill="#ffd4b5" fill-rule="evenodd"/></g><g><path clip-rule="evenodd" d="m297.012 445.612c116.344-10.729 204.988-66.441 204.988-133.571 0-34.554-23.496-66.081-62.136-89.996v.3c0 9.77-2.529 19.21-7.188 28.141 4.745 9.021 7.302 18.551 7.302 28.38 0 55.952-82.336 101.324-183.907 101.324-8.126 0-16.138-.3-23.979-.869-.767 26.013 64.039 25.504 64.92 66.291z" fill="#faf7f5" fill-rule="evenodd"/></g><g><path clip-rule="evenodd" d="m168.365 189.739 28.269 15.374c4.063 2.188 9.092.509 11.166-3.776l16.479-33.715c2.074-4.286.483-9.59-3.58-11.808l-28.269-15.374c-4.063-2.188-9.092-.48-11.194 3.776l-16.45 33.745c-2.103 4.256-.484 9.561 3.579 11.778z" fill="#ffea60" fill-rule="evenodd"/></g><g><path clip-rule="evenodd" d="m274.766 135.975 16.479 33.715c2.102 4.286 7.131 5.964 11.166 3.776l28.298-15.374c4.063-2.218 5.654-7.522 3.58-11.778l-16.479-33.745c-2.074-4.256-7.103-5.964-11.166-3.746l-28.298 15.344c-4.035 2.218-5.654 7.523-3.58 11.808z" fill="#ffea60" fill-rule="evenodd"/></g><path d="m449.574 216.375c-.679-7.507-2.615-14.929-5.821-22.17 4.111-9.184 6.225-18.724 6.225-28.41 0-34.945-27.187-67.038-74.58-88.045-19.339-8.598-41.168-14.943-64.885-18.861-17.676-2.912-36.012-4.388-54.499-4.388-26.291 0-51.785 2.916-75.774 8.667-5.371 1.288-8.681 6.685-7.394 12.056 1.288 5.371 6.688 8.678 12.056 7.394 22.465-5.385 46.391-8.116 71.112-8.116 17.401 0 34.644 1.387 51.244 4.122 22.037 3.64 42.229 9.495 60.026 17.407 39.843 17.661 62.694 43.09 62.694 69.766 0 31.866-33.073 61.993-86.313 78.622-4.175 1.304-7.019 5.171-7.019 9.545v58.859c0 11.143-8.361 20.208-18.639 20.208s-18.639-9.065-18.639-20.208v-15.524c0-22.171-17.333-40.208-38.639-40.208s-38.639 18.038-38.639 40.208v82.024c0 .033.005.064.005.097-.001.049.001.097 0 .146.001.024-.001.049 0 .073-.121 17.619 17.075 26.156 32.278 33.692 15.115 7.493 26.204 13.677 30.583 23.225-9.53.624-19.19.945-28.944.945-48.966 0-95.595-7.987-134.96-22.82 2.521-5.891 9.445-8.189 24.563-11.06 8.51-1.616 17.309-3.287 24.577-7.509 9.546-5.544 14.591-14.646 14.591-26.32v-113.073c0-4.515-3.025-8.47-7.382-9.651-57.942-15.714-95.382-47.616-95.382-81.273 0-20.762 13.864-37.028 25.495-47.017 4.189-3.598 4.669-9.912 1.07-14.102-3.599-4.189-9.912-4.669-14.102-1.07-21.238 18.241-32.464 39.745-32.464 62.189 0 9.747 2.111 19.239 6.144 28.311-3.242 7.284-5.192 14.773-5.863 22.37-40.219 26.297-62.299 60.079-62.299 95.566 0 39.989 27.429 77.115 77.235 104.54 47.921 26.387 111.413 40.919 178.779 40.919 67.365 0 130.852-14.532 178.766-40.919 49.796-27.424 77.22-64.55 77.22-104.54 0-35.54-22.124-69.358-62.426-95.667zm-284.788 139.956c-50.607-16.727-82.622-46.351-82.622-77.465 0-2.018.134-4.033.395-6.042 17.643 20.231 45.961 37.054 82.227 47.98zm-82.343-140.185c17.636 20.292 45.996 37.167 82.343 48.113v35.561c-50.693-16.71-82.764-46.339-82.764-77.476 0-2.069.145-4.136.421-6.198zm-62.443 95.896c0-25.906 15.59-51.287 44.254-72.572 1.002 3.834 2.32 7.613 3.975 11.318-4.023 9.096-6.066 18.518-6.066 28.079 0 41.524 38.273 78.473 100.586 97.834-2.718 3.144-8.678 4.957-20.863 7.271-13.408 2.546-32.389 6.151-39.342 22.977-5.395-2.49-10.628-5.115-15.662-7.887-43.13-23.749-66.882-54.653-66.882-87.02zm336.646-50.838c26.182-9.016 48.327-21.501 64.36-36.332 3.047-2.819 5.86-5.713 8.441-8.672.273 2.047.417 4.096.417 6.145 0 7.918-2.046 15.729-5.932 23.252-.071.127-.139.254-.204.384-10.528 20.031-34.144 37.99-67.082 50.467zm-114.554 36.093c0-11.143 8.361-20.208 18.639-20.208s18.639 9.065 18.639 20.208v15.481c-7.798.56-15.645.862-23.44.862-4.698 0-9.316-.107-13.837-.295v-16.048zm0 36.066c4.533.178 9.152.276 13.837.276 9.442 0 18.959-.397 28.385-1.171 6.627 12.258 19.242 20.561 33.693 20.561 19.679 0 35.958-15.393 38.33-35.214 26.269-9.024 48.501-21.54 64.584-36.433 3.115-2.885 5.983-5.848 8.61-8.879.29 2.115.446 4.237.446 6.363 0 23.252-17.292 45.585-48.69 62.885-33.284 18.339-77.753 28.439-125.217 28.439-4.641 0-9.315-.115-13.979-.318v-36.509zm183.04 65.699c-33.175 18.27-74.532 30.48-119.63 35.643-5.712-21.171-26.491-31.486-42.244-39.295-3.497-1.733-7.031-3.487-10.186-5.247 1 .009 2.002.027 2.999.027 50.781 0 98.679-10.981 134.869-30.922 38.072-20.977 59.039-49.531 59.039-80.402 0-9.673-2.094-19.203-6.219-28.398 1.616-3.647 2.902-7.351 3.882-11.096 28.732 21.3 44.359 46.716 44.359 72.669-.001 32.369-23.749 63.273-66.869 87.021z"/><g><path d="m298.667 184.434c-1.833 0-3.678-.286-5.482-.861-4.724-1.507-8.703-4.962-10.919-9.478l-16.485-33.728c-4.371-9.034-.888-20.216 7.748-24.962l28.34-15.367c4.337-2.361 9.315-2.836 14.019-1.335 4.73 1.509 8.708 4.967 10.91 9.487l16.476 33.738c4.396 9.019.906 20.205-7.775 24.943l-28.314 15.384c-2.67 1.446-5.58 2.179-8.518 2.179zm-14.52-52.037 15.298 31.299 25.45-13.827-15.277-31.284zm24.676-15.439s.001 0 0 0zm-2.18-8.134h.01z"/></g><g><path d="m200.393 216.082c-2.93 0-5.833-.728-8.5-2.163l-28.306-15.395c-8.742-4.771-12.22-15.979-7.768-24.992l16.427-33.697c2.245-4.544 6.225-7.987 10.942-9.492 4.689-1.496 9.655-1.037 13.982 1.293.012.007.024.013.036.02l28.269 15.374c8.676 4.736 12.171 15.925 7.804 24.949l-16.496 33.75c-2.168 4.48-6.123 7.944-10.833 9.468-1.825.591-3.697.885-5.557.885zm-1.59-19.109c-.001.002-.002.005-.003.007zm-24.626-15.456 25.423 13.826 15.298-31.3-25.455-13.843zm-.398.815-.005.011c.002-.004.004-.007.005-.011z"/></g><g><path d="m139.128 97.576c-2.475 0-4.954-.913-6.889-2.753-4.002-3.806-4.162-10.135-.356-14.138s10.15-4.176 14.152-.371 4.176 10.12.371 14.123l-.028.03c-1.966 2.067-4.606 3.109-7.25 3.109z"/></g></g></svg>