<svg id="Capa_1" enable-background="new 0 0 512 512" height="512" viewBox="0 0 512 512" width="512" xmlns="http://www.w3.org/2000/svg"><g><g><path clip-rule="evenodd" d="m185.433 277.6c10.346-4.794 22.393-7.545 35.262-7.545 12.897 0 24.944 2.751 35.291 7.545 10.346-4.794 22.422-7.545 35.291-7.545s24.944 2.751 35.291 7.545c10.346-4.794 22.393-7.545 35.291-7.545 12.869 0 24.944 2.751 35.291 7.545 10.346-4.794 22.393-7.545 35.262-7.545 9.127 0 17.83 1.39 25.823 3.886-15.42-78.345-85.293-139.671-173.023-150.932-9.553-1.248-19.304-1.872-29.225-1.872s-19.672.624-29.225 1.872c-87.703 11.261-157.576 72.587-172.996 150.932 7.965-2.496 16.667-3.886 25.795-3.886 12.869 0 24.944 2.751 35.291 7.545 10.346-4.794 22.393-7.545 35.291-7.545 12.868 0 24.944 2.751 35.29 7.545z" fill="#ffa96b" fill-rule="evenodd"/></g><g><path clip-rule="evenodd" d="m185.433 371.489c10.346 4.794 22.393 7.545 35.262 7.545 12.897 0 24.944-2.751 35.291-7.545 10.346 4.794 22.422 7.545 35.291 7.545s24.944-2.751 35.291-7.545c7.71 3.574 16.384 6.013 25.625 7.006 3.146.34 6.378.539 9.666.539 12.869 0 24.944-2.751 35.291-7.545 10.346 4.794 22.393 7.545 35.262 7.545 5.811 0 11.423-.567 16.809-1.617 30.302-5.872 52.78-27.316 52.78-52.873 0-22.948-18.113-42.576-43.766-50.604-7.994-2.496-16.696-3.886-25.823-3.886-12.869 0-24.916 2.751-35.262 7.545-10.346-4.794-22.422-7.545-35.291-7.545-12.897 0-24.944 2.751-35.291 7.545-10.346-4.794-22.422-7.545-35.291-7.545s-24.944 2.751-35.291 7.545c-10.346-4.794-22.393-7.545-35.291-7.545-12.869 0-24.916 2.751-35.262 7.545-10.346-4.794-22.422-7.545-35.291-7.545-12.897 0-24.944 2.751-35.291 7.545-10.346-4.794-22.422-7.545-35.291-7.545-9.127 0-17.83 1.39-25.795 3.886-21.033 6.581-36.991 20.962-42.065 38.549v24.082c5.783 20.054 25.653 35.911 51.051 40.846 5.386 1.05 11.027 1.617 16.809 1.617 12.869 0 24.944-2.751 35.291-7.545 10.346 4.794 22.393 7.545 35.291 7.545 3.26 0 6.491-.199 9.666-.539 9.241-.992 17.886-3.432 25.625-7.006z" fill="#ffd4b5" fill-rule="evenodd"/></g><g><path clip-rule="evenodd" d="m98.298 439.878c13.634 23.94 22.563 50.122 50.087 50.122h43.398l-31.974-111.504c-3.175.34-6.406.539-9.666.539-12.897 0-24.944-2.751-35.291-7.545-10.346 4.794-22.422 7.545-35.291 7.545-5.783 0-11.423-.567-16.809-1.617z" fill="#d0f2d2" fill-rule="evenodd"/></g><g><path clip-rule="evenodd" d="m191.782 490h64.203v-118.51c-10.346 4.794-22.393 7.545-35.291 7.545-12.869 0-24.916-2.751-35.262-7.545-7.738 3.574-16.384 6.013-25.625 7.006z" fill="#a0e5a5" fill-rule="evenodd"/></g><g><path clip-rule="evenodd" d="m255.986 490h64.204l32.003-111.504c-9.241-.993-17.915-3.432-25.625-7.006-10.346 4.794-22.422 7.545-35.291 7.545s-24.944-2.751-35.291-7.545z" fill="#d0f2d2" fill-rule="evenodd"/></g><g><path clip-rule="evenodd" d="m320.189 490h43.398c27.552 0 36.481-26.181 50.116-50.122l35.517-62.461c-5.386 1.05-10.998 1.617-16.809 1.617-12.869 0-24.916-2.751-35.262-7.545-10.346 4.794-22.422 7.545-35.291 7.545-3.288 0-6.52-.199-9.666-.539z" fill="#a0e5a5" fill-rule="evenodd"/></g><g><path clip-rule="evenodd" d="m226.761 123.009c9.553-1.248 19.304-1.872 29.225-1.872s19.672.624 29.225 1.872c6.293-7.006 10.148-16.253 10.148-26.38 0-21.756-17.631-39.399-39.372-39.399s-39.344 17.643-39.344 39.399c-.001 10.126 3.825 19.373 10.118 26.38z" fill="#ff7b79" fill-rule="evenodd"/></g><path d="m150.195 381.252c-1.522-5.309 6.496-.695 11.805-2.217 5.309-1.52 5.898-8.605 7.421-3.295"/><g><path d="m140.993 100.503c1.529 0 3.055-.355 4.426-1.034 4.957-2.457 7-8.695 4.431-13.598-.634-1.21-1.64-2.156-2.251-3.375-.689-1.375-.925-2.894-.926-4.419 0-1.477.031-2.921.523-4.332.492-1.41 1.412-2.435 2.306-3.595 7.575-9.835 7.885-24.977.913-35.213-1.578-2.316-3.421-4.388-6.135-5.332-2.439-.848-5.17-.718-7.512.373-4.903 2.284-7.127 8.27-4.892 13.196.515 1.135 1.304 1.999 2.005 3.003.81 1.161 1.238 2.549 1.387 3.948.298 2.8.014 5.805-1.806 8.061-3.614 4.48-5.941 9.583-6.591 15.331-.559 4.947-.167 10.127 1.515 14.828 1.991 5.564 5.962 12.158 12.607 12.158z"/><path d="m71.006 150.539c1.569 0 3.129-.374 4.527-1.086 5.026-2.561 6.958-9.003 4.14-13.896-.594-1.031-1.466-1.856-2.021-2.908-.712-1.349-.983-2.877-.996-4.391-.023-2.762.393-5.054 2.186-7.241 7.109-8.673 8.502-21.693 3.899-31.878-2.347-5.195-6.302-10.627-12.665-10.043-5.492.504-9.62 5.58-9.017 11.055.143 1.303.543 2.572 1.176 3.72.465.843 1.108 1.537 1.642 2.328 1.435 2.128 1.619 4.851 1.393 7.341-.134 1.476-.576 2.92-1.411 4.153-.831 1.225-1.85 2.305-2.657 3.554-1.686 2.608-2.914 5.503-3.66 8.516-1.529 6.172-1.234 13.085 1.007 19.046 2.042 5.431 5.959 11.73 12.457 11.73z"/><path d="m370.992 100.503c1.53 0 3.057-.356 4.428-1.036 4.957-2.458 6.998-8.699 4.426-13.601-.634-1.208-1.639-2.154-2.25-3.371-.66-1.316-.916-2.783-.927-4.246-.012-1.529.016-3.045.525-4.505.493-1.412 1.413-2.436 2.308-3.598 7.539-9.793 7.879-24.843 1.003-35.073-1.563-2.326-3.394-4.441-6.096-5.422-2.427-.882-5.157-.788-7.513.269-4.934 2.214-7.245 8.169-5.08 13.127.471 1.078 1.162 1.941 1.866 2.864.903 1.182 1.392 2.611 1.567 4.078.323 2.697.102 5.761-1.612 7.979-1.87 2.42-3.568 4.803-4.75 7.648-1.063 2.56-1.733 5.276-2.033 8.03-.534 4.909-.14 10.036 1.529 14.7 1.993 5.566 5.964 12.157 12.609 12.157z"/><path d="m441.006 150.539c1.57 0 3.132-.374 4.53-1.087 5.025-2.563 6.955-9.007 4.135-13.898-.593-1.029-1.465-1.853-2.02-2.904-.712-1.349-.982-2.877-.995-4.39-.023-2.764.394-5.055 2.188-7.243 7.107-8.671 8.499-21.691 3.898-31.873-2.346-5.194-6.3-10.628-12.662-10.046-5.492.502-9.621 5.576-9.021 11.051.143 1.303.542 2.573 1.174 3.721.465.844 1.109 1.539 1.644 2.332 1.435 2.128 1.619 4.85 1.394 7.341-.134 1.477-.576 2.921-1.412 4.154-.83 1.224-1.849 2.304-2.656 3.552-1.687 2.608-2.914 5.503-3.66 8.516-1.529 6.173-1.234 13.088 1.008 19.05 2.04 5.426 5.958 11.724 12.455 11.724z"/><path d="m265.986 219.507v-42.349c0-5.523-4.478-10-10-10s-10 4.477-10 10v42.349c0 5.523 4.477 10 10 10s10-4.477 10-10z"/><path d="m170.599 222.843c3.175 0 6.298-1.509 8.238-4.32l24.633-35.684c3.138-4.545 1.997-10.773-2.548-13.911s-10.774-1.997-13.911 2.548l-24.633 35.684c-3.138 4.545-1.997 10.773 2.548 13.911 1.735 1.198 3.714 1.772 5.673 1.772z"/><path d="m341.372 222.843c1.957 0 3.935-.573 5.668-1.768 4.547-3.135 5.691-9.362 2.556-13.909l-24.604-35.684c-3.134-4.547-9.361-5.691-13.909-2.557-4.547 3.135-5.691 9.362-2.556 13.909l24.604 35.684c1.939 2.814 5.063 4.325 8.241 4.325z"/><path d="m466.835 266.405c-9.825-42.532-35.277-81.2-72.158-109.383-26.955-20.598-59.017-34.745-93.119-41.447 2.483-5.961 3.8-12.386 3.8-18.947 0-23.353-16.285-42.959-38.087-48.082 2.299-9.388 7.307-13.638 15.255-17.597 4.943-2.462 6.954-8.466 4.492-13.41-2.464-4.942-8.467-6.954-13.41-4.492-15.498 7.72-23.767 18.447-26.626 35.02-22.922 4.25-40.341 24.401-40.341 48.56 0 6.551 1.306 12.96 3.768 18.904-24.635 4.819-48.2 13.542-69.652 25.899-4.786 2.756-6.431 8.871-3.674 13.656 2.756 4.786 8.872 6.432 13.656 3.674 31.376-18.073 67.77-27.626 105.246-27.626 89.192 0 165.996 53.688 188.709 129.689-4.005-.505-8.107-.771-12.284-.771-12.259 0-24.354 2.292-35.263 6.659-10.912-4.366-23.016-6.659-35.291-6.659-12.276 0-24.38 2.292-35.29 6.659-10.912-4.366-23.016-6.659-35.291-6.659s-24.379 2.292-35.291 6.659c-10.911-4.366-23.015-6.659-35.291-6.659-12.259 0-24.353 2.292-35.263 6.659-10.911-4.366-23.015-6.659-35.291-6.659s-24.379 2.292-35.291 6.659c-10.911-4.366-23.015-6.659-35.291-6.659-4.166 0-8.257.264-12.252.767 4.724-15.762 11.884-30.816 21.392-44.912 3.088-4.579 1.881-10.794-2.698-13.882-4.579-3.09-10.794-1.88-13.882 2.698-12.896 19.117-21.944 39.842-26.961 61.677-26.689 10.42-45.156 32.567-45.156 58.145 0 28.986 23.717 53.561 56.246 61.659l33.362 58.623c2.021 3.55 3.989 7.25 5.892 10.828 11.051 20.786 23.578 44.345 52.885 44.345h43.166c.151.003.303.003.454 0h127.962c.076.002.151.002.228.002s.152 0 .228-.002h43.165c29.335 0 41.864-23.565 52.919-44.355 1.901-3.575 3.866-7.271 5.889-10.823l33.331-58.616c32.543-8.096 56.273-32.673 56.273-61.661 0-25.575-18.468-47.719-45.165-58.14zm-186.117-153.965c-8.179-.859-16.435-1.304-24.732-1.304-8.305 0-16.562.438-24.738 1.289-2.99-4.7-4.607-10.163-4.607-15.796 0-16.21 13.162-29.397 29.341-29.399h.013.003c16.19.007 29.36 13.192 29.36 29.399 0 5.628-1.628 11.096-4.64 15.811zm-132.333 367.56c-16.487 0-23.771-12.189-35.227-33.734-1.97-3.704-4.006-7.535-6.169-11.333l-26.137-45.928c11.832-.155 23.472-2.416 34-6.629 10.911 4.366 23.015 6.659 35.291 6.659.758 0 1.513-.035 2.27-.053l26.1 91.018zm97.601 0h-46.668l-26.826-93.552c4.449-1.049 8.782-2.408 12.941-4.072 10.91 4.366 23.003 6.659 35.263 6.659 8.637 0 17.179-1.158 25.291-3.352v94.317zm66.67 0h-46.67v-94.317c8.111 2.193 16.653 3.352 25.29 3.352 12.275 0 24.379-2.292 35.291-6.659 4.158 1.664 8.49 3.022 12.938 4.071zm92.357-45.071c-2.163 3.798-4.197 7.625-6.165 11.325-11.46 21.552-18.747 33.746-35.261 33.746h-30.124l26.123-91.018c.757.017 1.513.053 2.271.053 12.275 0 24.379-2.292 35.291-6.659 10.528 4.214 22.161 6.474 33.979 6.629zm42.714-67.391c-.258.039-.513.091-.767.15-4.659.876-9.531 1.347-14.549 1.347-10.973 0-21.713-2.289-31.059-6.619-1.334-.618-2.769-.926-4.204-.926s-2.87.309-4.204.926c-9.346 4.33-20.096 6.619-31.087 6.619-10.992 0-21.741-2.289-31.086-6.618-2.666-1.236-5.74-1.235-8.408 0-9.346 4.33-20.096 6.619-31.087 6.619s-21.741-2.289-31.087-6.618c-2.666-1.235-5.741-1.235-8.407 0-9.346 4.33-20.095 6.618-31.087 6.618-10.973 0-21.713-2.289-31.059-6.619-2.666-1.235-5.741-1.235-8.407 0-9.346 4.33-20.095 6.618-31.087 6.618s-21.741-2.289-31.087-6.618c-2.666-1.235-5.741-1.235-8.407 0-9.346 4.33-20.095 6.618-31.087 6.618-32.842 0-59.561-19.958-59.561-44.49s26.719-44.49 59.561-44.49c10.992 0 21.741 2.289 31.087 6.618 2.667 1.235 5.742 1.235 8.407 0 9.346-4.33 20.095-6.618 31.087-6.618s21.741 2.289 31.087 6.618c2.666 1.236 5.741 1.235 8.407 0 9.346-4.33 20.086-6.619 31.059-6.619 10.992 0 21.741 2.289 31.087 6.618 2.666 1.235 5.741 1.235 8.407 0 9.346-4.33 20.096-6.618 31.087-6.618s21.741 2.289 31.087 6.619c2.668 1.235 5.742 1.235 8.408 0 9.345-4.33 20.094-6.618 31.086-6.618 10.991 0 21.741 2.289 31.087 6.619 2.668 1.235 5.74 1.235 8.408 0 9.346-4.33 20.086-6.619 31.059-6.619 32.857 0 59.589 19.958 59.589 44.49 0 20.579-18.815 37.932-44.273 42.993z"/><path d="m109.559 186.508c1.525 0 3.073-.35 4.526-1.089l.057-.029c4.922-2.503 6.855-8.509 4.351-13.432-2.503-4.922-8.55-6.87-13.475-4.366-4.922 2.504-6.883 8.524-4.379 13.447 1.763 3.471 5.276 5.469 8.92 5.469z"/></g></g></svg>