<svg id="Capa_1" enable-background="new 0 0 512 512" height="512" viewBox="0 0 512 512" width="512" xmlns="http://www.w3.org/2000/svg"><g><g><path clip-rule="evenodd" d="m363.287 206.537h-327.955c-8.331 0-15.755 4.084-20.373 10.352-3.117 4.198-4.959 9.388-4.959 15.003 0 5.616 1.842 10.806 4.959 15.003 4.619 6.268 12.043 10.352 20.373 10.352h6.375 63.471 63.5 63.33 63.5 63.471 6.375c13.941 0 25.332-11.401 25.332-25.355 0-13.925-11.391-25.355-25.332-25.355z" fill="#ebddd9" fill-rule="evenodd"/></g><g><path clip-rule="evenodd" d="m105.179 257.247h-63.471l31.084 204.429c2.324 15.23 11.193 21.328 18.248 21.328h36.043l-9.861-101.477h-6.092c-4.845 0-8.812-3.517-8.812-7.799v-47.193c0-4.311 3.967-7.828 8.812-7.828z" fill="#ff7b79" fill-rule="evenodd"/></g><g><path clip-rule="evenodd" d="m168.679 257.247h-63.5l5.951 61.46h60.099z" fill="#faf7f5" fill-rule="evenodd"/></g><g><path clip-rule="evenodd" d="m232.009 257.247h-63.33l2.55 61.46h58.23z" fill="#ff7b79" fill-rule="evenodd"/></g><g><path clip-rule="evenodd" d="m295.509 257.247h-63.5l-2.55 61.46h60.071z" fill="#faf7f5" fill-rule="evenodd"/></g><g><path clip-rule="evenodd" d="m358.98 257.247h-63.471l-5.979 61.459c4.845 0 8.812 3.517 8.812 7.828v47.193c0 4.283-3.967 7.799-8.812 7.799h-6.092l-9.832 101.477h36.014c7.084 0 15.953-6.098 18.248-21.328z" fill="#ff7b79" fill-rule="evenodd"/></g><g><path clip-rule="evenodd" d="m283.438 381.527h-56.615l-4.25 101.477h51.032z" fill="#faf7f5" fill-rule="evenodd"/></g><g><path clip-rule="evenodd" d="m171.229 318.707h-60.1c-4.845 0-8.812 3.517-8.812 7.828v47.193c0 4.283 3.967 7.799 8.812 7.799h6.092 56.643 52.959 56.614 6.092c4.845 0 8.812-3.517 8.812-7.799v-47.193c0-4.311-3.967-7.828-8.812-7.828h-60.071z" fill="#ffea60" fill-rule="evenodd"/></g><g><path clip-rule="evenodd" d="m470.423 232.119c-14.536-4.935-30.347 2.865-35.278 17.442-1.927 5.786-1.898 11.77-.198 17.159-9.691 2.553-17.936 9.756-21.365 19.966-5.469 16.138 3.174 33.637 19.296 39.082 10.824 3.687 22.3.964 30.291-6.098 15.528 4.595 32.019-3.886 37.233-19.371 4.505-13.302-.765-27.539-11.929-34.97 3.57-13.952-4.193-28.53-18.05-33.21z" fill="#ffea60" fill-rule="evenodd"/></g><g><path clip-rule="evenodd" d="m449.625 400.926c-16.265-9.643-37.233-4.283-46.867 11.997-7.991 13.472-5.695 30.205 4.562 41.011-1.445 9.416 2.805 19.201 11.504 24.334 11.391 6.778 26.125 3.006 32.898-8.395 2.607-4.396 3.655-9.274 3.287-14.011 1.502-1.333 2.919-2.836 4.194-4.509 10.201 2.893 21.478-1.305 27.145-10.862 6.772-11.401 3.004-26.149-8.387-32.928-6.829-4.056-14.876-4.339-21.648-1.446-1.984-1.957-4.194-3.687-6.688-5.191z" fill="#fff2a0" fill-rule="evenodd"/></g><g><path clip-rule="evenodd" d="m140.655 53.215c-25.814 0-47.065 19.654-49.559 44.839-15.868 8.367-26.664 24.986-26.664 44.159 0 3.488.368 6.892 1.048 10.182-17.455 11.288-26.579 29.78-29.129 54.142h326.935 1.02c-2.522-24.362-11.646-42.854-29.101-54.142.68-3.29 1.048-6.693 1.048-10.182 0-19.172-10.824-35.792-26.664-44.159-2.522-25.185-23.745-44.839-49.559-44.839-3.514 0-6.914.369-10.229 1.049-11.079-15.315-29.101-25.27-49.474-25.27-20.345 0-38.366 9.955-49.474 25.27-3.284-.68-6.713-1.049-10.198-1.049z" fill="#ffea60" fill-rule="evenodd"/></g><g><path clip-rule="evenodd" d="m226.823 381.527h-52.959l4.251 101.477h22.215 22.243z" fill="#ff7b79" fill-rule="evenodd"/></g><g><path clip-rule="evenodd" d="m173.864 381.527h-56.642l9.86 101.477h51.033z" fill="#faf7f5" fill-rule="evenodd"/></g><g><path d="m128.392 142.721c.335.033.667.05.998.05 5.079 0 9.428-3.855 9.939-9.015 1.561-15.751 14.69-27.629 30.54-27.629 5.523 0 10-4.478 10-10 0-5.523-4.477-10-10-10-26.178 0-47.864 19.628-50.442 45.657-.545 5.495 3.469 10.393 8.965 10.937z"/><path d="m250.398 136.388c15.832 0 28.949 11.878 30.512 27.63.512 5.16 4.86 9.014 9.94 9.014.33 0 .664-.017.999-.05 5.496-.545 9.509-5.443 8.964-10.939-2.582-26.028-24.256-45.656-50.415-45.656-5.523 0-10 4.478-10 10s4.477 10.001 10 10.001z"/><path d="m499.239 261.144c1.173-16.808-9.156-32.94-25.601-38.494-9.562-3.245-19.818-2.569-28.88 1.904-9.067 4.478-15.845 12.221-19.1 21.847-1.53 4.595-2.175 9.329-1.933 14.019-9.175 4.828-16.241 13.009-19.615 23.056-3.505 10.342-2.772 21.424 2.065 31.206 4.831 9.772 13.178 17.074 23.479 20.552 4.266 1.453 8.682 2.162 13.072 2.162 8.064 0 16.037-2.393 22.823-6.955 19.156 3.041 37.966-8.05 44.325-26.933 5.126-15.138.75-31.698-10.635-42.364zm-8.314 35.965c-3.492 10.375-14.436 16.077-24.918 12.973-3.303-.978-6.878-.186-9.459 2.096-5.587 4.937-13.423 6.517-20.467 4.116-5.261-1.776-9.513-5.496-11.975-10.475-2.467-4.99-2.84-10.645-1.043-15.949 2.233-6.649 7.628-11.688 14.433-13.48 2.646-.696 4.89-2.446 6.211-4.842 1.32-2.396 1.602-5.229.778-7.837-1.117-3.541-1.065-7.342.135-10.947 1.528-4.518 4.723-8.167 8.996-10.278 2.488-1.23 5.167-1.85 7.863-1.85 1.927 0 3.863.317 5.745.956 8.775 2.963 13.853 12.301 11.562 21.258-1.054 4.116.609 8.449 4.147 10.803 7.656 5.099 10.945 14.736 7.992 23.456z"/><path d="m483.067 398.965c-7.395-4.393-16.168-5.774-24.442-4.018-1.245-.933-2.546-1.808-3.9-2.623-10.166-6.027-22.064-7.735-33.498-4.809-11.439 2.927-21.054 10.142-27.069 20.305-9.25 15.593-7.932 35.288 2.878 49.441-.146 12.076 6.083 23.35 16.674 29.6 5.32 3.166 11.264 4.787 17.298 4.787 2.822-.001 5.665-.355 8.472-1.072 8.8-2.248 16.201-7.786 20.843-15.603 2.347-3.957 3.847-8.269 4.452-12.728 12.119.342 23.778-5.866 30.171-16.649 9.574-16.117 4.247-37.035-11.879-46.631zm-5.32 36.425c-3.235 5.457-9.74 8.066-15.817 6.342-3.951-1.12-8.191.292-10.683 3.562-.837 1.099-1.805 2.139-2.876 3.089-2.342 2.078-3.575 5.133-3.332 8.255.22 2.834-.443 5.647-1.915 8.129-1.913 3.221-4.965 5.505-8.594 6.432-3.621.925-7.385.384-10.623-1.543-4.947-2.92-7.578-8.495-6.702-14.204.47-3.058-.502-6.159-2.631-8.403-7.404-7.798-8.725-19.733-3.208-29.032 3.297-5.572 8.56-9.523 14.82-11.124 2.001-.512 4.028-.765 6.04-.765 4.28 0 8.492 1.144 12.239 3.364 1.782 1.074 3.36 2.298 4.825 3.743 2.89 2.854 7.218 3.674 10.953 2.077 4.071-1.739 8.788-1.423 12.604.845 6.65 3.957 8.85 12.583 4.9 19.233z"/><path d="m150.318 196.537c-5.523 0-10 4.478-10 10s4.477 10 10 10h.028c5.523 0 9.986-4.478 9.986-10s-4.491-10-10.014-10z"/><path d="m400.687 231.893c0-16.82-11.803-30.925-27.553-34.481-3.683-21.588-12.776-38.225-27.144-49.583.177-1.873.266-3.748.266-5.614 0-20.51-10.399-39.357-27.46-50.351-5.275-28.076-29.678-48.649-58.763-48.649-1.993 0-3.999.102-6.003.303-13.412-15.456-33.059-24.523-53.701-24.523-20.613 0-40.257 9.066-53.692 24.521-1.992-.2-3.991-.301-5.983-.301-29.114 0-53.518 20.573-58.768 48.649-17.058 10.981-27.455 29.828-27.455 50.351 0 1.867.089 3.742.266 5.614-14.362 11.354-23.461 27.992-27.166 49.588-15.739 3.564-27.531 17.663-27.531 34.476 0 18.744 14.655 34.121 33.101 35.277l29.804 196.016c3.143 20.598 16.395 29.819 28.134 29.819h35.911c.04.001.08.001.12.001s.08 0 .12-.001h50.839.099 44.405c.032.001.064.001.095 0h50.871c.078 0 .159.002.236 0h35.885c11.767 0 25.03-9.226 28.133-29.823l29.832-196.012c18.446-1.156 33.102-16.533 33.102-35.277zm-380.687 0c0-8.467 6.878-15.355 15.332-15.355h.968.075 69.059c5.523 0 10-4.478 10-10s-4.477-10-10-10h-57.374c3.586-16.392 11.11-28.152 22.852-35.746 3.465-2.24 5.197-6.379 4.362-10.42-.558-2.702-.841-5.446-.841-8.157 0-14.846 8.172-28.377 21.328-35.313 2.97-1.566 4.957-4.519 5.287-7.861 2.023-20.423 19.05-35.825 39.608-35.825 2.725 0 5.475.283 8.173.842 3.851.801 7.813-.737 10.123-3.921 9.601-13.238 25.07-21.141 41.378-21.141 16.333 0 31.8 7.9 41.371 21.131 2.304 3.186 6.261 4.724 10.113 3.935 2.771-.569 5.46-.846 8.218-.846 20.535 0 37.562 15.407 39.608 35.837.334 3.334 2.316 6.28 5.279 7.845 13.159 6.951 21.334 20.484 21.334 35.317 0 2.709-.283 5.453-.842 8.157-.835 4.041.897 8.18 4.362 10.42 11.749 7.599 19.268 19.359 22.836 35.746h-157.408c-5.523 0-10 4.478-10 10s4.477 10 10 10h169.073c.007 0 .014.001.021.001.006 0 .013-.001.019-.001h1.042c8.453 0 15.331 6.888 15.331 15.355s-6.878 15.355-15.331 15.355h-69.896c-.004 0-.008 0-.012 0h-190.181c-.021 0-.042 0-.063 0h-69.872c-8.453-.001-15.332-6.888-15.332-15.355zm97.301 139.634c-.017 0-.034 0-.051 0h-4.933v-42.82h176.025v42.82h-4.934c-.017 0-.034 0-.051 0zm63.518-62.82-1.74-41.459h42.506l-1.72 41.459zm-21.758-41.459 1.74 41.459h-40.592l-4.014-41.459zm121.394 41.459h-40.573l1.72-41.459h42.886zm-189.415 164.297c-2.574 0-6.925-3.418-8.362-12.83l-29.335-192.926h42.757l4.323 44.646c-4.891 3.223-8.106 8.579-8.106 14.64v47.193c0 8.844 6.86 16.182 15.805 17.551l7.941 81.726zm45.118 0-7.917-81.476h36.031l3.39 81.476zm51.521 0-3.39-81.476h32.107l-3.412 81.476zm45.322 0 3.412-81.476h36.009l-7.895 81.476zm84.978-12.817c-1.417 9.405-5.775 12.818-8.359 12.818h-24.999l7.918-81.726c8.944-1.37 15.803-8.707 15.803-17.55v-47.193c0-6.06-3.213-11.415-8.103-14.638l4.343-44.649h42.76z"/></g></g></svg>