<svg id="Capa_1" enable-background="new 0 0 512 512" height="512" viewBox="0 0 512 512" width="512" xmlns="http://www.w3.org/2000/svg"><g><g><path clip-rule="evenodd" d="m246.178 109.662c0-22.202-17.971-40.207-40.195-40.207-22.195 0-40.195 18.005-40.195 40.207 0 4.565.765 8.96 2.183 13.043 22.365 2.467 41.357 19.451 37.417 48.033 3.402-24.357 17.66-45.424 39.684-51.662.738-3.034 1.106-6.181 1.106-9.414z" fill="#ff7b79" fill-rule="evenodd"/></g><g><path clip-rule="evenodd" d="m245.073 119.076c-22.025 6.238-36.283 27.306-39.684 51.662 3.94-28.582-15.052-45.566-37.417-48.033-24.122-2.665-52.128 11.455-59.668 46.048l-24.519 112.314c5.102 9.697 15.278 16.332 26.929 16.332 16.752 0 30.444-13.695 30.444-30.425v-18.062c0-14.376 11.735-26.115 26.107-26.115 14.343 0 26.078 11.739 26.078 26.115v65.783c0 16.729 13.691 30.425 30.443 30.425 16.724 0 30.415-13.695 30.415-30.425v-83.647c0-14.376 11.735-26.115 26.107-26.115 14.343 0 26.107 11.739 26.107 26.115 0 16.729 13.691 30.425 30.415 30.425s30.415-13.695 30.415-30.425v-9.13c0-14.376 11.735-26.115 26.107-26.115 6.86 0 13.124 2.665 17.801 7.032l-7.455-34.082c-14.541-66.69-105.277-57.362-97.085 1.985-3.968-28.185-22.422-51.946-50.626-53.477-3.799.227-7.456.823-10.914 1.815z" fill="#ffbdbc" fill-rule="evenodd"/></g><g><path clip-rule="evenodd" d="m280.307 204.934c-14.371 0-26.107 11.739-26.107 26.115v83.647c0 16.729-13.691 30.425-30.415 30.425-16.752 0-30.443-13.695-30.443-30.425v-65.783c0-14.376-11.735-26.115-26.078-26.115-14.371 0-26.107 11.739-26.107 26.115v18.062c0 16.729-13.691 30.425-30.444 30.425-11.65 0-21.826-6.635-26.929-16.332l-23.981 109.79h267.614c-15.193-21.578-26.645-63.288-17.348-90.083 29.281-2.24 68.427 21.124 84.471 41.937.794 1.021 1.531 2.042 2.211 3.091 10.176-8.45 25.625-16.332 41.158-20.245l-26.759-122.72c-4.677-4.367-10.942-7.032-17.801-7.032-14.371 0-26.107 11.739-26.107 26.115v9.13c0 16.729-13.691 30.425-30.415 30.425s-30.415-13.695-30.415-30.425c.001-14.378-11.762-26.117-26.105-26.117z" fill="#d0f2d2" fill-rule="evenodd"/></g><g><path clip-rule="evenodd" d="m394.541 342.71c-16.044-20.812-55.189-44.177-84.471-41.937-9.297 26.795 2.154 68.505 17.348 90.083h74.975c4.564-12.646 4.592-29.659-5.641-45.056-.681-1.048-1.418-2.069-2.211-3.09z" fill="#a0e5a5" fill-rule="evenodd"/></g><g><path clip-rule="evenodd" d="m467.843 323.939c-8.986-1.928-19.474-1.049-29.933 1.616-15.534 3.913-30.982 11.796-41.158 20.245 10.233 15.397 10.205 32.41 5.641 45.056h45.807c13.039-17.494 23.81-46.189 19.643-66.917z" fill="#a0e5a5" fill-rule="evenodd"/></g><g><path clip-rule="evenodd" d="m402.393 390.857h-74.975-267.614-49.804c5.442 15.538 12.359 45.793 26.39 45.793h69.646 299.9 69.646c14.031 0 20.948-30.255 26.418-45.793h-53.8z" fill="#faf7f5" fill-rule="evenodd"/></g><g><path clip-rule="evenodd" d="m405.936 436.65h-299.9c7.653 17.268 8.334 41.852 28.034 41.852h243.86c19.672-.001 20.381-24.584 28.006-41.852z" fill="#ebddd9" fill-rule="evenodd"/></g><g><path d="m510.161 385.078c-1.875-2.647-4.917-4.221-8.161-4.221h-35.915c9.162-17.826 15.328-40.158 11.562-58.888-.785-3.904-3.811-6.97-7.704-7.807-7.477-1.605-15.815-1.555-24.347-.286l-32.13-147.254c-5.335-24.467-19.012-37.599-29.546-44.307-13.24-8.432-29.616-11.708-44.934-8.982-13.206 2.347-24.707 8.956-32.384 18.609-.901 1.133-1.746 2.3-2.533 3.498-10.985-16.613-27.892-27.099-47.542-28.165-.137-.007-.273.002-.41 0-1.107-23.537-18.494-42.873-41.124-46.994-2.887-16.961-11.299-27.903-27.103-35.739-4.95-2.454-10.949-.432-13.402 4.517-2.454 4.947-.432 10.947 4.516 13.401 8.221 4.076 13.376 8.47 15.711 18.286-22.268 5.13-38.928 25.107-38.928 48.916 0 1.026.042 2.047.103 3.064-9.817.996-19.442 4.259-27.813 9.589-10.534 6.708-24.211 19.84-29.545 44.304l-46.78 214.238h-41.752c-3.241 0-6.281 1.571-8.156 4.215-1.875 2.644-2.353 6.032-1.282 9.091.825 2.354 1.718 5.169 2.664 8.15 6.267 19.753 14.066 44.337 33.165 44.337h62.777c.778 2.294 1.518 4.698 2.278 7.183 4.474 14.631 10.602 34.669 32.625 34.669h243.86c22.021 0 28.149-20.064 32.624-34.716.754-2.467 1.488-4.856 2.259-7.136h62.769c19.069 0 26.876-24.528 33.149-44.237.959-3.014 1.865-5.859 2.702-8.234 1.076-3.061.602-6.453-1.273-9.101zm-51.391-52.162c.306 15.531-7.036 34.577-15.798 47.94h-28.023c1.271-10.949-.524-22.065-5.198-32.207 13.862-9.069 33.586-16.182 49.019-15.733zm-125.931 47.941c-11.276-18.658-19.091-48.649-15.079-70.089 24.134 1.821 55.423 20.616 68.857 38.043 9.277 12.05 9.388 24.329 8.074 32.046zm-126.855-301.402c16.649 0 30.195 13.551 30.195 30.207 0 .68-.026 1.351-.068 2.015-11.33 4.704-21.029 12.906-28.194 23.743-.783-1.191-1.623-2.352-2.52-3.479-7.069-8.888-17.383-15.186-29.28-17.962-.205-1.421-.328-2.86-.328-4.318 0-16.655 13.545-30.206 30.195-30.206zm-87.91 91.429c6.478-29.707 30.78-41.53 51.438-37.86 14.621 2.6 29.122 13.513 25.969 36.348-.754 5.468 3.063 10.513 8.53 11.272 5.463.754 10.515-3.055 11.28-8.521 2.415-17.272 12.192-37.447 31.875-43.282.345-.074.685-.166 1.018-.275 2.452-.655 5.045-1.103 7.801-1.287 25.624 1.707 37.952 25.167 40.724 44.854.77 5.464 5.819 9.27 11.283 8.51 5.465-.762 9.28-5.806 8.525-11.271-3.152-22.835 11.348-33.748 25.969-36.348 20.66-3.667 44.961 8.152 51.439 37.861l3.302 15.135c-1.282-.138-2.575-.216-3.878-.216-19.909 0-36.106 16.201-36.106 36.115v9.13c0 11.263-9.158 20.425-20.416 20.425-11.257 0-20.415-9.162-20.415-20.425 0-19.914-16.197-36.115-36.106-36.115s-36.106 16.201-36.106 36.115v83.646c0 11.263-9.158 20.425-20.416 20.425-11.272 0-20.443-9.162-20.443-20.425v-65.783c0-19.913-16.185-36.114-36.078-36.114-19.909 0-36.106 16.201-36.106 36.114v18.062c0 11.263-9.171 20.425-20.444 20.425-6.473 0-12.459-3.074-16.294-8.186zm-28.502 130.527c6.244 3.847 13.52 5.989 21.141 5.989 22.301 0 40.444-18.135 40.444-40.425v-18.062c0-8.886 7.225-16.114 16.106-16.114 8.866 0 16.078 7.229 16.078 16.114v65.783c0 22.29 18.143 40.425 40.443 40.425 22.285 0 40.416-18.135 40.416-40.425v-83.646c0-8.886 7.225-16.115 16.106-16.115s16.106 7.229 16.106 16.115c0 22.29 18.13 40.425 40.415 40.425s40.416-18.135 40.416-40.425v-9.13c0-8.886 7.225-16.115 16.106-16.115 3.141 0 6.169.922 8.767 2.62l24.058 110.26c-9.97 3.409-19.512 8.083-27.537 13.346-19.87-22.129-59.222-43.55-89.33-41.227-3.969.304-7.38 2.932-8.685 6.692-8.458 24.375-2.191 58.42 9.582 83.361h-237.981zm392.212 116.461c-3.763 7.818-6.252 8.774-6.203 8.777h-69.471c-.012 0-.024 0-.036 0h-105.188c-5.523 0-10 4.478-10 10s4.477 10 10 10h90.939c-.132.431-.268.865-.399 1.294-4.789 15.677-7.275 20.558-13.497 20.558h-243.859c-6.229 0-8.715-4.872-13.5-20.518-.135-.442-.275-.89-.412-1.334h90.927c5.523 0 10-4.478 10-10s-4.477-10-10-10l-104.994.007c-.114-.001-.228-.003-.343 0l-69.265.005c-.024-.007-2.527-.941-6.312-8.824-2.421-5.044-4.527-11.136-6.417-16.98h36.021c.012 0 .024.002.036.002.015 0 .03-.002.045-.002h342.465c.023 0 .046.003.068.003.025 0 .051-.003.076-.003h45.698c.008 0 .017.001.025.001.006 0 .011-.001.017-.001h40.02c-1.896 5.856-4.011 11.967-6.441 17.015z"/><path d="m255.986 426.65c-5.523 0-10 4.478-10 10s4.477 10 10 10h.057c5.523 0 9.972-4.478 9.972-10s-4.506-10-10.029-10z"/></g></g></svg>