<svg id="Capa_1" enable-background="new 0 0 512 512" height="512" viewBox="0 0 512 512" width="512" xmlns="http://www.w3.org/2000/svg"><g><g><path clip-rule="evenodd" d="m342.541 118.111h34.945 21.352v-47.167h-56.297z" fill="#ffd4b5" fill-rule="evenodd"/></g><g><path clip-rule="evenodd" d="m49.474 452.678h165.493v-93.91-19.785c0-18.595 15.207-33.817 33.784-33.817h14.499c18.577 0 33.784 15.222 33.784 33.817v19.785 93.91h165.493v-255.482h-24.269-60.771-60.743-60.744-60.743-60.771-60.743-24.269zm124.006-99.522c0 4.705-3.851 8.56-8.552 8.56h-65.415c-4.701 0-8.552-3.855-8.552-8.56v-95.611c0-4.705 3.851-8.56 8.552-8.56h65.415c4.701 0 8.552 3.855 8.552 8.56zm173.592 8.56c-4.701 0-8.552-3.855-8.552-8.56v-95.611c0-4.705 3.851-8.56 8.552-8.56h65.415c4.701 0 8.552 3.855 8.552 8.56v95.611c0 4.705-3.851 8.56-8.552 8.56z" fill="#ffd4b5" fill-rule="evenodd"/></g><g><path clip-rule="evenodd" d="m214.967 358.768h82.067v-19.785c0-18.595-15.207-33.817-33.784-33.817h-14.499c-18.577 0-33.784 15.222-33.784 33.817z" fill="#ffa96b" fill-rule="evenodd"/></g><g><path clip-rule="evenodd" d="m214.967 358.768h82.067v93.91h-82.067z" fill="#faf7f5" fill-rule="evenodd"/></g><g><path clip-rule="evenodd" d="m99.513 361.716h65.415c4.701 0 8.552-3.855 8.552-8.56v-95.611c0-4.705-3.851-8.56-8.552-8.56h-65.415c-4.701 0-8.552 3.855-8.552 8.56v95.611c-.001 4.705 3.851 8.56 8.552 8.56z" fill="#faf7f5" fill-rule="evenodd"/></g><g><path clip-rule="evenodd" d="m347.072 361.716h65.415c4.701 0 8.552-3.855 8.552-8.56v-95.611c0-4.705-3.851-8.56-8.552-8.56h-65.415c-4.701 0-8.552 3.855-8.552 8.56v95.611c0 4.705 3.851 8.56 8.552 8.56z" fill="#faf7f5" fill-rule="evenodd"/></g><g><path clip-rule="evenodd" d="m27.329 502h457.342c7.872 0 14.329-6.463 14.329-14.343v-20.636c0-7.88-6.457-14.343-14.329-14.343h-22.145-165.493-82.067-165.492-22.145c-7.873 0-14.329 6.463-14.329 14.343v20.636c0 7.88 6.457 14.343 14.329 14.343z" fill="#a0e5a5" fill-rule="evenodd"/></g><g><path clip-rule="evenodd" d="m35.74 197.196h13.734 24.269v-79.085h-38.003c-12.517 0-22.74 10.233-22.74 22.733v33.59c0 12.53 10.223 22.762 22.74 22.762z" fill="#d0f2d2" fill-rule="evenodd"/></g><g><path clip-rule="evenodd" d="m73.743 197.196h60.743v-79.085h-21.324-39.419z" fill="#a0e5a5" fill-rule="evenodd"/></g><g><path clip-rule="evenodd" d="m134.486 197.196h60.771v-79.085h-25.798-34.973z" fill="#d0f2d2" fill-rule="evenodd"/></g><g><path clip-rule="evenodd" d="m195.257 118.111h60.743v79.085h-60.743z" fill="#a0e5a5" fill-rule="evenodd"/></g><g><path clip-rule="evenodd" d="m256 118.111h60.743v79.085h-60.743z" fill="#d0f2d2" fill-rule="evenodd"/></g><g><path clip-rule="evenodd" d="m316.743 197.196h60.743v-79.085h-34.945-25.798z" fill="#a0e5a5" fill-rule="evenodd"/></g><g><path clip-rule="evenodd" d="m377.486 197.196h60.771v-79.085h-39.419-21.352z" fill="#d0f2d2" fill-rule="evenodd"/></g><g><path clip-rule="evenodd" d="m438.257 197.196h24.269 13.734c12.517 0 22.74-10.233 22.74-22.762v-33.59c0-12.501-10.223-22.733-22.74-22.733h-38.003z" fill="#a0e5a5" fill-rule="evenodd"/></g><g><path clip-rule="evenodd" d="m134.486 118.111h34.973v-47.167h-56.297v47.167z" fill="#ffd4b5" fill-rule="evenodd"/></g><g><path clip-rule="evenodd" d="m113.162 70.944h56.297 173.082 56.297 22.825c16.736 0 30.442-13.719 30.442-30.472 0-16.724-13.649-30.415-30.329-30.472h-.113-321.329-.142c-16.68.057-30.301 13.748-30.301 30.472 0 16.752 13.706 30.472 30.442 30.472z" fill="#ffa96b" fill-rule="evenodd"/></g><g><path d="m412.487 371.716h-65.415c-10.23 0-18.553-8.326-18.553-18.561v-95.611c0-10.234 8.322-18.561 18.553-18.561h65.415c10.229 0 18.552 8.326 18.552 18.561v95.611c0 10.235-8.322 18.561-18.552 18.561zm-63.967-20h62.52v-92.732h-62.52zm63.967-92.732h.01z"/></g><g><path d="m99.513 371.716h65.416c10.23 0 18.552-8.326 18.552-18.561v-95.611c0-10.234-8.322-18.561-18.552-18.561h-65.416c-10.23 0-18.552 8.326-18.552 18.561v95.611c-.001 10.235 8.322 18.561 18.552 18.561zm1.447-112.732h62.52v92.732h-62.52z"/><path d="m338.52 411.259h82.52c5.522 0 10-4.477 10-10s-4.478-10-10-10h-82.52c-5.522 0-10 4.477-10 10s4.477 10 10 10z"/><path d="m173.48 391.259h-82.52c-5.523 0-10 4.477-10 10s4.477 10 10 10h82.52c5.523 0 10-4.477 10-10s-4.477-10-10-10z"/><path d="m476.261 207.196c18.053 0 32.739-14.697 32.739-32.762v-33.59c0-18.049-14.687-32.733-32.739-32.733h-67.423v-27.167h12.824c22.3 0 40.442-18.156 40.442-40.472s-18.142-40.472-40.442-40.472h-321.328c-22.3 0-40.442 18.156-40.442 40.472s18.143 40.472 40.442 40.472h2.828v27.167h-67.422c-18.053 0-32.74 14.684-32.74 32.734v33.59c0 18.065 14.687 32.762 32.74 32.762h3.734v235.482h-12.145c-13.415-.001-24.329 10.919-24.329 24.342v20.636c0 13.423 10.914 24.343 24.329 24.343h263.673c5.522 0 10-4.477 10-10s-4.478-10-10-10h-263.673c-2.347 0-4.329-1.989-4.329-4.343v-20.636c0-2.354 1.982-4.343 4.329-4.343h187.638 82.066 187.638c2.347 0 4.329 1.989 4.329 4.343v20.636c0 2.354-1.982 4.343-4.329 4.343h-103.929c-5.522 0-10 4.477-10 10s4.478 10 10 10h103.929c13.415 0 24.329-10.92 24.329-24.343v-20.636c0-13.423-10.914-24.343-24.329-24.343h-12.145v-235.482zm-28.004-79.085h28.004c7.024 0 12.739 5.712 12.739 12.733v33.59c0 7.037-5.715 12.762-12.739 12.762h-28.004zm-20 0v59.085h-40.771v-59.085zm-248.798-20v-27.167h153.082v27.167zm127.284 20v59.085h-40.743v-59.085zm-60.743 0v59.085h-40.743v-59.085zm-101.514 0h40.771v59.085h-40.771zm-21.324-20v-27.167h36.297v27.167zm203.581 20h40.743v59.085h-40.743zm25.798-20v-27.167h36.297v27.167zm-252.207-47.167c-11.272 0-20.442-9.184-20.442-20.472s9.17-20.472 20.442-20.472h321.328c11.271 0 20.442 9.184 20.442 20.472 0 11.289-9.171 20.472-20.442 20.472zm-16.591 67.167h40.743v59.085h-40.743zm-60.743 46.324v-33.59c0-7.021 5.715-12.733 12.74-12.733h28.003v59.085h-28.003c-7.025-.001-12.74-5.726-12.74-12.762zm264.033 174.333h-62.066v-9.786c0-13.132 10.669-23.816 23.784-23.816h14.499c13.114 0 23.784 10.684 23.784 23.816v9.786zm-62.066 93.91v-73.91h62.066v73.91zm227.559 0h-145.493v-103.696c0-24.161-19.642-43.816-43.784-43.816h-14.499c-24.143 0-43.784 19.656-43.784 43.816v103.696h-145.492v-235.482h393.052z"/><path d="m335.886 492c-5.522 0-10 4.477-10 10s4.478 10 10 10h.028c5.522 0 9.986-4.477 9.986-10s-4.492-10-10.014-10z"/></g></g></svg>