<svg id="Capa_1" enable-background="new 0 0 512 512" height="512" viewBox="0 0 512 512" width="512" xmlns="http://www.w3.org/2000/svg"><g><g><path clip-rule="evenodd" d="m255.986 13.507c-20.409 0-40.79 1.048-61.057 3.144-20.551 2.124-40.96 5.353-61.085 9.63-16.894 3.625-33.618 7.987-50.031 13.114-8.447 2.662-11.027 7.166-11.027 14.7v2.577 64.352 8.78c0 9.857 3.146 12.633 13.209 10.933 4.592-.765 9.156-1.501 13.606-2.209 121.264-19.459 191.533-19.459 312.769 0 4.479.708 9.014 1.445 13.634 2.209 10.063 1.699 13.209-1.076 13.209-10.933v-8.78-64.351-2.577c0-7.534-2.608-12.038-11.055-14.7-16.412-5.127-33.108-9.489-50.031-13.114-20.126-4.277-40.506-7.506-61.057-9.63-20.266-2.097-40.675-3.145-61.084-3.145z" fill="#ffa96b" fill-rule="evenodd"/></g><g><path clip-rule="evenodd" d="m255.986 166.542c-20.409 0-40.79 1.048-61.057 3.144-20.551 2.124-40.96 5.353-61.085 9.63-11.508 2.464-22.932 5.268-34.242 8.441-5.272 1.473-10.545 3.031-15.789 4.673-8.447 2.634-11.027 7.166-11.027 14.7v2.577 64.352 8.78c0 9.857 3.146 12.604 13.209 10.933 4.592-.765 9.156-1.501 13.606-2.238 121.264-19.459 191.533-19.459 312.769 0 4.479.736 9.014 1.473 13.634 2.238 10.063 1.671 13.209-1.076 13.209-10.933v-8.78-64.352-2.577c0-7.534-2.608-12.066-11.055-14.7-5.216-1.643-10.488-3.201-15.789-4.673-11.282-3.172-22.705-5.976-34.242-8.441-20.126-4.277-40.506-7.506-61.057-9.63-20.266-2.096-40.675-3.144-61.084-3.144z" fill="#ffa96b" fill-rule="evenodd"/></g><g><path clip-rule="evenodd" d="m194.929 322.721c-20.551 2.124-40.96 5.325-61.085 9.63-11.508 2.464-22.932 5.268-34.242 8.441-5.272 1.473-10.545 3.031-15.789 4.673-8.447 2.634-11.027 7.166-11.027 14.7v2.549 64.381 8.78c0 9.857 3.146 12.604 13.209 10.933 15.42-2.578 29.735-4.758 43.965-6.854 15.363-2.238 13.181-.991 13.181 19.487 0 13.68 11.168 24.868 24.859 24.868s24.888-11.188 24.888-24.868v-6.911c0-11.726 9.609-21.328 21.344-21.328s21.344 9.602 21.344 21.328v21.101c0 13.681 11.197 24.869 24.888 24.869 13.663 0 24.859-11.188 24.859-24.869v-22.716c0-19.884-3.742-20.875 21.174-19.175 35.858 2.464 74.068 7.478 119.506 15.068 10.063 1.671 13.209-1.076 13.209-10.933v-8.78-64.381-2.549c0-7.534-2.608-12.066-11.055-14.7-5.216-1.643-10.488-3.201-15.789-4.673-11.282-3.172-22.705-5.976-34.242-8.441-20.126-4.305-40.506-7.506-61.057-9.63-20.267-2.096-40.676-3.172-61.085-3.172-20.407 0-40.788 1.076-61.055 3.172z" fill="#ffa96b" fill-rule="evenodd"/></g><g><path clip-rule="evenodd" d="m72.786 362.714c-16.157 1.784-32.173 3.767-47.961 6.005-11.367 1.615-14.825 4.362-14.825 8.922v46.027c0 6.005 4.224 7.676 17.745 6.656 15.619-1.19 30.585-2.266 45.042-3.229v-64.381z" fill="#ebddd9" fill-rule="evenodd"/></g><g><path clip-rule="evenodd" d="m487.175 368.719c-15.817-2.238-31.804-4.22-47.961-6.005v64.381c14.456.963 29.423 2.039 45.042 3.229 13.493 1.02 17.745-.651 17.745-6.656v-46.027c-.001-4.56-3.488-7.307-14.826-8.922z" fill="#ebddd9" fill-rule="evenodd"/></g><g><path clip-rule="evenodd" d="m412.37 291.536c-121.235-19.459-191.505-19.459-312.769 0v49.256c11.31-3.172 22.733-5.976 34.242-8.441 20.126-4.305 40.535-7.506 61.085-9.63 20.267-2.096 40.648-3.172 61.057-3.172s40.818 1.076 61.085 3.172c20.551 2.124 40.931 5.325 61.057 9.63 11.537 2.464 22.96 5.268 34.242 8.441v-49.256z" fill="#ffd4b5" fill-rule="evenodd"/></g><g><path clip-rule="evenodd" d="m487.175 215.684c-15.817-2.238-31.804-4.22-47.961-5.976v64.352c14.456.963 29.423 2.039 45.042 3.229 13.493 1.02 17.745-.651 17.745-6.656v-45.998c-.001-4.589-3.488-7.336-14.826-8.951z" fill="#ebddd9" fill-rule="evenodd"/></g><g><path clip-rule="evenodd" d="m24.825 215.684c-11.367 1.615-14.825 4.362-14.825 8.951v45.998c0 6.005 4.224 7.676 17.745 6.656 15.619-1.19 30.585-2.266 45.042-3.229v-64.352c-16.158 1.756-32.173 3.739-47.962 5.976z" fill="#ebddd9" fill-rule="evenodd"/></g><g><path clip-rule="evenodd" d="m412.37 138.529c-121.235-19.459-191.505-19.459-312.769 0v49.227c11.31-3.172 22.733-5.976 34.242-8.441 20.126-4.277 40.535-7.506 61.085-9.63 20.267-2.096 40.648-3.144 61.057-3.144s40.818 1.048 61.085 3.144c20.551 2.124 40.931 5.353 61.057 9.63 11.537 2.464 22.96 5.268 34.242 8.441v-49.227z" fill="#ffd4b5" fill-rule="evenodd"/></g><g><path clip-rule="evenodd" d="m24.825 62.678c-11.367 1.586-14.825 4.333-14.825 8.922v46.027c0 5.976 4.224 7.647 17.745 6.628 15.619-1.161 30.585-2.238 45.042-3.229v-64.353c-16.158 1.756-32.173 3.767-47.962 6.005z" fill="#ebddd9" fill-rule="evenodd"/></g><g><path clip-rule="evenodd" d="m487.175 62.678c-15.817-2.238-31.804-4.249-47.961-6.005v64.352c14.456.991 29.423 2.068 45.042 3.229 13.493 1.02 17.745-.651 17.745-6.628v-46.026c-.001-4.589-3.488-7.336-14.826-8.922z" fill="#ebddd9" fill-rule="evenodd"/></g><g><path d="m424.339 150.599c5.198.878 12.773 1.485 18.517-3.37 5.021-4.244 6.129-10.518 6.322-15.488 10.784.757 22.109 1.577 34.324 2.485 2.57.194 4.965.313 7.196.313 7.019 0 12.402-1.179 16.42-4.904 2.227-2.064 4.882-5.825 4.882-12.009v-46.026c0-15.547-17.029-17.929-23.425-18.823-13.349-1.888-26.748-3.594-39.967-5.107-1.782-8.832-7.537-14.689-17.465-17.818-55.912-17.486-114.843-26.352-175.157-26.352s-119.246 8.866-175.18 26.357c-9.896 3.12-15.638 8.976-17.417 17.812-13.3 1.522-26.701 3.227-39.947 5.104-6.411.895-23.442 3.272-23.442 18.827v46.026c0 6.188 2.653 9.948 4.88 12.013 4.014 3.723 9.398 4.899 16.419 4.899 2.228 0 4.621-.118 7.187-.312 12.225-.909 23.552-1.729 34.337-2.486.193 4.97 1.301 11.244 6.322 15.488 3.665 3.098 8.075 3.972 12.132 3.972 2.301 0 4.488-.281 6.361-.598.66-.11 1.308-.216 1.964-.325v29.958c-2.928.864-5.854 1.737-8.766 2.648-9.916 3.092-15.667 8.949-17.447 17.811-13.71 1.562-27.122 3.268-39.97 5.089-6.405.91-23.419 3.326-23.419 18.852v45.998c0 6.205 2.657 9.973 4.887 12.04 4.014 3.723 9.396 4.899 16.421 4.899 2.229 0 4.627-.118 7.196-.313 12.093-.92 23.412-1.745 34.318-2.5.191 4.961 1.293 11.229 6.301 15.474 5.728 4.854 13.307 4.267 18.51 3.404.003-.001.006-.001.009-.002.658-.11 1.305-.216 1.96-.324v29.958c-2.929.864-5.854 1.737-8.767 2.648-9.909 3.09-15.66 8.941-17.443 17.794-13.93 1.604-27.347 3.316-39.974 5.105-6.404.913-23.418 3.33-23.418 18.826v46.026c0 6.205 2.657 9.972 4.887 12.04 4.014 3.723 9.396 4.9 16.421 4.9 2.229 0 4.627-.119 7.196-.313 12.13-.924 23.45-1.748 34.318-2.5.191 4.962 1.293 11.229 6.301 15.475 5.728 4.855 13.306 4.269 18.521 3.402 16.863-2.818 32.251-5.128 43.758-6.822.441-.064 1.103-.16 1.84-.261-.007.966-.022 1.981-.037 2.957-.029 2.018-.063 4.307-.063 6.896 0 19.227 15.638 34.868 34.859 34.868 19.237 0 34.888-15.642 34.888-34.868v-6.911c0-6.246 5.089-11.328 11.345-11.328s11.345 5.082 11.345 11.328v21.102c0 19.227 15.65 34.868 34.888 34.868 19.222 0 34.859-15.642 34.859-34.868v-22.716c0-2.724-.065-5.054-.122-7.109-.023-.845-.05-1.767-.064-2.636 3.137.032 7.608.337 10.675.546 33.636 2.312 71.304 7.063 118.555 14.957 5.202.862 12.783 1.45 18.51-3.404 5.008-4.246 6.11-10.513 6.301-15.475 10.868.752 22.19 1.577 34.324 2.501 2.568.194 4.961.313 7.19.313 7.017 0 12.4-1.179 16.419-4.904 2.229-2.068 4.889-5.835 4.889-12.036v-46.026c0-15.487-17.011-17.911-23.425-18.824-12.71-1.798-26.125-3.509-39.969-5.104-1.786-8.848-7.545-14.699-17.463-17.792-2.915-.911-5.843-1.786-8.773-2.65v-29.963c.667.111 1.326.219 1.997.331 1.867.31 4.04.584 6.324.584 4.08 0 8.514-.876 12.186-3.988 5.008-4.245 6.11-10.513 6.301-15.474 10.907.755 22.227 1.58 34.324 2.501 2.568.194 4.961.313 7.189.313 7.018 0 12.401-1.179 16.42-4.904 2.229-2.068 4.889-5.835 4.889-12.036v-45.998c0-15.517-17.012-17.938-23.424-18.852-12.929-1.83-26.34-3.535-39.967-5.088-1.782-8.858-7.542-14.714-17.466-17.808-2.915-.911-5.843-1.786-8.773-2.65v-29.964c.654.104 1.305.211 1.966.321zm24.875-82.734c12.106 1.411 24.36 2.989 36.576 4.716 3.154.441 5.076.91 6.21 1.268l-.002 40.664c-1.474.051-3.697.019-7.001-.231-12.771-.949-24.56-1.801-35.783-2.586zm-386.428 43.83c-11.224.786-23.014 1.638-35.794 2.587-3.297.248-5.518.281-6.992.23v-40.666c1.137-.357 3.063-.825 6.229-1.267 12.13-1.719 24.382-3.297 36.558-4.715v43.831zm0 153.021c-11.368.783-23.161 1.64-35.794 2.602-3.302.249-5.52.279-6.992.23v-40.679c1.135-.36 3.062-.834 6.229-1.283 11.771-1.669 24.027-3.24 36.558-4.691v43.821zm0 153.034c-11.327.78-23.12 1.637-35.794 2.603-3.302.248-5.52.28-6.992.23v-40.68c1.137-.36 3.064-.834 6.229-1.283 11.577-1.641 23.836-3.216 36.558-4.703v43.833zm386.428-43.833c12.647 1.479 24.905 3.054 36.551 4.702 3.17.451 5.099.926 6.235 1.288l-.002 40.676c-1.47.05-3.686.019-6.982-.229-12.68-.966-24.475-1.824-35.802-2.604zm0-153.022c12.46 1.444 24.715 3.015 36.552 4.69 3.172.451 5.101.927 6.234 1.288l-.002 40.675c-1.47.049-3.686.019-6.982-.229-12.639-.963-24.434-1.82-35.802-2.603zm-24.032 134.117c4.032 1.257 4.032 1.776 4.032 5.153v75.711c0 .489-.01.915-.026 1.286-.434-.049-.942-.118-1.535-.217-47.893-8.001-86.173-12.825-120.474-15.182-13.467-.92-21.596-1.474-27.281 3.987-5.071 4.872-4.894 11.24-4.688 18.613.054 1.926.114 4.107.114 6.552v22.716c0 8.198-6.666 14.868-14.859 14.868-8.209 0-14.888-6.67-14.888-14.868v-21.101c0-17.274-14.062-31.328-31.345-31.328s-31.345 14.054-31.345 31.328v6.911c0 8.198-6.679 14.868-14.888 14.868-8.193 0-14.859-6.67-14.859-14.868 0-2.478.033-4.667.062-6.598.135-9.012.231-15.523-5.064-20.173-5.342-4.691-12.278-3.682-19.635-2.61-11.611 1.71-27.123 4.038-44.146 6.883-.598.1-1.109.17-1.545.219-.017-.371-.026-.798-.026-1.286v-75.711c0-3.385 0-3.905 4.011-5.156 12.219-3.821 24.582-7.189 37.047-10.154v7.493c0 5.522 4.478 10 10 10s10-4.478 10-10v-11.865c13.602-2.715 27.309-4.931 41.085-6.644v39.837c0 5.522 4.478 10 10 10s10-4.478 10-10v-41.974c13.652-1.213 27.349-1.95 41.057-2.188v22.833c0 5.522 4.478 10 10 10s10-4.478 10-10v-22.833c13.718.238 27.425.975 41.086 2.19v41.971c0 5.522 4.478 10 10 10s10-4.478 10-10v-39.833c13.767 1.713 27.464 3.927 41.057 6.641v11.864c0 5.522 4.478 10 10 10s10-4.478 10-10v-7.492c12.466 2.966 24.832 6.335 37.053 10.157zm-315.58-27.239v-27.687c112.602-17.585 180.144-17.589 292.769-.004v27.69c-47.22-12.075-96.323-18.203-146.384-18.203-50.064.001-99.168 6.129-146.385 18.204zm315.581-125.795c4.031 1.257 4.031 1.775 4.031 5.152v75.711c0 .489-.01.915-.026 1.286-.434-.049-.943-.118-1.536-.217-67.385-11.248-119.524-16.872-171.662-16.872-48.534 0-97.073 4.876-157.896 14.624-.181.027-.364.049-.541.086-4.339.697-8.735 1.416-13.203 2.162-.594.099-1.103.168-1.536.217-.017-.371-.026-.798-.026-1.286v-75.711c0-3.384 0-3.904 4.011-5.155 12.219-3.821 24.582-7.19 37.047-10.155v28.821c0 5.522 4.478 10 10 10s10-4.478 10-10v-33.193c13.602-2.715 27.309-4.931 41.085-6.645v18.538c0 5.522 4.478 10 10 10s10-4.478 10-10v-20.675c13.652-1.213 27.349-1.95 41.057-2.188v44.785c0 5.522 4.478 10 10 10s10-4.478 10-10v-44.785c13.718.238 27.425.976 41.086 2.19v20.672c0 5.522 4.478 10 10 10s10-4.478 10-10v-18.534c13.767 1.713 27.464 3.928 41.057 6.641v33.193c0 5.522 4.478 10 10 10s10-4.478 10-10v-28.82c12.464 2.966 24.83 6.336 37.052 10.158zm-124.908-66.666c29.979 1.835 62.122 5.517 102.095 11.743v27.684c-47.22-12.075-96.323-18.203-146.384-18.203-50.063 0-99.167 6.129-146.385 18.203v-27.679c40-6.231 72.137-9.914 102.095-11.747 5.513-.338 9.708-5.08 9.371-10.592-.338-5.514-5.075-9.694-10.592-9.371-35.969 2.201-74.867 6.989-126.146 15.529-.585.099-1.087.169-1.516.219-.018-.372-.027-.8-.027-1.291v-75.71c0-3.373 0-3.892 4.011-5.156 12.219-3.821 24.582-7.19 37.047-10.155v7.522c0 5.522 4.478 10 10 10s10-4.478 10-10v-11.896c13.602-2.715 27.309-4.931 41.085-6.645v39.839c0 5.522 4.478 10 10 10s10-4.478 10-10v-41.975c13.652-1.214 27.349-1.951 41.057-2.188v22.864c0 5.522 4.478 10 10 10s10-4.478 10-10v-22.865c13.718.237 27.425.975 41.086 2.19v41.974c0 5.522 4.478 10 10 10s10-4.478 10-10v-39.836c13.767 1.713 27.464 3.928 41.057 6.641v11.896c0 5.522 4.478 10 10 10s10-4.478 10-10v-7.523c12.458 2.964 24.814 6.331 37.025 10.15 4.061 1.279 4.061 1.797 4.061 5.162v75.71c0 .49-.01.919-.027 1.291-.434-.051-.944-.122-1.539-.223-51.245-8.534-90.151-13.322-126.151-15.525-5.477-.337-10.254 3.858-10.592 9.371-.339 5.511 3.857 10.254 9.369 10.592z"/><path d="m255.985 113.914c-5.522 0-10 4.478-10 10s4.478 10 10 10h.058c5.522 0 9.972-4.478 9.972-10s-4.507-10-10.03-10z"/></g></g></svg>