<svg id="Capa_1" enable-background="new 0 0 512 512" height="512" viewBox="0 0 512 512" width="512" xmlns="http://www.w3.org/2000/svg"><g><g><path clip-rule="evenodd" d="m17.522 166.231c0 16.2-1.681 28.549 24.505 13.69l27.981-15.886c-3.647-9.982-5.67-20.735-5.67-31.915s2.023-21.932 5.67-31.915l-27.981-15.886c-26.186-14.859-24.505-2.51-24.505 13.69v34.111z" fill="#ffbdbc" fill-rule="evenodd"/></g><g><path clip-rule="evenodd" d="m157.398 225.24h251.57c-51.403 0-93.032-41.697-93.032-93.12 0-51.366 41.515-93.006 92.775-93.12h-137.111-50.263-50.263-13.677c-40.005 0-74.311 25.583-87.39 61.205-3.647 9.982-5.67 20.735-5.67 31.915s2.023 21.932 5.67 31.915c13.079 35.622 47.386 61.205 87.391 61.205z" fill="#ff7b79" fill-rule="evenodd"/></g><g><path clip-rule="evenodd" d="m315.936 132.12c0 51.423 41.629 93.12 93.032 93.12 51.374 0 93.032-41.697 93.032-93.12s-41.658-93.12-93.032-93.12c-.085 0-.171 0-.256 0-51.26.114-92.776 41.754-92.776 93.12z" fill="#ffbdbc" fill-rule="evenodd"/></g><g><path clip-rule="evenodd" d="m103.032 473c25.473 0 48.553-10.239 65.336-26.838 17.096-16.884 27.696-40.357 27.696-66.311 0-25.925-10.6-49.398-27.696-66.282-16.783-16.599-39.863-26.838-65.336-26.838-51.374 0-93.032 41.697-93.032 93.12 0 51.452 41.658 93.149 93.032 93.149z" fill="#ffbdbc" fill-rule="evenodd"/></g><g><path clip-rule="evenodd" d="m168.368 446.162c16.811 16.571 39.862 26.838 65.336 26.838 51.374 0 93.032-41.697 93.032-93.149 0-51.423-41.658-93.12-93.032-93.12-25.473 0-48.525 10.267-65.336 26.838 17.096 16.884 27.696 40.357 27.696 66.282 0 25.954-10.6 49.427-27.696 66.311z" fill="#ffbdbc" fill-rule="evenodd"/></g><g><path d="m274.82 358.072h-.057c-5.523 0-9.972 4.478-9.972 10s4.505 10 10.028 10 10-4.478 10-10-4.476-10-9.999-10z"/><path d="m259.718 412.519h-.057c-5.523 0-9.972 4.478-9.972 10s4.505 10 10.028 10 10-4.478 10-10-4.476-10-9.999-10z"/><path d="m233.732 319.655h-.057c-5.523 0-9.972 4.478-9.972 10s4.506 10 10.029 10 10-4.478 10-10-4.477-10-10-10z"/><path d="m233.704 276.731c-24.07 0-46.947 8.259-65.364 23.422-17.789-14.629-40.541-23.422-65.308-23.422-56.812 0-103.032 46.26-103.032 103.121 0 56.876 46.22 103.148 103.032 103.148 24.765 0 47.515-8.795 65.304-23.425 18.417 15.164 41.295 23.425 65.368 23.425 56.812 0 103.032-46.272 103.032-103.148-.001-56.861-46.22-103.121-103.032-103.121zm-213.704 103.121c0-45.833 37.248-83.12 83.032-83.12s83.032 37.287 83.032 83.12c0 45.849-37.248 83.148-83.032 83.148s-83.032-37.3-83.032-83.148zm213.704 83.148c-18.728 0-36.555-6.224-51.128-17.66 14.668-17.825 23.488-40.645 23.488-65.489 0-24.834-8.818-47.645-23.483-65.464 14.572-11.433 32.397-17.656 51.123-17.656 45.784 0 83.032 37.287 83.032 83.12-.001 45.849-37.249 83.149-83.032 83.149z"/><path d="m144.148 358.072h-.057c-5.523 0-9.972 4.478-9.972 10s4.505 10 10.028 10 10-4.478 10-10-4.476-10-9.999-10z"/><path d="m129.046 412.519h-.057c-5.523 0-9.972 4.478-9.972 10s4.505 10 10.028 10 10-4.478 10-10-4.476-10-9.999-10z"/><path d="m77.074 412.519h-.057c-5.523 0-9.972 4.478-9.972 10s4.506 10 10.029 10 10-4.478 10-10-4.477-10-10-10z"/><path d="m103.06 319.655h-.057c-5.523 0-9.972 4.478-9.972 10s4.505 10 10.028 10 10-4.478 10-10-4.476-10-9.999-10z"/><path d="m71.973 368.072c0-5.522-4.477-10-10-10h-.057c-5.523 0-9.972 4.478-9.972 10s4.506 10 10.029 10 10-4.477 10-10z"/></g><g><path d="m408.968 29h-251.571c-40.268 0-75.21 23.231-92.158 56.999l-18.277-10.377c-10.734-6.091-21.894-11.008-30.79-5.791-8.784 5.151-8.721 15.479-8.661 25.466.006.889.006 72.759 0 73.647-.061 9.986-.124 20.313 8.661 25.465 2.635 1.545 5.468 2.201 8.431 2.201 7.039 0 14.805-3.706 22.361-7.993l18.275-10.375c16.949 33.768 51.89 56.999 92.158 56.999h49.494c5.523 0 10-4.478 10-10s-4.477-10-10-10h-49.494c-45.799 0-83.06-37.287-83.06-83.12s37.261-83.121 83.06-83.121h3.677v37.516c0 5.522 4.477 10 10 10s10-4.478 10-10v-37.516h30.263v37.516c0 5.522 4.477 10 10 10s10-4.478 10-10v-37.516h30.263v37.516c0 5.522 4.477 10 10 10s10-4.478 10-10v-37.516h66.464c-25.527 18.787-42.128 49.048-42.128 83.12s16.601 64.333 42.128 83.12h-50.905c-5.523 0-10 4.478-10 10s4.477 10 10 10h111.809c56.812 0 103.032-46.26 103.032-103.12s-46.22-103.12-103.032-103.12zm-371.877 142.224c-4.544 2.579-7.566 3.921-9.498 4.618-.111-2.101-.095-4.75-.083-6.775.005-.929.005-72.963 0-73.892-.013-2.025-.029-4.676.083-6.776 1.931.697 4.952 2.039 9.496 4.617l20.903 11.868c-2.378 8.68-3.656 17.812-3.656 27.237s1.277 18.557 3.656 27.237zm371.877 44.016c-45.784 0-83.032-37.287-83.032-83.12s37.249-83.12 83.032-83.12 83.032 37.287 83.032 83.12-37.248 83.12-83.032 83.12z"/><path d="m450.056 110.341h-.029c-5.523 0-9.986 4.478-9.986 10s4.492 10 10.015 10 10-4.478 10-10-4.477-10-10-10z"/><path d="m434.983 164.787h-.057c-5.523 0-9.971 4.478-9.971 10s4.505 10 10.028 10 10-4.478 10-10-4.477-10-10-10z"/><path d="m382.982 164.787h-.028c-5.523 0-9.986 4.478-9.986 10s4.491 10 10.014 10 10-4.478 10-10-4.477-10-10-10z"/><path d="m408.997 71.924h-.057c-5.523 0-9.972 4.478-9.972 10s4.505 10 10.028 10 10-4.478 10-10-4.476-10-9.999-10z"/><path d="m377.909 120.341c0-5.522-4.477-10-10-10h-.057c-5.523 0-9.972 4.478-9.972 10s4.505 10 10.028 10 10.001-4.478 10.001-10z"/><path d="m252.025 215.24c-5.523 0-10 4.478-10 10s4.477 10 10 10h.057c5.523 0 9.971-4.478 9.971-10s-4.505-10-10.028-10z"/></g></g></svg>