<svg id="Capa_1" enable-background="new 0 0 512 512" height="512" viewBox="0 0 512 512" width="512" xmlns="http://www.w3.org/2000/svg"><g><g><path clip-rule="evenodd" d="m295.441 55.07c-74.337 10.891-131.393 74.933-131.393 152.328h13.547 168.215 125.951c0-77.395-57.085-141.437-131.393-152.328-7.353-1.072-14.85-1.622-22.463-1.622-7.643 0-15.14.55-22.464 1.622z" fill="#faf7f5" fill-rule="evenodd"/></g><g><path clip-rule="evenodd" d="m317.904 10c-15.545 0-28.137 12.6-28.137 28.125 0 6.372 2.113 12.223 5.674 16.945 7.324-1.072 14.821-1.622 22.463-1.622 7.613 0 15.111.55 22.463 1.622 3.532-4.721 5.645-10.572 5.645-16.945.001-15.525-12.592-28.125-28.108-28.125z" fill="#ebddd9" fill-rule="evenodd"/></g><g><path clip-rule="evenodd" d="m471.761 207.398h-125.951l-52.453 48.835h179.243c13.432 0 24.403-11.007 24.403-24.418 0-13.44-10.971-24.418-24.403-24.418h-.839z" fill="#ebddd9" fill-rule="evenodd"/></g><g><path clip-rule="evenodd" d="m177.595 207.398h-13.547-.868c-13.403 0-24.374 10.978-24.374 24.418 0 13.411 10.971 24.418 24.374 24.418h66.869z" fill="#ebddd9" fill-rule="evenodd"/></g><g><path clip-rule="evenodd" d="m345.81 207.398h-168.215l52.453 48.835 17.832 16.568c8.047 9.993 19.598 9.993 27.674 0l17.803-16.568z" fill="#a0e5a5" fill-rule="evenodd"/></g><g><path clip-rule="evenodd" d="m162.253 329.776-79.519 17.987v99.293l166.043 46.605c4.95 1.535 13.866 4.924 23.94 6.865h26.082l149.978-33.368c28.89-6.43 23.882-46.953-4.053-42.666l-96.106 14.772c-13.692 2.114-24.374-1.68-38.037-3.823l-80.706-27.227c-18.816-6.025-16.616-31.862 8.134-32.499l33.348-.869c41.192-1.072 44.377-48.546 8.8-52.253l-29.613-.956c-27.501-.869-46.78-1.246-88.291 8.139z" fill="#ffd0c7" fill-rule="evenodd"/></g><g><path clip-rule="evenodd" d="m26.721 327.545c-6.455 0-11.724 5.272-11.724 11.731v116.266c0 6.459 5.268 11.76 11.724 11.76h44.261c6.455 0 11.753-5.301 11.753-11.76v-8.487-99.293-8.487c0-6.459-5.297-11.731-11.753-11.731h-44.261z" fill="#a0e5a5" fill-rule="evenodd"/></g><g><path d="m443.205 414.608-96.114 14.773c-8.435 1.302-15.539-.11-24.535-1.9-3.049-.607-6.192-1.232-9.571-1.782l-79.914-26.96c-.049-.017-.098-.032-.146-.048-4.571-1.464-5.819-4.598-5.499-6.837.519-3.63 4.673-5.983 10.844-6.142l33.347-.868c27.37-.713 42.389-19.012 43.079-36.72.597-15.343-9.632-32.989-33.501-35.477-.237-.024-.476-.041-.715-.049l-29.621-.956c-29.236-.925-49.262-1.012-90.811 8.381l-67.679 15.309c-1.864-10.105-10.741-17.786-21.387-17.786h-44.261c-11.979 0-21.724 9.748-21.724 21.731v116.266c0 11.998 9.745 21.76 21.724 21.76h44.261c10.427 0 19.16-7.379 21.265-17.19 0 0 155.786 43.823 157.055 44.249 8.526 2.858 22.784 7.64 37.479 7.639 4.127 0 8.289-.377 12.367-1.279l151.801-33.802c21.165-4.711 29.544-23.446 26.683-38.681-3.108-16.549-17.254-26.265-34.427-23.631zm-372.223 42.694h-44.261c-.918 0-1.724-.822-1.724-1.76v-116.266c0-.938.789-1.73 1.724-1.73h44.261c.934 0 1.752.809 1.752 1.73v8.677.009 107.581c0 .937-.818 1.759-1.752 1.759zm375.621.095-151.788 33.799c-13.172 2.913-30.074-2.752-39.155-5.798-1.47-.492-162.926-45.922-162.926-45.922v-83.722l71.725-16.224c41.164-9.307 59.871-8.719 85.762-7.899l29.23.943c11.614 1.336 15.504 8.483 15.259 14.77-.327 8.416-7.756 17.092-23.613 17.504l-33.345.868c-18.576.479-28.516 12.05-30.125 23.304-1.814 12.681 6.045 24.466 19.116 28.69l80.642 27.205c.536.181 1.087.315 1.647.403 3.302.519 6.515 1.157 9.621 1.776 9.619 1.914 19.563 3.894 31.485 2.052l96.104-14.772c9.042-1.391 11.222 4.819 11.736 7.553 1.121 5.982-1.959 13.373-11.375 15.47z"/><path d="m317.904 87.156c-5.523 0-10 4.478-10 10s4.478 10 10 10c35.934 0 69.318 19.449 87.124 50.758 1.843 3.241 5.223 5.059 8.701 5.059 1.676 0 3.375-.422 4.935-1.31 4.801-2.73 6.48-8.835 3.749-13.636-21.353-37.546-61.399-60.871-104.509-60.871z"/><path d="m389.202 266.233c5.523 0 9.986-4.478 9.986-10 0-5.523-4.491-10-10.014-10s-10 4.478-10 10c0 5.523 4.478 10 10 10z"/><path d="m481.517 198.577c-3.93-73.784-56.833-134.778-126.7-150.934.788-3.079 1.197-6.268 1.197-9.518-.001-21.022-17.097-38.125-38.11-38.125-21.029 0-38.137 17.103-38.137 38.126 0 3.254.409 6.445 1.199 9.523-69.853 16.164-122.743 77.15-126.674 150.922-14.658 3.933-25.486 17.344-25.486 33.244 0 18.978 15.42 34.417 34.374 34.417h62.963l14.442 13.439c5.759 6.852 13.226 10.617 21.102 10.624h.021c7.881 0 15.361-3.764 21.139-10.619l14.441-13.444h46.035c5.523 0 10-4.478 10-10 0-5.523-4.478-10-10-10h-24.55l30.974-28.834h122.857c7.941 0 14.403 6.468 14.403 14.417s-6.461 14.417-14.403 14.417h-37.574c-5.523 0-10 4.478-10 10 0 5.523 4.478 10 10 10h37.574c18.97 0 34.403-15.44 34.403-34.417-.004-15.892-10.83-29.298-25.49-33.238zm-163.613-178.577c9.985 0 18.109 8.131 18.109 18.125 0 2.144-.38 4.23-1.095 6.203-5.594-.58-11.269-.881-17.014-.881-5.752 0-11.435.302-17.036.883-.718-1.97-1.101-4.057-1.101-6.206 0-9.993 8.136-18.124 18.137-18.124zm-154.725 226.233c-7.926 0-14.373-6.468-14.373-14.417s6.447-14.417 14.373-14.417h10.483l30.986 28.834zm105.561 19.249c-.346.321-.667.667-.964 1.033-1.971 2.438-4.126 3.78-6.07 3.78-.001 0-.003 0-.004 0-1.937-.002-4.079-1.34-6.034-3.767-.3-.372-.626-.723-.976-1.048l-51.671-48.083h117.37zm-94.339-68.084c5.15-74.726 67.541-133.95 143.503-133.95s138.354 59.224 143.503 133.95z"/></g></g></svg>