<svg id="Capa_1" enable-background="new 0 0 512 512" height="512" viewBox="0 0 512 512" width="512" xmlns="http://www.w3.org/2000/svg"><g><g><path clip-rule="evenodd" d="m182.603 274.518-23.13-23.073c-5.102-5.124-13.492-5.124-18.623 0l-16.27 16.222c-5.131 5.124-5.131 13.504 0 18.629l23.13 23.073 23.102 23.102c5.131 5.124 13.521 5.124 18.651 0l16.27-16.251c5.102-5.096 5.102-13.476 0-18.6z" fill="#a0e5a5" fill-rule="evenodd"/></g><g><path clip-rule="evenodd" d="m247.231 209.969-23.13-23.074c-5.102-5.124-13.492-5.124-18.623 0l-16.27 16.251c-5.131 5.096-5.131 13.476 0 18.6l23.13 23.102 23.102 23.073c5.131 5.124 13.521 5.124 18.651 0l16.27-16.251c5.102-5.096 5.102-13.476 0-18.6z" fill="#ff7b79" fill-rule="evenodd"/></g><g><path clip-rule="evenodd" d="m313.361 143.919-26.957-26.924c-2.835-2.859-7.455-2.916-10.261-.113-17.291 17.27-16.951 45.666.822 63.417 17.744 17.723 46.175 18.091 63.494.793 2.778-2.774 2.721-7.389-.142-10.249z" fill="#ffa96b" fill-rule="evenodd"/></g><g><path clip-rule="evenodd" d="m383.147 74.218c-17.914-17.893-41.413-23.442-52.468-12.372-11.055 11.041-5.499 34.483 12.415 52.375s41.413 23.442 52.468 12.4 5.5-34.511-12.415-52.403z" fill="#ffd4b5" fill-rule="evenodd"/></g><g><path clip-rule="evenodd" d="m477.226 168.182c-17.914-17.893-41.413-23.441-52.468-12.4-11.055 11.07-5.499 34.511 12.415 52.404s41.413 23.442 52.467 12.4c11.056-11.042 5.5-34.512-12.414-52.404z" fill="#ffd4b5" fill-rule="evenodd"/></g><g><path clip-rule="evenodd" d="m407.439 237.883-26.957-26.924c-2.835-2.859-7.455-2.916-10.261-.142-17.291 17.298-16.951 45.694.822 63.417 17.744 17.751 46.175 18.119 63.494.821 2.778-2.774 2.721-7.389-.142-10.249z" fill="#ffa96b" fill-rule="evenodd"/></g><g><path clip-rule="evenodd" d="m341.309 303.933-23.13-23.073c-5.131-5.124-13.492-5.124-18.623 0l-16.27 16.222c-5.131 5.124-5.131 13.504 0 18.629l23.13 23.073 23.102 23.102c5.131 5.124 13.521 5.124 18.651 0l16.242-16.251c5.131-5.096 5.131-13.476 0-18.6z" fill="#ff7b79" fill-rule="evenodd"/></g><g><path clip-rule="evenodd" d="m276.682 368.482-23.13-23.073c-5.102-5.124-13.492-5.124-18.623 0l-16.27 16.222c-5.131 5.124-5.131 13.504 0 18.629l23.13 23.073 23.102 23.102c5.131 5.124 13.521 5.124 18.651 0l16.27-16.251c5.102-5.124 5.102-13.476 0-18.6z" fill="#a0e5a5" fill-rule="evenodd"/></g><g><path d="m212.8 323.296c9.015-9.006 9.023-23.688-.003-32.753l-16.045-16.016 15.582-15.548 16.038 16.018c4.52 4.515 10.455 6.771 16.393 6.771 5.936 0 11.873-2.257 16.392-6.77 0-.001 0-.001 0-.001l16.27-16.25c9.017-9.005 9.025-23.688-.002-32.753l-16.045-16.016 16.22-16.185c9.575 6.659 20.735 10.012 31.843 10.012 13.864 0 27.635-5.203 38.083-15.639 3.21-3.206 4.978-7.492 4.978-12.069 0-4.653-1.818-9.031-5.12-12.329l-19.873-19.849 16.005-15.986c11.935 9.383 25.107 14.344 36.735 14.344 8.723 0 16.577-2.788 22.378-8.582 5.638-5.631 8.619-13.368 8.619-22.374 0-11.861-5.26-25.062-14.374-36.673l18.111-18.068c3.91-3.9 3.917-10.232.017-14.142-3.902-3.91-10.233-3.918-14.143-.017l-18.13 18.087c-8.19-6.427-17.207-10.976-26.091-13.072-13.22-3.12-25.26-.443-33.024 7.332-5.639 5.632-8.619 13.366-8.619 22.367 0 11.853 5.262 25.048 14.378 36.657l-16.011 15.992-19.855-19.831c-3.274-3.303-7.637-5.128-12.284-5.14-4.577-.001-8.911 1.763-12.146 4.992-10.108 10.095-15.674 23.602-15.675 38.032 0 11.507 3.523 22.51 10.04 31.826l-16.218 16.182-16.037-16.008c-4.35-4.368-10.158-6.778-16.354-6.787-.011 0-.022 0-.034 0-6.198 0-12.017 2.402-16.388 6.768l-16.25 16.23c-4.377 4.348-6.792 10.155-6.801 16.353-.009 6.212 2.4 12.043 6.781 16.418l16.043 16.023-15.586 15.552-16.038-16.009c-4.35-4.367-10.158-6.778-16.355-6.786-.011 0-.021 0-.033 0-6.198 0-12.017 2.402-16.381 6.762l-16.277 16.229c-4.373 4.367-6.781 10.188-6.781 16.388 0 6.202 2.408 12.023 6.781 16.392l16.032 16.012-74.007 73.918c-9.031 9.037-23.746 9.034-32.799-.008-4.346-4.341-6.74-10.149-6.74-16.356 0-6.21 2.396-12.029 6.739-16.377l10.261-10.249c3.908-3.902 3.912-10.234.009-14.142-3.903-3.909-10.234-3.912-14.142-.009l-10.27 10.256c-8.123 8.133-12.597 18.971-12.597 30.52 0 11.554 4.477 22.388 12.606 30.507 8.428 8.418 19.491 12.626 30.55 12.625 11.06 0 22.116-4.209 30.524-12.625l74.015-73.926 16.049 16.03c4.52 4.513 10.456 6.77 16.392 6.77 5.937 0 11.873-2.257 16.392-6.771zm124.955-254.384c1.823-1.825 4.71-2.766 8.279-2.766 1.84 0 3.861.25 6.01.758 8.012 1.89 16.772 7.134 24.036 14.389 9.356 9.345 15.167 20.852 15.167 30.029 0 3.633-.926 6.399-2.752 8.224-6.119 6.108-23.812 2.105-38.333-12.399-9.356-9.345-15.168-20.843-15.168-30.009 0-3.629.926-6.393 2.761-8.226zm-56.455 57.12 49.981 49.92c-13.512 11.366-34.126 10.379-47.25-2.729-6.855-6.847-10.63-15.861-10.63-25.384 0-8.122 2.787-15.765 7.899-21.807zm-85.941 86.398c0-.486.118-1.417.915-2.209l16.27-16.25c.8-.799 1.755-.919 2.256-.919h.004c.492 0 1.433.118 2.231.92l46.238 46.155c1.214 1.219 1.224 3.265.019 4.468l-16.27 16.251c-1.225 1.223-3.294 1.223-4.518 0l-46.232-46.177c-.795-.795-.913-1.743-.913-2.239zm-12.963 112.965c-1.224 1.223-3.294 1.223-4.518 0l-22.84-22.812c-.086-.093-.163-.19-.253-.281-.095-.095-.197-.177-.295-.267l-22.843-22.815c-.796-.795-.915-1.744-.915-2.24 0-.494.119-1.443.908-2.232l16.277-16.229c.799-.798 1.754-.918 2.255-.918h.004c.492 0 1.433.118 2.232.92l46.238 46.154c1.215 1.22 1.224 3.267.02 4.47z"/><path d="m154.558 476.323-.933.933c-9.035 9.023-23.756 9.02-32.807 0-4.346-4.341-6.74-10.149-6.74-16.355 0-6.211 2.396-12.029 6.74-16.377l10.261-10.249c3.908-3.902 3.911-10.234.008-14.142s-10.234-3.913-14.142-.009l-10.269 10.257c-8.125 8.132-12.599 18.97-12.599 30.52 0 11.553 4.477 22.387 12.614 30.514 8.425 8.396 19.482 12.595 30.539 12.594 11.059-.001 22.118-4.202 30.53-12.604l.935-.935c3.906-3.904 3.908-10.236.003-14.143-3.902-3.907-10.234-3.907-14.14-.004z"/><path d="m509.08 136.404c-3.902-3.91-10.233-3.917-14.142-.017l-18.13 18.086c-20.893-16.426-45.584-19.285-59.125-5.758-13.515 13.533-10.656 38.189 5.766 59.045l-16.009 15.989-19.854-19.83c-6.717-6.776-17.66-6.87-24.436-.171-10.116 10.12-15.68 23.648-15.668 38.093.009 11.494 3.533 22.478 10.039 31.768l-16.224 16.204-16.049-16.029c-9.031-9.021-23.726-9.021-32.75-.007l-16.277 16.229c-4.373 4.367-6.781 10.188-6.781 16.39s2.408 12.022 6.781 16.39l16.032 16.012-15.579 15.56-16.034-16.005c-4.35-4.369-10.158-6.779-16.356-6.788-.011 0-.021 0-.032 0-6.199 0-12.019 2.403-16.382 6.762l-16.277 16.229c-4.373 4.368-6.781 10.189-6.78 16.392 0 6.2 2.408 12.021 6.781 16.388l16.032 16.012-9.541 9.53c-3.908 3.903-3.911 10.234-.008 14.143 1.953 1.955 4.514 2.933 7.075 2.933 2.557 0 5.115-.975 7.067-2.925l9.558-9.547 16.049 16.029c4.52 4.515 10.456 6.771 16.393 6.771s11.874-2.257 16.392-6.771l16.291-16.27c8.98-9.019 8.98-23.693-.022-32.733l-16.049-16.019 15.574-15.556 16.048 16.029c4.52 4.515 10.457 6.771 16.393 6.771s11.874-2.257 16.393-6.771c.002-.002.003-.004.005-.006l16.217-16.225c4.376-4.349 6.792-10.156 6.8-16.354.008-6.211-2.4-12.042-6.781-16.417l-16.032-16.012 16.23-16.211c9.579 6.671 20.746 10.031 31.859 10.031 13.858 0 27.622-5.201 38.069-15.637 3.21-3.206 4.978-7.492 4.978-12.069 0-4.653-1.818-9.031-5.12-12.329l-19.873-19.849 16.005-15.986c11.936 9.383 25.109 14.345 36.736 14.345 8.723 0 16.576-2.788 22.376-8.582 5.639-5.631 8.619-13.368 8.62-22.374 0-11.862-5.26-25.063-14.375-36.674l18.11-18.067c3.91-3.901 3.917-10.232.017-14.142zm-216.335 266.705-16.271 16.25c-1.225 1.224-3.294 1.222-4.518 0l-22.829-22.801c-.089-.097-.17-.198-.264-.292-.098-.098-.205-.183-.306-.277l-22.832-22.804c-.796-.795-.915-1.744-.915-2.238 0-.496.119-1.445.908-2.233l16.277-16.229c.799-.799 1.754-.919 2.255-.919h.004c.492.001 1.432.118 2.232.921l46.238 46.153c1.213 1.216 1.213 3.272.021 4.469zm65.514-66.759c0 .486-.118 1.418-.92 2.216l-16.242 16.25c-1.225 1.217-3.29 1.215-4.512-.006l-46.231-46.175c-.796-.795-.915-1.744-.915-2.239s.119-1.444.908-2.232l16.277-16.229c.608-.607 1.426-.911 2.244-.911s1.636.304 2.245.911l46.232 46.175c.797.797.915 1.745.914 2.24zm19.846-69.196c-6.844-6.824-10.617-15.819-10.625-25.329-.007-8.143 2.785-15.809 7.885-21.843l49.995 49.934c-13.513 11.369-34.126 10.372-47.255-2.762zm104.47-53.644c-6.119 6.107-23.812 2.104-38.334-12.4-14.504-14.486-18.512-32.148-12.416-38.253 1.837-1.835 4.718-2.758 8.245-2.758 8.214 0 19.929 5.009 30.089 15.157 9.356 9.345 15.168 20.852 15.168 30.03 0 3.634-.926 6.4-2.752 8.224z"/><path d="m168.72 141.944c2.205 0 4.424-.726 6.274-2.218 4.298-3.469 4.97-9.765 1.502-14.062l-.277-.334c-2.772-3.301-3.273-7.299-3.205-10.072.004-.163.004-.326 0-.489-.097-3.946 1.035-7.507 3.188-10.024l.192-.228c.055-.065.109-.132.162-.199l.062-.075c6.623-8.025 7.908-16.923 7.796-23.059.113-6.188-1.184-15.141-7.935-23.204-3.46-4.267-9.723-4.943-14.018-1.504-4.31 3.453-5.005 9.747-1.552 14.057.072.091.17.21.293.356 2.777 3.314 3.279 7.294 3.211 10.049-.004.163-.004.326 0 .489.098 3.983-.987 7.376-3.223 10.086-.071.086-.135.164-.192.235-5.314 6.217-8.146 14.47-7.985 23.266-.113 6.215 1.187 15.199 7.917 23.211 1.977 2.448 4.87 3.719 7.79 3.719z"/><path d="m99.722 137.762-.296.356c-6.727 7.988-8.02 16.965-7.894 23.184-.178 8.788 2.654 17.042 8.02 23.306 1.978 2.372 4.821 3.596 7.686 3.596 2.258 0 4.529-.761 6.399-2.32 4.242-3.537 4.813-9.843 1.276-14.084l-.205-.241c-2.187-2.553-3.285-6.005-3.177-9.983.005-.182.005-.363 0-.544-.075-2.757.418-6.734 3.193-10.029l.325-.391c6.698-7.989 7.997-16.947 7.883-23.141.111-6.136-1.173-15.034-7.796-23.06l-.062-.075c-3.398-4.296-9.629-5.062-13.969-1.698-4.364 3.385-5.16 9.666-1.775 14.03.09.116.217.274.381.473 2.236 2.71 3.32 6.103 3.223 10.086-.004.163-.004.326 0 .489.066 2.755-.436 6.735-3.212 10.046z"/><path d="m222.673 45.224c-.117.142-.216.264-.295.363l-.001-.001c-6.696 7.99-7.995 16.947-7.881 23.139-.112 6.137 1.173 15.036 7.797 23.062l.062.074c1.971 2.491 4.894 3.795 7.848 3.794 2.141 0 4.299-.685 6.122-2.099 4.364-3.385 5.158-9.666 1.773-14.03-.089-.115-.217-.273-.38-.471-2.236-2.709-3.32-6.102-3.222-10.085.004-.164.004-.327 0-.491-.068-2.754.434-6.733 3.21-10.046.123-.146.221-.266.293-.355.013-.017.026-.032.039-.049l.062-.075c6.623-8.025 7.908-16.925 7.796-23.061.113-6.188-1.185-15.14-7.935-23.202-3.46-4.266-9.723-4.942-14.018-1.504-4.31 3.453-5.005 9.747-1.552 14.057.072.091.17.21.293.356 2.777 3.314 3.279 7.294 3.211 10.048-.004.163-.004.326 0 .489.098 3.984-.986 7.377-3.222 10.087z"/><path d="m197.889 442.716c-4.94-2.469-10.961-.439-13.431 4.501-2.47 4.939-.468 10.946 4.472 13.416 1.436.718 2.961 1.058 4.464 1.058 3.668 0 7.2-2.025 8.952-5.53l.028-.057c2.471-4.94.455-10.919-4.485-13.388z"/></g></g></svg>