<svg id="Capa_1" enable-background="new 0 0 512 512" height="512" viewBox="0 0 512 512" width="512" xmlns="http://www.w3.org/2000/svg"><g><g><path clip-rule="evenodd" d="m44.52 294.536h422.96c-10.58 71.743-56.869 131.894-120.234 161.827h-182.492c-63.365-29.933-109.655-90.083-120.234-161.827z" fill="#a0e5a5" fill-rule="evenodd"/></g><g><path clip-rule="evenodd" d="m207.072 107.453h-48.105v57.627c27.854-7.483 48.105-30.443 48.105-57.627z" fill="#faf7f5" fill-rule="evenodd"/></g><g><path clip-rule="evenodd" d="m158.968 107.453h-87.418v73.869c0 12.019 9.842 21.855 21.868 21.855s21.84-9.836 21.84-21.855v-15.987c.142 11.905 9.927 21.6 21.868 21.6 11.998 0 21.84-9.836 21.84-21.855v-57.627z" fill="#ffd4b5" fill-rule="evenodd"/></g><g><path clip-rule="evenodd" d="m425.729 10h-109.059c-5.588 0-10.154 4.564-10.154 10.148v13.238 12.019c0 5.584 4.567 10.148 10.154 10.148h109.059c12.537 0 22.776-10.233 22.776-22.762 0-12.53-10.239-22.791-22.776-22.791z" fill="#ebddd9" fill-rule="evenodd"/></g><g><path clip-rule="evenodd" d="m44.491 247.68h423.017c4.935 0 8.991 4.053 8.991 9.014v28.856c0 4.932-4.056 8.986-8.991 8.986h-.028-422.96-.028c-4.935 0-8.991-4.053-8.991-8.986v-28.856c-.001-4.96 4.055-9.014 8.99-9.014z" fill="#faf7f5" fill-rule="evenodd"/></g><g><path clip-rule="evenodd" d="m164.754 456.363h182.493.028v32.966c0 6.973-5.701 12.671-12.65 12.671h-157.249c-6.977 0-12.679-5.698-12.679-12.671v-32.966z" fill="#faf7f5" fill-rule="evenodd"/></g><g><path d="m467.509 237.681h-423.018c-10.472 0-18.991 8.529-18.991 19.014v28.856c0 7.284 4.129 13.614 10.166 16.796 6.077 34.222 20.238 66.87 41.177 94.782 20.572 27.423 47.393 49.939 77.854 65.433v26.767c0 12.501 10.174 22.671 22.679 22.671h157.249c12.489 0 22.65-10.17 22.65-22.671v-26.753c30.472-15.494 57.304-38.015 77.883-65.447 20.939-27.912 35.099-60.56 41.176-94.781 6.037-3.183 10.166-9.513 10.166-16.797v-28.856c0-10.485-8.52-19.014-18.991-19.014zm-130.235 251.648c0 1.448-1.214 2.671-2.65 2.671h-157.249c-1.452 0-2.679-1.223-2.679-2.671v-22.966h162.578zm7.65-42.966h-177.848c-57.261-27.789-97.895-80.115-110.625-141.827h154.62c5.523 0 10-4.478 10-10s-4.477-10-10-10h-165.571v-26.855h421v26.855h-165.572c-5.522 0-10 4.478-10 10s4.478 10 10 10h154.621c-12.73 61.712-53.364 114.038-110.625 141.827z"/><path d="m417.976 325.836c-5.023-2.298-10.956-.088-13.253 4.935-14.829 32.424-40.312 59.551-71.755 76.383-4.869 2.606-6.703 8.667-4.097 13.536 1.803 3.366 5.256 5.282 8.825 5.282 1.593 0 3.209-.382 4.711-1.186 35.276-18.885 63.866-49.319 80.503-85.697 2.297-5.023.088-10.956-4.934-13.253z"/><path d="m93.419 213.178c13.235 0 24.606-8.122 29.404-19.645 4.305 2.172 9.162 3.403 14.305 3.403 14.929 0 27.485-10.335 30.911-24.229 13.062-4.662 24.397-12.38 33.052-22.584 9.743-11.487 15.201-25.083 15.899-39.498l12.342-18.351c2.797-4.17 5.226-7.986 7.575-11.678 14.362-22.571 20.964-32.948 59.609-36.473v1.281c0 11.109 9.041 20.147 20.154 20.147h109.059c18.073 0 32.776-14.697 32.776-32.762 0-18.08-14.703-32.79-32.776-32.79h-109.059c-11.113 0-20.154 9.038-20.154 20.147v3.91c-47.823 4.104-58.977 18.292-76.482 45.802-2.285 3.592-4.648 7.305-7.304 11.264l-10.983 16.33h-130.197c-5.523 0-10 4.478-10 10v73.869c0 17.567 14.297 31.857 31.869 31.857zm223.097-193.031c0-.057.084-.147.154-.147h109.059c7.045 0 12.776 5.737 12.776 12.79 0 7.037-5.731 12.762-12.776 12.762h-109.059c-.07 0-.154-.091-.154-.147zm-147.549 97.306h26.967c-3.204 13.913-13 25.9-26.967 33.112zm-87.417 0h67.417v47.627c0 6.537-5.312 11.855-11.84 11.855-6.544 0-11.869-5.318-11.869-11.855v-14.711c0-5.522-4.477-10-10-10s-10 4.478-10 10v30.953c0 6.537-5.312 11.855-11.84 11.855-6.544 0-11.869-5.318-11.869-11.855v-63.869z"/><path d="m441.628 170.064c4.723-6.635 6.723-14.549 6.724-22.615.001-7.069-1.459-13.983-5.099-20.115-.986-1.661-2.109-3.242-3.352-4.72-4.566-5.677-13.822-4.549-16.873 2.079-1.397 3.035-1.172 6.662.604 9.493.996 1.587 7.035 8.813 3.702 20.422-1.074 3.74-4.214 6.307-6.202 9.581-3.712 6.112-5.302 13.1-5.295 20.2.006 7.04 1.371 13.894 4.947 20.038 1.961 3.369 4.431 7.073 8.334 8.293 3.798 1.187 8.042-.041 10.62-3.073 2.157-2.538 2.907-6.087 1.972-9.283-.507-1.732-1.662-2.913-2.585-4.422-6.291-10.276-1.608-20.299-.603-21.835.931-1.421 2.12-2.658 3.106-4.043z"/><path d="m368.325 174.364c.921-1.487 2.136-2.757 3.157-4.173 4.739-6.576 6.863-14.529 6.843-22.573-.018-7.143-1.428-14.082-5.121-20.283-.993-1.669-2.134-3.228-3.365-4.727-4.604-5.71-13.943-4.517-16.924 2.207-1.356 3.059-1.085 6.677.734 9.489.998 1.543 3.767 4.029 4.56 10.042.45 3.409.218 7.138-.963 10.39-1.29 3.552-4.132 6.15-6.071 9.332-3.743 6.14-5.384 13.176-5.368 20.321.015 7.09 1.402 13.973 5.016 20.155 1.908 3.265 4.275 6.843 8.024 8.108 3.692 1.246 7.868.189 10.527-2.661 2.274-2.438 3.184-5.952 2.394-9.189-.421-1.725-1.319-3.103-2.399-4.48-1.13-1.44-2.014-3.056-2.606-4.789-1.239-3.63-1.336-8.015-.568-11.758.392-1.911 1.102-3.752 2.13-5.411z"/><path d="m306.162 161.041c2.052-5.942 2.537-12.421 1.891-18.656-.754-7.277-3.568-14.125-8.235-19.767-3.468-4.317-9.999-4.948-14.235-1.385-4.207 3.538-4.645 9.819-1.246 14.048 3.681 4.579 4.593 10.488 3.686 16.215-.465 2.934-1.638 5.64-3.528 7.936-1.929 2.343-3.632 4.817-4.968 7.548-2.673 5.463-3.878 11.565-3.774 17.631-.113 6.612 1.275 16.198 8.409 24.751l.035.041c1.975 2.482 4.89 3.776 7.833 3.775 2.181 0 4.378-.71 6.218-2.174 2.241-1.782 3.629-4.493 3.763-7.353.067-1.427-.171-2.858-.701-4.185-.556-1.392-1.475-2.445-2.354-3.631-1.962-2.649-2.969-5.851-3.169-9.123-.177-2.891-.787-7.837 5.847-16.782 1.988-2.681 3.439-5.735 4.528-8.889z"/><path d="m256 284.536c-5.523 0-10 4.478-10 10s4.477 10 10 10h.057c5.522 0 9.972-4.478 9.972-10s-4.507-10-10.029-10z"/></g></g></svg>