<svg id="Capa_1" enable-background="new 0 0 511.996 511.996" height="512" viewBox="0 0 511.996 511.996" width="512" xmlns="http://www.w3.org/2000/svg"><g><g><path clip-rule="evenodd" d="m158.282 395.065c-13.971 8.442-36.471 8.442-50.441 0l-87.394-52.916c-5.016-3.059-8.246-6.77-9.635-10.651-.34-.906-.567-1.841-.68-2.748v91.215c0 2.521.198 4.674.68 6.572 1.162 4.674 4.024 7.818 9.635 11.218l87.394 52.916c13.971 8.47 36.471 8.47 50.441 0l87.366-52.916c7.906-4.787 10.343-9.093 10.343-17.79v-91.215c-.652 4.844-4.137 9.631-10.343 13.399z" fill="#ebddd9" fill-rule="evenodd"/></g><g><path clip-rule="evenodd" d="m246.866 313.226-89.803-54.389c-12.554-7.592-35.451-7.592-48.004 0l-89.803 54.389c-4.364 2.634-7.169 5.892-8.445 9.348-.765 2.011-.992 4.108-.68 6.175.113.906.34 1.841.68 2.748 1.389 3.881 4.619 7.592 9.635 10.651l87.394 52.916c13.971 8.442 36.471 8.442 50.441 0l87.366-52.916c6.206-3.768 9.692-8.555 10.343-13.399-.142-1.161-.142-2.323 0-3.456-.622-4.447-3.655-8.752-9.124-12.067zm-56.647 14.107-53.077 32.152c-1.899.708-6.263.708-8.161 0l-53.105-32.152 53.587-32.463c1.87-.453 5.328-.453 7.169 0z" fill="#faf7f5" fill-rule="evenodd"/></g><g><path clip-rule="evenodd" d="m129.462 294.87-53.587 32.463 53.105 32.152c1.899.708 6.263.708 8.161 0l53.077-32.152-53.587-32.463c-1.841-.453-5.298-.453-7.169 0z" fill="#ffbdbc" fill-rule="evenodd"/></g><g><path clip-rule="evenodd" d="m375.35 294.87-53.587 32.463 53.105 32.152c1.87.708 6.263.708 8.133 0l53.105-32.152-53.586-32.463c-1.842-.453-5.328-.453-7.17 0z" fill="#ffbdbc" fill-rule="evenodd"/></g><g><path clip-rule="evenodd" d="m492.754 313.226-89.831-54.389c-12.525-7.592-35.451-7.592-48.004 0l-89.803 54.389c-5.469 3.314-8.501 7.62-9.125 12.068-.142 1.133-.142 2.295 0 3.456.68 4.844 4.137 9.631 10.343 13.399l87.394 52.916c13.971 8.442 36.443 8.442 50.413 0l87.394-52.916c6.206-3.768 9.663-8.583 10.343-13.399.766-5.637-2.238-11.331-9.124-15.524zm-56.647 14.107-53.105 32.152c-1.87.708-6.263.708-8.133 0l-53.105-32.152 53.587-32.463c1.842-.453 5.328-.453 7.169 0z" fill="#faf7f5" fill-rule="evenodd"/></g><g><path clip-rule="evenodd" d="m491.535 342.149-87.394 52.916c-13.971 8.442-36.443 8.442-50.413 0l-87.394-52.916c-6.206-3.768-9.663-8.555-10.343-13.399v91.215c0 8.697 2.437 13.002 10.343 17.79l87.394 52.916c13.971 8.47 36.443 8.47 50.413 0l87.394-52.916c7.906-4.787 10.343-9.093 10.343-17.79v-91.215c-.679 4.816-4.137 9.631-10.343 13.399z" fill="#ebddd9" fill-rule="evenodd"/></g><g><path clip-rule="evenodd" d="m332.192 124.933h-299.702c-10.372 0-19.156 7.139-21.678 16.742-.482 1.813-.737 3.739-.737 5.694s.255 3.853.737 5.694c2.522 9.603 11.307 16.713 21.678 16.713h299.701v-44.843z" fill="#ffd4b5" fill-rule="evenodd"/></g><g><path clip-rule="evenodd" d="m332.192 124.933h47.976v44.843h-47.976z" fill="#ffa96b" fill-rule="evenodd"/></g><g><path clip-rule="evenodd" d="m380.168 124.933h47.948v44.843h-47.948z" fill="#ffa96b" fill-rule="evenodd"/></g><g><path clip-rule="evenodd" d="m479.492 124.933h-51.377v44.843h51.377c12.327 0 22.444-10.085 22.444-22.407-.001-12.323-10.117-22.436-22.444-22.436z" fill="#ffd4b5" fill-rule="evenodd"/></g><g><path clip-rule="evenodd" d="m332.192 15.022h-299.702c-10.372 0-19.156 7.139-21.678 16.742-.482 1.813-.737 3.711-.737 5.666 0 1.983.255 3.881.737 5.694 2.522 9.603 11.307 16.742 21.678 16.742h299.701v-44.844z" fill="#ffd4b5" fill-rule="evenodd"/></g><g><path clip-rule="evenodd" d="m332.192 15.022h47.976v44.842h-47.976z" fill="#ffa96b" fill-rule="evenodd"/></g><g><path clip-rule="evenodd" d="m380.168 15.022h47.948v44.842h-47.948z" fill="#ffa96b" fill-rule="evenodd"/></g><g><path clip-rule="evenodd" d="m479.492 15.022h-51.377v44.842h51.377c12.327 0 22.444-10.085 22.444-22.435-.001-12.322-10.117-22.407-22.444-22.407z" fill="#ffd4b5" fill-rule="evenodd"/></g><g><path d="m195.4 318.78-53.587-32.463c-.867-.525-1.809-.916-2.793-1.158-3.379-.831-8.502-.835-11.912-.008-.997.241-1.95.635-2.828 1.166l-53.587 32.463c-2.991 1.813-4.818 5.056-4.818 8.554s1.828 6.742 4.821 8.554l53.105 32.152c.534.323 1.099.597 1.685.814 2.088.779 4.831 1.169 7.574 1.169 2.744 0 5.487-.39 7.575-1.169.587-.219 1.151-.491 1.688-.816l53.077-32.152c2.991-1.812 4.818-5.055 4.818-8.553.001-3.497-1.826-6.741-4.818-8.553zm-61.916 31.229c-.272.012-.571.012-.848 0l-37.457-22.679 37.634-22.798c.154-.002.313-.003.468 0l37.639 22.801z"/><path d="m441.288 318.78-53.587-32.463c-.867-.525-1.809-.916-2.793-1.158-3.403-.836-8.541-.836-11.946 0-.984.242-1.926.633-2.793 1.158l-53.587 32.463c-2.991 1.813-4.818 5.056-4.818 8.554s1.828 6.741 4.82 8.554l53.104 32.152c.521.314 1.069.582 1.639.798 2.063.78 4.835 1.171 7.607 1.171s5.545-.391 7.607-1.171c.569-.216 1.117-.483 1.638-.798l53.105-32.152c2.993-1.812 4.821-5.056 4.821-8.554s-1.826-6.741-4.817-8.554zm-61.944 31.23c-.266.01-.553.01-.818 0l-37.458-22.679 37.634-22.799c.154-.002.313-.002.468 0l37.634 22.798z"/><path d="m497.934 304.672-89.827-54.386c-15.803-9.578-42.528-9.578-58.368-.002l-89.803 54.389c-.003.002-.007.004-.01.006-1.577.958-2.873 2.01-3.959 3.135-1.009-1.104-2.289-2.151-3.92-3.141l-89.809-54.392c-15.817-9.564-42.539-9.565-58.36.003l-89.803 54.389c0 .001-.001.001-.002.001-8.939 5.418-14.068 13.555-14.073 22.327 0 .775.053 1.544.132 2.311v90.653c0 12.179 4.381 19.809 15.135 26.343l87.39 52.913c8.526 5.169 19.466 7.753 30.406 7.753 10.938 0 21.879-2.584 30.4-7.75l87.364-52.916c1.924-1.165 3.635-2.367 5.164-3.623 1.528 1.255 3.24 2.458 5.164 3.623l87.39 52.913c8.522 5.167 19.457 7.75 30.393 7.749 10.934 0 21.867-2.582 30.385-7.746l87.394-52.916c10.771-6.521 15.164-14.153 15.164-26.343v-90.779c.069-.717.117-1.438.117-2.163.002-8.774-5.119-16.918-14.064-22.351zm-251.943 115.293c0 5.001-.409 6.139-5.524 9.235l-87.369 52.919c-10.859 6.584-29.212 6.583-40.077-.003l-87.381-52.908c-5.101-3.099-5.508-4.237-5.508-9.243v-66.317l82.537 49.975c8.521 5.148 19.454 7.723 30.39 7.723 10.938 0 21.878-2.576 30.404-7.728l82.528-49.987zm-5.524-86.37-87.356 52.911c-10.866 6.566-29.229 6.565-40.09.005l-87.383-52.909c-4.162-2.528-5.639-5.13-5.638-6.59.001-1.593 1.66-3.549 4.438-5.232l-.002.001 89.797-54.386c9.326-5.64 28.329-5.639 37.649-.003l89.793 54.382c2.776 1.687 4.434 3.646 4.433 5.24-.001 1.459-1.479 4.058-5.641 6.581zm251.412 86.37c0 5.001-.409 6.139-5.523 9.235l-87.398 52.919c-10.852 6.577-29.191 6.579-40.049-.003l-87.395-52.916c-5.113-3.097-5.522-4.234-5.522-9.235v-66.334l82.565 49.992c8.518 5.146 19.444 7.719 30.376 7.719 10.931 0 21.867-2.574 30.389-7.724l82.558-49.988v66.335zm-5.524-86.37-87.386 52.911c-10.858 6.561-29.209 6.562-40.062.005l-87.391-52.914c-4.165-2.524-5.644-5.124-5.644-6.583-.001-1.594 1.654-3.552 4.429-5.237l89.791-54.382c9.336-5.646 28.335-5.647 37.649-.002l89.82 54.381c2.776 1.687 4.434 3.646 4.433 5.24.001 1.459-1.477 4.058-5.639 6.581z"/><path d="m32.49 69.865h447.002c17.89 0 32.443-14.551 32.443-32.436 0-17.869-14.554-32.407-32.443-32.407h-447.002c-17.874 0-32.415 14.538-32.415 32.407 0 17.885 14.541 32.436 32.415 32.436zm405.625-44.843h41.377c6.861 0 12.443 5.565 12.443 12.407 0 6.857-5.582 12.436-12.443 12.436h-41.377zm-47.947 0h27.947v24.843h-27.947zm-47.977 0h27.977v24.843h-27.977zm-309.701 0h289.701v24.843h-289.701c-6.846 0-12.415-5.578-12.415-12.436 0-6.841 5.57-12.407 12.415-12.407z"/><path d="m32.49 179.775h447.002c17.89 0 32.443-14.537 32.443-32.406 0-17.885-14.554-32.436-32.443-32.436h-227.129c-5.522 0-10 4.478-10 10s4.478 10 10 10h69.828v24.842h-289.701c-6.846 0-12.415-5.565-12.415-12.406 0-6.857 5.569-12.436 12.415-12.436h130.099c5.522 0 10-4.478 10-10s-4.478-10-10-10h-130.099c-17.874 0-32.415 14.551-32.415 32.436 0 17.869 14.541 32.406 32.415 32.406zm405.625-44.841h41.377c6.861 0 12.443 5.578 12.443 12.436 0 6.841-5.582 12.406-12.443 12.406h-41.377zm-47.947 0h27.947v24.842h-27.947zm-47.977 0h27.977v24.842h-27.977z"/><path d="m197.477 124.934c0 5.522 4.478 10 10 10h.028c5.522 0 9.986-4.478 9.986-10s-4.492-10-10.015-10-9.999 4.477-9.999 10z"/></g></g></svg>