<svg id="Capa_1" enable-background="new 0 0 512 512" height="512" viewBox="0 0 512 512" width="512" xmlns="http://www.w3.org/2000/svg"><g><g><path clip-rule="evenodd" d="m171.651 329.441c0 15.575-12.644 28.205-28.235 28.205s-28.235-12.63-28.235-28.205 12.644-28.205 28.235-28.205 28.235 12.63 28.235 28.205zm-107.13 86.059h404.736c-18.03 0-32.771-14.725-32.771-32.736v-13.111c0-7.249-.397-14.414-1.162-21.465-4.678-43.242-23.359-82.293-51.396-112.536-18.739-20.219-41.673-36.502-67.413-47.49-23.785-10.138-49.979-15.773-77.477-15.773-25.287 0-49.44 4.757-71.637 13.394-63.274 24.608-110.73 80.877-122.807 149.322-1.984 11.214-3.033 22.768-3.033 34.548v22.909c-.003 12.602 10.345 22.938 22.96 22.938zm233.027-117.039c0-12.941 10.517-23.419 23.473-23.419 12.927 0 23.444 10.478 23.444 23.419s-10.517 23.419-23.444 23.419c-12.956 0-23.473-10.478-23.473-23.419z" fill="#ffea60" fill-rule="evenodd"/></g><g><path clip-rule="evenodd" d="m436.485 382.764c0 18.01 14.741 32.736 32.771 32.736 18.001 0 32.743-14.754 32.743-32.736v-13.31c0-22.909-3.969-45.054-11.283-65.641-7.966 23.957-29.426 41.741-55.394 44.375.765 7.051 1.162 14.216 1.162 21.465v13.111z" fill="#fff2a0" fill-rule="evenodd"/></g><g><path clip-rule="evenodd" d="m297.548 298.461c0 12.941 10.517 23.419 23.473 23.419 12.927 0 23.444-10.478 23.444-23.419s-10.517-23.419-23.444-23.419c-12.956 0-23.473 10.477-23.473 23.419z" fill="#fff2a0" fill-rule="evenodd"/></g><g><path clip-rule="evenodd" d="m115.18 329.441c0 15.575 12.644 28.205 28.235 28.205s28.235-12.63 28.235-28.205-12.644-28.205-28.235-28.205-28.235 12.63-28.235 28.205z" fill="#fff2a0" fill-rule="evenodd"/></g><g><path clip-rule="evenodd" d="m12.558 267.396c-8.788 27.667 5.471 57.118 32.034 67.709 12.077-68.445 59.532-124.713 122.807-149.322-4.281-11.214-12.162-20.927-22.707-27.384-3.742-2.265-7.796-4.134-12.162-5.522-24.323-7.703-50.007 2.322-63.104 22.853-18.087 4.418-33.48 17.869-39.518 36.87-3.175 10.053-3.317 20.304-.964 29.847-7.428 6.429-13.211 14.896-16.386 24.949z" fill="#a0e5a5" fill-rule="evenodd"/></g><g><path clip-rule="evenodd" d="m167.399 185.783c22.197-8.637 46.35-13.394 71.637-13.394 27.498 0 53.693 5.635 77.477 15.773 1.899-18.633-5.84-36.276-19.391-47.688-6.095-5.097-13.352-8.977-21.432-11.072-7.257-16.396-22.339-28.941-41.361-32.141-25.145-4.219-49.185 9.317-59.277 31.461-13.466 5.38-24.55 15.943-30.362 29.677 10.547 6.457 18.428 16.17 22.709 27.384z" fill="#d0f2d2" fill-rule="evenodd"/></g><g><path clip-rule="evenodd" d="m316.513 188.162c25.741 10.987 48.675 27.27 67.413 47.49 11.283-10.619 26.364-17.246 42.977-17.699.595-3.257.907-6.626.907-10.053-.085-28.715-22.169-52.247-50.262-54.711-9.894-14.952-26.875-24.778-46.152-24.75-12.955.028-24.862 4.531-34.274 12.035 13.551 11.412 21.291 29.054 19.391 47.688z" fill="#a0e5a5" fill-rule="evenodd"/></g><g><path clip-rule="evenodd" d="m383.927 235.651c28.037 30.244 46.719 69.295 51.396 112.536 25.967-2.634 47.428-20.417 55.394-44.375 2.154-6.485 3.317-13.394 3.317-20.587 0-36.049-29.256-65.302-65.372-65.302-.595 0-1.162.028-1.758.028-16.613.454-31.695 7.081-42.977 17.7z" fill="#ff7b79" fill-rule="evenodd"/></g><g><path d="m161.276 260.519c5.523 0 9.972-4.477 9.972-10s-4.506-10-10.029-10-10.001 4.477-10.001 10 4.477 10 10.001 10z"/><path d="m219.992 367.047c0 5.523 4.477 10 10.001 10h.057c5.523 0 9.972-4.477 9.972-10s-4.506-10-10.029-10-10.001 4.477-10.001 10z"/><path d="m370.602 377.671c5.523 0 9.972-4.477 9.972-10s-4.506-10-10.029-10-10.001 4.477-10.001 10 4.478 10 10.001 10z"/><path d="m272.034 247.039c5.523 0 9.986-4.477 9.986-10s-4.492-10-10.014-10c-5.523 0-10.001 4.477-10.001 10s4.478 10 10.001 10z"/><path d="m227.838 285.006c-5.523 0-10.001 4.477-10.001 10s4.477 10 10.001 10h.057c5.523 0 9.972-4.477 9.972-10s-4.505-10-10.029-10z"/><path d="m149.029 405.5c-5.523 0-10.001 4.477-10.001 10s4.477 10 10.001 10h.057c5.523 0 9.972-4.477 9.972-10s-4.506-10-10.029-10z"/><path d="m143.415 291.236c-21.083 0-38.236 17.139-38.236 38.205s17.153 38.205 38.236 38.205c21.084 0 38.236-17.139 38.236-38.205s-17.152-38.205-38.236-38.205zm0 56.41c-10.054 0-18.234-8.167-18.234-18.205s8.18-18.205 18.234-18.205 18.235 8.167 18.235 18.205-8.18 18.205-18.235 18.205z"/><path d="m354.465 298.461c0-18.427-15.003-33.419-33.445-33.419-18.457 0-33.473 14.992-33.473 33.419s15.016 33.419 33.473 33.419c18.442 0 33.445-14.992 33.445-33.419zm-46.916 0c0-7.399 6.043-13.419 13.472-13.419 7.413 0 13.443 6.02 13.443 13.419s-6.031 13.419-13.443 13.419c-7.429 0-13.472-6.02-13.472-13.419z"/><path d="m501.227 303.605c1.846-6.573 2.807-13.421 2.807-20.38 0-38.43-28.972-70.207-66.237-74.729.002-.209.014-.418.014-.627-.049-16.344-6.187-31.955-17.285-43.959-9.944-10.754-23.083-17.784-37.394-20.098-12.309-15.975-31.282-25.375-51.66-25.375-.032 0-.064 0-.097 0-12.043.026-23.899 3.449-34.103 9.739-4.507-2.941-9.374-5.332-14.508-7.084-9.486-17.851-26.658-30.31-46.779-33.695-27.726-4.648-55.234 9.077-68.28 33.623-11.189 5.292-20.684 13.735-27.277 24.101-1.598-.646-3.217-1.254-4.879-1.779-26.807-8.491-55.967 1.249-72.317 23.724-20.455 6.295-36.321 21.938-42.861 42.52-3.01 9.531-3.785 19.587-2.299 29.406-6.878 7.163-12.035 15.837-15.046 25.375-9.435 29.705 3.866 61.791 30.537 76.538-1.311 9.399-2.005 18.992-2.005 28.746v22.91c0 18.162 14.787 32.938 32.963 32.938h39.603c5.523 0 10.001-4.477 10.001-10s-4.477-10-10.001-10h-39.603c-7.147 0-12.962-5.804-12.962-12.937v-22.91c0-103.257 84.102-187.264 187.477-187.264 103.359 0 187.448 84.006 187.448 187.264v13.112c0 8.349 2.408 16.146 6.568 22.735h-239.119c-5.523 0-10.001 4.477-10.001 10s4.477 10 10.001 10h275.324c23.569 0 42.743-19.171 42.743-42.736v-13.31c0-22.493-3.628-44.627-10.773-65.848zm-463.576 16.147c-14.668-11.268-21.397-30.959-15.558-49.344 2.504-7.928 7.136-14.982 13.395-20.398 2.842-2.46 4.065-6.306 3.165-9.956-1.987-8.061-1.714-16.512.785-24.425 4.806-15.125 16.904-26.409 32.36-30.184 2.503-.611 4.673-2.165 6.058-4.337 10.954-17.171 32.195-24.857 51.665-18.694 10.088 3.182 18.53 9.674 24.157 18.336-57.2 25.895-100.623 76.984-116.027 139.002zm201.385-157.364c-23.248 0-45.615 3.84-66.5 10.917-3.886-6.889-8.938-12.951-14.927-17.936 5.051-7.738 12.461-13.888 21.155-17.362 2.391-.956 4.322-2.796 5.39-5.139 8.447-18.536 28.394-29.124 48.518-25.747 15.034 2.529 27.698 12.371 33.875 26.327 1.233 2.786 3.67 4.859 6.619 5.629 16.71 4.363 29.15 18.057 32.636 34.325-20.962-7.137-43.419-11.014-66.766-11.014zm87.739 19.48c-.151-12.941-4.164-25.63-11.632-36.359-.728-1.046-1.495-2.06-2.279-3.057 5.769-2.627 12.039-3.998 18.547-4.012h.067c15.229 0 29.33 7.574 37.729 20.268 1.682 2.542 4.431 4.178 7.466 4.444 23.382 2.05 41.066 21.3 41.136 44.748 0 .27-.013.539-.018.809-11.988 1.735-23.335 6.338-33.177 13.439-16.751-16.506-36.29-30.189-57.839-40.28zm71.527 55.131c8.968-5.892 19.462-9.075 30.359-9.075 30.531 0 55.371 24.808 55.371 55.302 0 5.914-.932 11.614-2.642 16.968-.143.37-.269.747-.367 1.133-5.82 16.945-19.622 30.188-37.213 35.111-6.061-37.431-22.185-71.533-45.508-99.439zm93.697 145.765c0 12.536-10.202 22.735-22.742 22.735-12.557 0-22.771-10.199-22.771-22.735v-13.112c0-4.419-.156-8.802-.43-13.154 14.693-3.465 28.071-11.294 38.383-22.625 1.167-1.282 2.268-2.611 3.337-3.96 2.806 12.943 4.223 26.171 4.223 39.54z"/></g></g></svg>