<svg id="Capa_1" enable-background="new 0 0 512 512" height="512" viewBox="0 0 512 512" width="512" xmlns="http://www.w3.org/2000/svg"><g><g><path clip-rule="evenodd" d="m156.01 213.228c42.491 0 79.652 22.746 99.976 56.737 20.324-33.991 57.514-56.737 100.004-56.737 1.134 0 2.239 0 3.345.057 8.334-16.032 13.067-34.246 13.067-53.564-21.401-15.381-38.806 0-38.806 0-21.401 15.409-38.806 0-38.806 0-21.401-15.381-38.806 0-38.806 0-21.401 15.409-38.806 0-38.806 0-21.401-15.381-38.806 0-38.806 0-21.401 15.409-38.806 0-38.806 0 .028 19.318 4.734 37.532 13.096 53.564 1.109-.057 2.214-.057 3.348-.057z" fill="#ffd4b5" fill-rule="evenodd"/></g><g><path clip-rule="evenodd" d="m255.986 159.721s17.404-15.381 38.806 0c0 0 17.404 15.409 38.806 0 0 0 17.404-15.381 38.806 0 0 0 0-.028 0-.057 0-21.613-5.896-41.837-16.186-59.173-20.267-34.218-57.571-57.133-100.231-57.133-64.289 0-116.417 52.063-116.417 116.306v.057s17.404 15.409 38.806 0c0 0 17.404-15.381 38.806 0-.002 0 17.403 15.409 38.804 0z" fill="#ffa96b" fill-rule="evenodd"/></g><g><path clip-rule="evenodd" d="m156.01 329.591s17.376-15.381 38.777 0c0 0 17.404 15.409 38.806 0 0 0 2.239-1.954 6.038-3.767.652-20.366 6.548-39.43 16.356-55.859-20.324-33.991-57.485-56.737-99.976-56.737-1.134 0-2.239 0-3.345.057-62.758 1.756-113.072 53.139-113.072 116.278v.028s17.376 15.409 38.806 0c0 0 17.376-15.381 38.806 0-.002 0 17.374 15.409 38.804 0z" fill="#ffa96b" fill-rule="evenodd"/></g><g><path clip-rule="evenodd" d="m239.574 329.591s17.404 15.409 38.806 0c0 0 17.404-15.381 38.806 0 0 0 17.404 15.409 38.806 0 0 0 17.404-15.381 38.806 0 0 0 17.376 15.409 38.806 0 0 0 17.376-15.381 38.806 0v-.028c0-63.138-50.314-114.521-113.072-116.278-1.105-.057-2.211-.057-3.345-.057-42.491 0-79.68 22.746-100.004 56.737-9.808 16.429-15.704 35.492-16.356 55.859-.028 1.246-.057 2.493-.057 3.739v.028z" fill="#ffa96b" fill-rule="evenodd"/></g><g><path clip-rule="evenodd" d="m258.792 393.579h194.396c12.132-18.355 19.219-40.336 19.219-63.988-21.43-15.381-38.806 0-38.806 0-21.43 15.409-38.806 0-38.806 0-21.401-15.381-38.806 0-38.806 0-21.401 15.409-38.806 0-38.806 0-21.401-15.381-38.806 0-38.806 0-21.401 15.409-38.806 0-38.806 0 .031 23.652 7.089 45.633 19.221 63.988z" fill="#ffd4b5" fill-rule="evenodd"/></g><g><path clip-rule="evenodd" d="m58.812 393.579h199.98c-12.132-18.355-19.19-40.336-19.219-63.988v-.028c0-1.246.028-2.493.057-3.739-3.798 1.813-6.038 3.767-6.038 3.767-21.401 15.409-38.806 0-38.806 0-21.401-15.381-38.777 0-38.777 0-21.43 15.409-38.806 0-38.806 0-21.43-15.381-38.806 0-38.806 0-21.43 15.409-38.806 0-38.806 0 .002 23.652 7.089 45.633 19.221 63.988z" fill="#ffd4b5" fill-rule="evenodd"/></g><g><path clip-rule="evenodd" d="m33.697 457.539h444.578l23.725-63.96h-48.812-194.396-199.98-48.812z" fill="#faf7f5" fill-rule="evenodd"/></g><g><path clip-rule="evenodd" d="m49.996 501.5h412.008l16.271-43.961h-444.578z" fill="#ff7b79" fill-rule="evenodd"/></g><g><path d="m356.222 110.492c-2.846 0-5.673-1.208-7.65-3.555-3.56-4.223-3.022-10.531 1.2-14.091l106.751-89.991c4.222-3.561 10.531-3.022 14.091 1.2 3.56 4.223 3.022 10.531-1.2 14.091l-106.751 89.991c-1.877 1.582-4.165 2.355-6.441 2.355z"/></g><g><path d="m256.014 100.294h-.057c-5.523 0-10-4.477-10-10s4.477-10 10-10 10.028 4.477 10.028 10-4.448 10-9.971 10z"/></g><g><path d="m306.81 116.95h-.057c-5.523 0-10-4.477-10-10s4.477-10 10-10 10.028 4.477 10.028 10-4.448 10-9.971 10z"/></g><g><path d="m205.218 116.95h-.057c-5.523 0-10-4.477-10-10s4.477-10 10-10 10.028 4.477 10.028 10-4.448 10-9.971 10z"/></g><g><path d="m345.962 260.164c0 5.523 4.477 10 10 10h.057c5.523 0 9.972-4.477 9.972-10s-4.505-10-10.028-10-10.001 4.477-10.001 10z"/><path d="m406.758 286.82h.057c5.523 0 9.972-4.477 9.972-10s-4.505-10-10.028-10-10 4.477-10 10 4.476 10 9.999 10z"/><path d="m305.166 266.82c-5.523 0-10 4.477-10 10s4.477 10 10 10h.057c5.523 0 9.972-4.477 9.972-10s-4.506-10-10.029-10z"/><path d="m155.982 270.164h.028c5.523 0 9.986-4.477 9.986-10s-4.491-10-10.014-10-10 4.477-10 10 4.477 10 10 10z"/><path d="m206.777 286.82h.057c5.523 0 9.972-4.477 9.972-10s-4.505-10-10.028-10-10 4.477-10 10 4.477 10 9.999 10z"/><path d="m105.186 286.82h.028c5.523 0 9.986-4.477 9.986-10s-4.491-10-10.014-10-10 4.477-10 10 4.477 10 10 10z"/><path d="m510.209 387.867c-1.87-2.687-4.936-4.288-8.208-4.288h-31.728c7.917-16.692 12.075-34.945 12.128-53.652.001-.037.001-.074.002-.111 0-.085.005-.169.005-.254 0-63.479-47.095-116.165-108.201-125.017 5.44-14.252 8.196-29.29 8.196-44.881 0-69.646-56.71-126.306-126.416-126.306s-126.418 56.661-126.418 126.306c0 15.571 2.764 30.609 8.22 44.881-61.104 8.854-108.196 61.539-108.196 125.017 0 18.86 4.16 37.24 12.123 54.017h-31.716c-3.273 0-6.339 1.602-8.208 4.288-1.869 2.687-2.306 6.118-1.168 9.187l39.996 107.921c1.454 3.922 5.194 6.525 9.377 6.525h412.008c4.183 0 7.923-2.603 9.377-6.525l39.996-107.921c1.136-3.069.7-6.5-1.169-9.187zm-48.987-74.168c-14.896-3.221-27.654 2.825-33.795 8.012-13.608 9.542-23.936 2.107-26.031.366-.287-.266-.432-.368-.764-.606-21.656-15.563-42.417-6.847-50.816.241-13.591 9.547-23.942 2.101-26.039.359-.284-.262-.428-.363-.757-.6-21.658-15.565-42.418-6.847-50.816.24-9.828 6.903-17.958 4.922-22.502 2.637 2.731-56.22 49.359-101.119 106.287-101.119 53.285-.001 97.545 39.335 105.233 90.47zm1.025 21.408c-.887 17.155-5.881 33.721-14.61 48.472h-183.304c-6.936-11.721-11.512-24.588-13.545-37.986 2.525.513 5.206.816 8.012.816 7.794 0 16.533-2.303 25.422-8.704.27-.194.53-.402.779-.622.463-.409 11.426-9.831 26.01.388 8.406 7.102 29.165 15.828 50.823.234.27-.194.53-.402.779-.622.462-.409 11.425-9.829 26.008.386 8.397 7.102 29.14 15.827 50.819.24.329-.236.471-.336.754-.598 1.884-1.563 10.441-7.722 22.053-2.004zm-109.163-131.842c-39.441.894-74.474 19.93-97.064 49.065-10.018-12.939-22.496-23.903-36.695-32.133-18.319-10.617-39.145-16.433-60.404-16.922-3.994-8.831-6.722-18.044-8.157-27.556 2.531.516 5.219.82 8.032.82 7.794 0 16.533-2.303 25.422-8.704.324-.233.463-.331.743-.589 2.098-1.738 12.45-9.172 26.045.354 8.404 7.102 29.165 15.83 50.823.235.27-.194.53-.402.779-.622.463-.41 11.426-9.83 26.01.388 8.406 7.101 29.166 15.828 50.823.234.27-.194.53-.402.779-.622.42-.372 9.475-8.144 22.033-1.973-.672 13.266-3.742 26.012-9.169 38.025zm-97.098-149.907c53.292 0 97.556 39.336 105.234 90.469-14.889-3.218-27.653 2.829-33.797 8.014-13.589 9.545-23.939 2.102-26.038.36-.285-.263-.428-.364-.758-.601-21.657-15.566-42.418-6.847-50.816.24-13.592 9.545-23.941 2.101-26.038.36-.285-.263-.428-.364-.757-.6-21.66-15.568-42.42-6.847-50.817.241-9.828 6.903-17.959 4.921-22.502 2.635 2.718-56.216 49.352-101.118 106.289-101.118zm-99.976 169.87c35.912 0 68.529 17.504 88.354 47.093-7.995 14.984-13.063 31.753-14.421 49.545-1.118.749-1.959 1.391-2.457 1.796-13.625 9.618-24.003 2.153-26.105.408-.285-.263-.428-.364-.758-.601-21.656-15.564-42.396-6.85-50.788.241-13.61 9.545-23.939 2.105-26.032.365-.288-.266-.435-.37-.768-.609-21.677-15.559-42.419-6.844-50.811.244-9.842 6.901-17.966 4.923-22.502 2.64 2.729-56.221 49.358-101.122 106.288-101.122zm85.702 160.351h-177.365c-6.937-11.702-11.513-24.57-13.544-37.988 9.533 1.938 21.335.819 33.434-7.881.274-.197.538-.408.79-.631.462-.409 11.397-9.821 26.004.394 8.398 7.103 29.141 15.825 50.817.238.274-.197.538-.408.79-.631.462-.408 11.397-9.819 25.976.393 4.956 4.187 14.204 8.938 25.4 8.938 5.094 0 10.593-.994 16.273-3.463 1.494 14.129 5.358 27.837 11.425 40.631zm213.334 107.921h-398.091l-8.88-23.962h79.448c5.523 0 10-4.477 10-10s-4.477-10-10-10h-86.86l-16.292-43.959h34.434c.005 0 .011.001.016.001s.009-.001.014-.001h394.331c.005 0 .009.001.014.001s.011-.001.016-.001h34.434l-16.292 43.959h-254.016c-5.523 0-10 4.477-10 10s4.477 10 10 10h246.604z"/><path d="m172.422 447.538c-5.523 0-10 4.477-10 10s4.477 10 10 10h.057c5.523 0 9.972-4.477 9.972-10s-4.506-10-10.029-10z"/></g></g></svg>