<svg id="Capa_1" enable-background="new 0 0 511.998 511.998" height="512" viewBox="0 0 511.998 511.998" width="512" xmlns="http://www.w3.org/2000/svg"><g><g><path clip-rule="evenodd" d="m59.739 164.298c-21.655 21.677-21.655 56.842 0 78.52-19.052 19.072-21.34 48.538-6.894 70.13 10.928 16.323 20.425 24.741 27.319 41.465 4.691 11.369 11.3 20.131 18.938 26.345 9.24 7.503 19.996 11.254 30.752 11.254s21.484-3.751 30.723-11.254c7.638-6.214 14.246-14.977 18.938-26.345 6.923-16.723 16.42-25.142 27.348-41.465 14.446-21.592 12.129-51.058-6.894-70.13 21.655-21.677 21.655-56.842 0-78.52 21.655-21.677 21.655-56.842 0-78.52 2.117-51.946-33.956-76.057-70.115-75.771-36.159-.286-72.26 23.825-70.115 75.771-21.655 21.677-21.655 56.842 0 78.52z" fill="#ffa96b" fill-rule="evenodd"/></g><g><path clip-rule="evenodd" d="m99.102 380.757c-85.82 60.25-48.831 121.016-9.497 121.245h.4c15.39-.086 31.067-9.45 39.849-31.757v-78.234c-10.756 0-21.512-3.751-30.752-11.254z" fill="#ffbdbc" fill-rule="evenodd"/></g><g><path clip-rule="evenodd" d="m160.577 380.757c-9.24 7.503-19.967 11.254-30.723 11.254v78.234c8.754 22.307 24.43 31.671 39.82 31.757h.401c39.334-.229 76.35-60.995-9.498-121.245z" fill="#ff7b79" fill-rule="evenodd"/></g><g><path clip-rule="evenodd" d="m312.02 347.711c-21.655-21.706-21.655-56.842 0-78.52-19.023-19.072-21.34-48.567-6.894-70.13 10.928-16.323 20.425-24.77 27.348-41.494 4.691-11.34 11.3-20.131 18.938-26.345 9.211-7.503 19.967-11.254 30.723-11.254s21.512 3.751 30.752 11.254c7.638 6.214 14.217 15.005 18.909 26.345 6.923 16.723 16.42 25.171 27.348 41.494 14.446 21.563 12.158 51.058-6.894 70.13 21.655 21.677 21.655 56.814 0 78.52 21.655 21.677 21.655 56.814 0 78.52 2.145 51.917-33.956 76.029-70.115 75.742-36.159.286-72.231-23.825-70.115-75.742-21.655-21.706-21.655-56.842 0-78.52z" fill="#ffa96b" fill-rule="evenodd"/></g><g><path clip-rule="evenodd" d="m351.411 131.223c-85.848-60.25-48.831-121.016-9.497-121.216h.4c15.362.086 31.038 9.45 39.82 31.729v78.234c-10.755-.001-21.511 3.75-30.723 11.253z" fill="#ffbdbc" fill-rule="evenodd"/></g><g><path clip-rule="evenodd" d="m412.887 131.223c-9.24-7.503-19.996-11.254-30.752-11.254v-78.233c8.782-22.279 24.459-31.643 39.849-31.729h.401c39.333.2 76.321 60.966-9.498 121.216z" fill="#ff7b79" fill-rule="evenodd"/></g><g><path d="m111.955 101.764c1.946 0 3.913-.567 5.64-1.749 7.677-5.257 16.829-5.259 24.479-.007 4.554 3.124 10.779 1.969 13.904-2.586 3.125-4.554 1.968-10.778-2.585-13.904-14.509-9.958-32.555-9.961-47.095-.007-4.557 3.12-5.723 9.344-2.603 13.901 1.937 2.83 5.071 4.352 8.26 4.352z"/><path d="m111.955 174.814c1.947 0 3.914-.567 5.641-1.75 7.676-5.255 16.827-5.258 24.478-.007 4.553 3.126 10.778 1.97 13.904-2.585 3.125-4.553 1.968-10.778-2.585-13.903-14.51-9.962-32.556-9.963-47.096-.007-4.557 3.12-5.722 9.344-2.602 13.9 1.937 2.831 5.071 4.352 8.26 4.352z"/><path d="m153.392 229.59c-14.509-9.958-32.555-9.961-47.095-.007-4.557 3.12-5.723 9.344-2.603 13.901 1.938 2.83 5.071 4.352 8.26 4.352 1.946 0 3.913-.567 5.64-1.749 7.677-5.257 16.829-5.26 24.479-.007 4.554 3.124 10.779 1.968 13.904-2.586 3.126-4.554 1.968-10.778-2.585-13.904z"/><path d="m111.955 320.887c1.947 0 3.914-.567 5.641-1.75 7.676-5.255 16.827-5.258 24.478-.007 4.553 3.126 10.778 1.97 13.904-2.585 3.125-4.553 1.968-10.778-2.585-13.903-14.51-9.962-32.556-9.963-47.096-.007-4.557 3.12-5.722 9.344-2.602 13.9 1.937 2.83 5.071 4.352 8.26 4.352z"/><path d="m213.167 164.298c18.333-24.49 17.297-59.012-3.113-82.366.093-28.938-11.143-52.754-31.902-67.384-4.514-3.182-10.753-2.103-13.935 2.413-3.181 4.515-2.101 10.753 2.414 13.935 16.257 11.457 24.33 30.295 23.346 54.475-.114 2.79.944 5.5 2.917 7.475 17.733 17.751 17.733 46.635 0 64.386-3.9 3.904-3.9 10.23 0 14.135 17.733 17.751 17.733 46.634 0 64.385-3.898 3.902-3.901 10.224-.005 14.129 15.308 15.348 17.689 39.532 5.665 57.505-3.549 5.301-6.962 9.757-10.263 14.065-6.66 8.692-12.95 16.903-18.018 29.147-8.121 19.67-23.23 31.414-40.418 31.414-17.183 0-32.305-11.747-40.444-31.41-5.052-12.254-11.348-20.476-18.014-29.18-3.293-4.301-6.7-8.748-10.239-14.034-12.036-17.989-9.656-42.172 5.658-57.502 3.9-3.904 3.9-10.23 0-14.135-17.733-17.751-17.733-46.634 0-64.385 3.9-3.904 3.9-10.23 0-14.135-17.733-17.751-17.733-46.635 0-64.386 1.976-1.978 3.033-4.691 2.917-7.484-1.007-24.159 7.038-42.984 23.267-54.44 4.512-3.186 5.587-9.425 2.402-13.937-3.184-4.513-9.424-5.587-13.937-2.403-20.731 14.633-31.936 38.438-31.815 67.355-20.406 23.355-21.442 57.873-3.109 82.362-17.353 23.18-17.352 55.347.003 78.524-16.397 21.946-17.581 52.414-2.009 75.688 3.895 5.817 7.66 10.733 10.982 15.071 6.345 8.284 11.356 14.828 15.407 24.655 3.358 8.112 7.751 15.292 12.929 21.38-52.551 41.135-48.969 78.487-44.697 93.173 6.41 22.036 26.321 38.137 48.421 39.154.769.036 1.534.054 2.295.054 15.805-.001 29.873-7.604 39.978-21.146 10.1 13.542 24.165 21.146 39.971 21.146.757 0 1.521-.018 2.287-.053 22.103-1.015 42.017-17.114 48.428-39.152 4.272-14.686 7.853-52.035-44.697-93.166 5.176-6.09 9.565-13.274 12.915-21.39 4.06-9.808 9.069-16.347 15.412-24.625 3.329-4.346 7.102-9.271 11.008-15.104 15.56-23.256 14.374-53.724-2.014-75.681 17.36-23.178 17.361-55.347.007-78.528zm-124.67 327.668c-13.687-.63-26.08-10.813-30.137-24.762-3.189-10.961-5.247-39.554 40.856-74.171 6.38 4.007 13.339 6.752 20.637 8.072v67.166c-6.708 15.695-18.059 24.3-31.356 23.695zm112.835-24.76c-4.058 13.95-16.453 24.132-30.14 24.76-13.304.606-24.637-7.998-31.338-23.688v-67.172c7.295-1.319 14.25-4.061 20.623-8.062 46.102 34.612 44.044 63.201 40.855 74.162z"/><path d="m394.379 411.976c-7.668 5.27-16.808 5.271-24.45.008-4.548-3.136-10.775-1.986-13.908 2.561-3.133 4.549-1.986 10.775 2.562 13.908 7.261 5.003 15.406 7.504 23.556 7.504 8.146 0 16.295-2.499 23.568-7.496 4.552-3.128 5.706-9.354 2.578-13.905-3.129-4.555-9.354-5.706-13.906-2.58z"/><path d="m394.393 338.944c-7.676 5.255-16.827 5.258-24.478.007-4.554-3.126-10.778-1.969-13.904 2.585-3.125 4.553-1.968 10.778 2.585 13.903 7.256 4.981 15.397 7.472 23.542 7.472 8.141 0 16.286-2.488 23.554-7.465 4.557-3.12 5.722-9.344 2.602-13.9-3.12-4.559-9.345-5.721-13.901-2.602z"/><path d="m358.596 282.391c7.256 4.98 15.397 7.471 23.542 7.471 8.141 0 16.285-2.488 23.554-7.464 4.557-3.12 5.723-9.344 2.603-13.901-3.121-4.558-9.343-5.72-13.9-2.603-7.676 5.258-16.828 5.261-24.479.007-4.553-3.124-10.779-1.969-13.904 2.586-3.127 4.553-1.969 10.778 2.584 13.904z"/><path d="m394.393 192.844c-7.676 5.255-16.827 5.258-24.478.007-4.554-3.125-10.778-1.97-13.904 2.585-3.125 4.553-1.968 10.778 2.585 13.903 7.256 4.981 15.397 7.472 23.542 7.472 8.141 0 16.286-2.488 23.554-7.465 4.557-3.12 5.722-9.344 2.602-13.9-3.12-4.559-9.345-5.722-13.901-2.602z"/><path d="m465.444 269.187c16.41-21.955 17.593-52.427 2.009-75.689-3.896-5.818-7.662-10.739-10.985-15.081-6.352-8.299-11.368-14.854-15.431-24.668-3.352-8.111-7.739-15.291-12.911-21.378 52.551-41.118 48.972-78.465 44.701-93.15-6.411-22.044-26.331-38.15-48.44-39.168-16.721-.763-31.663 6.895-42.25 21.074-10.584-14.186-25.522-21.849-42.256-21.073-22.107 1.018-42.023 17.122-48.432 39.164-4.269 14.683-7.844 52.026 44.703 93.14-5.176 6.089-9.566 13.271-12.919 21.385-4.065 9.82-9.082 16.376-15.434 24.675-3.323 4.341-7.088 9.262-10.982 15.078-15.575 23.248-14.391 53.72 2.01 75.688-17.345 23.168-17.346 55.335-.003 78.523-18.322 24.479-17.286 58.999 3.108 82.365-.09 23.658 7.311 43.821 21.529 58.514 14.407 14.889 35.526 23.391 58.044 23.391.208 0 .42-.001.629-.003.21.002.419.003.629.003 22.53-.001 43.664-8.511 58.074-23.41 14.21-14.693 21.602-34.85 21.5-58.496 20.395-23.366 21.428-57.885 3.106-82.363 17.343-23.188 17.343-55.353.001-78.521zm-73.309-225.483c6.7-15.681 18.045-24.283 31.333-23.672 13.695.63 26.096 10.817 30.154 24.773 3.187 10.96 5.244 39.545-40.853 74.144-6.378-4.008-13.336-6.754-20.635-8.075v-67.17zm-81.481 1.098c4.057-13.954 16.454-24.14 30.146-24.77 13.293-.603 24.635 7.994 31.334 23.676v67.166c-7.293 1.319-14.247 4.063-20.62 8.065-46.099-34.596-44.046-63.18-40.86-74.137zm134.52 231.457c17.721 17.739 17.719 46.624-.004 64.39-3.896 3.905-3.894 10.228.004 14.13 17.721 17.739 17.719 46.625-.004 64.391-1.972 1.976-3.028 4.687-2.913 7.476.822 19.879-4.641 36.483-15.796 48.018-10.659 11.021-26.557 17.314-43.693 17.314-.184 0-.37-.001-.554-.003-.026 0-.053 0-.079 0s-.053 0-.079 0c-.185.002-.369.003-.554.003-17.123-.001-33.013-6.288-43.667-17.299-11.162-11.534-16.633-28.146-15.822-48.039.114-2.787-.942-5.495-2.913-7.47-17.724-17.766-17.726-46.651-.004-64.391 3.898-3.902 3.9-10.225.004-14.13-17.723-17.766-17.726-46.65-.004-64.39 3.898-3.902 3.901-10.225.005-14.13-15.317-15.355-17.7-39.539-5.665-57.504 3.543-5.292 6.951-9.745 10.247-14.052 6.666-8.71 12.962-16.937 18.033-29.186 3.855-9.328 9.281-16.869 15.75-22.226.205-.156.408-.313.602-.486 7.045-5.63 15.284-8.707 24.067-8.707 17.178 0 32.288 11.745 40.421 31.425 5.068 12.243 11.365 20.47 18.031 29.18 3.296 4.306 6.704 8.759 10.249 14.054 12.043 17.978 9.663 42.158-5.661 57.497-3.901 3.904-3.901 10.23-.001 14.135z"/><path d="m129.797 20.007h.057c5.523 0 9.971-4.478 9.971-10s-4.505-10-10.028-10-10 4.478-10 10 4.477 10 10 10z"/></g></g></svg>