<svg id="Capa_1" enable-background="new 0 0 511.991 511.991" height="512" viewBox="0 0 511.991 511.991" width="512" xmlns="http://www.w3.org/2000/svg"><g><g><path clip-rule="evenodd" d="m71.889 284.526h142.78l8.419-28.728c-12.784-37.207-3.94-66.417 16.157-84.765v-25.154l6.661-9.387c7.682-10.861 14.031-24.956 8.164-38.058-5.187-11.57-17.773-19.227-29.423-22.886-18.17-5.757-38.154-3.942-55.644 3.205l-13.606 5.53-13.606-5.53c-17.49-7.146-37.474-8.961-55.644-3.205-11.65 3.658-24.236 11.315-29.423 22.886-5.868 13.102.454 27.196 8.164 38.058l6.661 9.387v136.095c-.001.595.084 1.701.34 2.552z" fill="#ffd4b5" fill-rule="evenodd"/></g><g><path clip-rule="evenodd" d="m239.245 145.879v25.154c12.359-11.287 28.97-18.462 47.423-20.872 50.797-80.738-42.604-149.338-131.13-113.294-90.623-36.867-186.376 35.817-127.331 118.994v132.266c0 22.602 15.08 41.064 37.02 41.064h136.317l13.124-44.665h-142.779c-.255-.851-.34-1.957-.34-2.552v-136.095l-6.661-9.387c-7.71-10.861-14.031-24.956-8.164-38.058 5.187-11.57 17.773-19.227 29.423-22.886 18.17-5.757 38.154-3.942 55.644 3.205l13.606 5.53 13.606-5.53c17.49-7.146 37.474-8.961 55.644-3.205 11.65 3.658 24.236 11.315 29.423 22.886 5.868 13.102-.482 27.196-8.164 38.058z" fill="#ffa96b" fill-rule="evenodd"/></g><g><path clip-rule="evenodd" d="m266.656 208.722c8.22-9.642 22.479-13.414 34.668-13.641 19.049-.397 37.701 7.005 52.497 18.774l11.48 9.132 14.598-1.475c18.822-1.9 38.494 1.985 54.311 12.62 10.12 6.806 20.069 17.696 21.77 30.259 1.956 14.236-8.107 25.977-18.538 34.201l-9.042 7.146-38.353 130.565c-.17.596-.567 1.616-1.049 2.382l-160.241-47.104c0-.908.227-1.985.397-2.552l38.352-130.593-3.742-10.89c-4.337-12.563-6.434-27.905 2.892-38.824zm-65.112 120.469-15.704 53.513c-6.378 21.666 2.891 43.644 23.924 49.827l173.309 50.961c21.061 6.182 40.734-7.288 47.083-28.954l37.275-126.906c16.838-13.272 26.957-28.019 31.578-42.964v-39.476c-12.359-40.809-61.568-73.563-120.217-67.636-28.857-22.999-62.815-31.223-92.125-27.395-18.453 2.41-35.064 9.585-47.423 20.872-20.098 18.348-28.942 47.558-16.157 84.765l-8.419 28.728z" fill="#ffa96b" fill-rule="evenodd"/></g><g><path clip-rule="evenodd" d="m228.757 391.581 160.241 47.104c.482-.766.879-1.787 1.049-2.382l38.353-130.565 9.042-7.146c10.431-8.224 20.494-19.965 18.538-34.201-1.701-12.563-11.65-23.453-21.77-30.259-15.817-10.635-35.49-14.52-54.311-12.62l-14.598 1.475-11.48-9.132c-14.797-11.769-33.449-19.171-52.497-18.774-12.189.227-26.447 3.999-34.668 13.641-9.326 10.918-7.228 26.26-2.891 38.823l3.742 10.89-38.352 130.593c-.171.568-.398 1.646-.398 2.553z" fill="#ffd4b5" fill-rule="evenodd"/></g><g><path d="m177.454 219.493-33.958-10.379c-5.284-1.612-10.872 1.359-12.486 6.64-1.615 5.282 1.358 10.872 6.64 12.486l33.958 10.379c.975.297 1.958.439 2.927.439 4.281 0 8.243-2.772 9.56-7.079 1.613-5.282-1.36-10.872-6.641-12.486z"/><path d="m177.454 175.99-33.958-10.379c-5.284-1.612-10.872 1.359-12.486 6.64-1.615 5.282 1.358 10.872 6.64 12.486l33.958 10.379c.975.297 1.958.439 2.927.439 4.281 0 8.243-2.772 9.56-7.079 1.613-5.281-1.36-10.871-6.641-12.486z"/><path d="m177.454 132.459-33.958-10.379c-5.284-1.614-10.872 1.359-12.486 6.64-1.615 5.282 1.358 10.872 6.64 12.486l33.958 10.379c.975.297 1.958.439 2.927.439 4.281 0 8.243-2.772 9.56-7.079 1.613-5.281-1.36-10.871-6.641-12.486z"/><path d="m506.054 235.125c-8.533-21.101-25.703-39.554-48.348-51.96-22.699-12.437-48.861-17.906-75.884-15.911-21.649-16.305-46.604-25.856-72.421-27.681-1.934-.136-3.856-.213-5.773-.259 5.52-12.917 7.975-25.883 7.286-38.717-.902-16.805-7.345-32.801-18.63-46.259-14.403-17.175-35.993-29.469-60.793-34.62-24.886-5.17-51.061-2.947-75.954 6.412-25.373-9.533-52.013-11.655-77.298-6.122-25.225 5.52-46.9 18.385-61.032 36.224-11.258 14.211-17.208 30.996-17.207 48.54.001 18.099 6.125 36.323 18.207 54.212v129.143c0 29.111 20.214 51.063 47.02 51.063h122.963l-11.943 40.69c-3.825 12.995-3.044 26.397 2.199 37.74 5.563 12.036 15.684 20.738 28.495 24.504l43.568 12.818c5.297 1.56 10.857-1.471 12.417-6.77 1.559-5.298-1.473-10.857-6.771-12.415l-43.571-12.819c-7.304-2.146-12.831-6.887-15.984-13.709-3.208-6.941-3.623-15.358-1.165-23.708l28.71-97.82c.066-.197.122-.398.176-.6l8.36-28.486c.584-1.989.535-4.11-.14-6.07-11.479-33.355-4.324-62.186 19.63-79.102 27.76-19.603 78.027-21.798 120.391 11.936 2.042 1.625 4.634 2.391 7.235 2.126 53.877-5.446 94.969 23.605 107.713 55.118 10.997 27.193 1.421 55.316-26.272 77.157-1.629 1.284-2.817 3.043-3.402 5.033l-37.277 126.912c-2.444 8.342-7.343 15.194-13.792 19.293-6.342 4.03-13.562 5.025-20.872 2.88l-43.568-12.818c-5.295-1.56-10.856 1.473-12.416 6.77-1.559 5.298 1.473 10.857 6.771 12.415l43.574 12.82c4.35 1.277 8.744 1.909 13.092 1.909 8.469 0 16.752-2.399 24.146-7.098 10.544-6.701 18.448-17.549 22.256-30.542l36.396-123.91c16.633-13.759 27.643-29.52 32.742-46.889 4.945-16.833 3.965-34.618-2.834-51.43zm-268.303-104.42-6.661 9.387c-1.2 1.691-1.845 3.713-1.845 5.787v20.938c-8.832 9.039-15.252 19.895-18.812 32.009-5.104 17.366-4.369 36.579 2.18 57.152l-5.444 18.549h-125.621v-128.648c0-2.074-.645-4.096-1.845-5.787l-6.662-9.388c-8.061-11.356-10.481-20.838-7.193-28.179 3.894-8.685 14.586-14.702 23.319-17.444 15.135-4.796 32.481-3.756 48.857 2.936l13.606 5.53c2.415.981 5.116.981 7.531 0l13.624-5.537c16.359-6.684 33.706-7.725 48.865-2.921 8.708 2.735 19.401 8.751 23.293 17.432 3.278 7.32.855 16.806-7.192 28.184zm42.713 10.3c-11.231 1.968-21.784 5.599-31.219 10.765v-2.703l4.826-6.8c15.478-21.885 13.506-38.138 9.125-47.922-8.086-18.037-27.557-25.825-35.528-28.327-19.588-6.208-41.766-4.971-62.429 3.473l-9.841 4-9.823-3.993c-20.682-8.45-42.86-9.687-62.422-3.488-7.996 2.511-27.466 10.298-35.554 28.339-4.393 9.808-6.373 26.085 9.135 47.932l4.816 6.787v132.907c0 .868.074 3.135.763 5.427 1.27 4.229 5.162 7.124 9.578 7.124h129.411l-7.24 24.666h-128.835c-15.656 0-27.02-13.064-27.02-31.064v-132.267c0-2.074-.645-4.097-1.846-5.788-20.417-28.761-21.685-58.439-3.477-81.423 21.104-26.64 68.716-42.931 118.886-22.52 2.417.984 5.124.983 7.54-.001 48.934-19.926 96.225-4.487 117.649 21.06 17.613 21.002 18.796 47.08 3.505 73.816z"/><path d="m218.757 391.581c0 4.436 2.923 8.342 7.18 9.594l160.241 47.104c.934.274 1.883.407 2.82.407 3.37 0 6.596-1.71 8.461-4.67 1.334-2.118 2.024-4.34 2.183-4.895l37.455-127.511 6.537-5.166c21.043-16.592 23.717-32.767 22.256-43.395-2.644-19.523-19.131-32.529-26.099-37.215-17.028-11.449-38.658-16.517-60.896-14.27l-10.552 1.066-8.298-6.6c-17.52-13.933-38.475-21.388-58.908-20.945-8.393.156-29.294 2.141-42.084 17.144-6.989 8.182-13.484 23.251-4.746 48.567l2.707 7.878-37.437 127.479c-.247.82-.82 2.991-.82 5.428zm58.344-130.328c.584-1.988.536-4.108-.138-6.067l-3.745-10.904c-4.543-13.159-4.192-22.938 1.049-29.073 6.146-7.209 18.103-9.96 27.265-10.13 15.858-.339 32.188 5.566 46.063 16.602l11.48 9.132c2.041 1.623 4.638 2.388 7.23 2.123l14.599-1.475c17.608-1.774 34.562 2.118 47.726 10.968 9.842 6.62 16.361 15.331 17.443 23.323 1.095 7.963-3.893 16.37-14.831 24.995l-9.043 7.146c-1.625 1.284-2.811 3.04-3.395 5.027l-36.261 123.445-141.7-41.654z"/><path d="m348.382 358.957-29.65-19.54c-4.613-3.04-10.814-1.764-13.853 2.847-3.039 4.612-1.765 10.813 2.847 13.852l29.65 19.54c1.695 1.117 3.604 1.651 5.494 1.651 3.249 0 6.437-1.582 8.358-4.498 3.04-4.612 1.765-10.813-2.846-13.852z"/><path d="m360.627 317.212-29.649-19.539c-4.61-3.037-10.813-1.766-13.853 2.847-3.039 4.612-1.765 10.813 2.847 13.852l29.649 19.539c1.695 1.117 3.604 1.651 5.493 1.651 3.25 0 6.438-1.582 8.359-4.498 3.04-4.612 1.765-10.813-2.846-13.852z"/><path d="m372.896 275.435-29.65-19.511c-4.615-3.038-10.816-1.756-13.851 2.856-3.036 4.613-1.757 10.814 2.856 13.85l29.65 19.511c1.693 1.115 3.602 1.647 5.487 1.647 3.253 0 6.442-1.584 8.363-4.504 3.037-4.612 1.758-10.813-2.855-13.849z"/><path d="m296.419 448.026c-5.522 0-10 4.477-10 10s4.478 10 10 10h.057c5.522 0 9.972-4.477 9.972-10s-4.507-10-10.029-10z"/></g></g></svg>