<svg id="Capa_1" enable-background="new 0 0 512 512" height="512" viewBox="0 0 512 512" width="512" xmlns="http://www.w3.org/2000/svg"><g><g><path clip-rule="evenodd" d="m113.718 197.655c50.144 50.124 121.462 66.19 185.184 48.226l35.206-35.192 13.606 13.572c11.849-7.424 23.074-16.292 33.391-26.606 35.461-35.447 55.388-83.531 55.388-133.655h-189.068-189.095c0 50.124 19.927 98.208 55.388 133.655z" fill="#ff7b79" fill-rule="evenodd"/></g><g><path clip-rule="evenodd" d="m79.533 231.799c45.353 45.364 104.511 68.485 163.953 69.477l55.416-55.395c-63.722 17.964-135.04 1.898-185.184-48.226-35.461-35.447-55.388-83.531-55.388-133.655h-48.33c0 62.932 25.001 123.313 69.533 167.799z" fill="#a0e5a5" fill-rule="evenodd"/></g><g><path clip-rule="evenodd" d="m200.399 344.344c73.841 73.784 193.574 73.784 267.415 0l-85.236-85.203-34.865-34.88-13.606-13.572-35.206 35.192-55.416 55.395z" fill="#ffbdbc" fill-rule="evenodd"/></g><g><path clip-rule="evenodd" d="m166.243 378.488c92.719 92.683 243.038 92.683 335.757 0l-34.185-34.143c-73.841 73.784-193.574 73.784-267.415 0z" fill="#d0f2d2" fill-rule="evenodd"/></g><g><path clip-rule="evenodd" d="m382.579 259.142c11.508-7.99 22.45-17.086 32.711-27.343 44.531-44.486 69.532-104.867 69.532-167.799h-48.33c0 50.124-19.927 98.208-55.388 133.655-10.318 10.314-21.543 19.183-33.391 26.606z" fill="#a0e5a5" fill-rule="evenodd"/></g><g><path d="m509.069 371.415-111.163-111.102c8.591-6.6 16.786-13.777 24.452-21.44 23.092-23.068 41.138-50.062 53.636-80.229 12.494-30.156 18.829-61.999 18.829-94.644 0-5.523-4.477-10-10-10h-138.017c-5.523 0-10 4.477-10 10s4.477 10 10 10h79.404c-2.411 44.054-20.716 85.137-52.175 116.583-7.707 7.705-16.112 14.685-25.04 20.847l-7.819-7.814c-3.905-3.902-10.234-3.902-14.139.001l-33.298 33.285c-61.711 16.462-127.764-1.15-172.951-46.319-31.459-31.446-49.764-72.529-52.176-116.583h183.888c5.523 0 10-4.477 10-10s-4.477-10-10-10h-242.5c-5.523 0-10 4.477-10 10 0 32.645 6.335 64.488 18.829 94.644 12.498 30.167 30.544 57.161 53.632 80.225 40.246 40.255 92.236 64.999 148.282 71l-61.57 61.546c-1.876 1.875-2.93 4.419-2.93 7.072s1.054 5.197 2.93 7.072c46.732 46.715 108.863 72.441 174.948 72.441s128.216-25.726 174.949-72.44c1.876-1.875 2.93-4.42 2.93-7.073s-1.054-5.197-2.931-7.072zm-120.895-166.687c18.581-18.574 33.103-40.297 43.16-64.567 8.777-21.181 13.777-43.392 14.908-66.16h28.365c-2.449 56.986-25.802 110.183-66.388 150.726-7.676 7.673-15.929 14.811-24.597 21.313l-20.268-20.256c8.808-6.322 17.127-13.366 24.82-21.056zm-54.067 20.1 119.371 119.304c-67.761 60.613-170.968 60.616-238.732.01l91.113-91.078c.013-.012.025-.025.038-.038zm-247.507-.104c-40.583-40.541-63.937-93.738-66.386-150.724h28.365c1.131 22.768 6.131 44.98 14.908 66.16 10.058 24.27 24.579 45.994 43.16 64.567 37.815 37.8 88.766 58.254 140.912 58.254 7.064 0 14.151-.381 21.23-1.14l-29.327 29.316c-57.789-2.007-111.932-25.493-152.862-66.433zm93.941 153.61 20.037-20.029c37.795 34.189 85.661 51.286 133.529 51.286 47.873 0 95.744-17.101 133.541-51.297l20.052 20.041c-86.668 79.41-220.491 79.41-307.159-.001z"/><path d="m237.397 185.613v13.657c0 5.523 4.477 10 10 10s10-4.477 10-10v-13.657c0-5.523-4.477-10-10-10s-10 4.477-10 10z"/><path d="m173.704 151.243v13.657c0 5.523 4.477 10 10 10s10-4.477 10-10v-13.658c0-5.523-4.477-10-10-10s-10 4.478-10 10.001z"/><path d="m119.79 107.097v13.629c0 5.523 4.477 10 10 10s10-4.477 10-10v-13.629c0-5.523-4.477-10-10-10s-10 4.477-10 10z"/><path d="m301.119 151.243v13.657c0 5.523 4.477 10 10 10s10-4.477 10-10v-13.658c0-5.523-4.477-10-10-10s-10 4.478-10 10.001z"/><path d="m375.004 120.726v-13.629c0-5.523-4.477-10-10-10s-10 4.477-10 10v13.629c0 5.523 4.477 10 10 10s10-4.477 10-10z"/><path d="m334.107 302.265c5.523 0 10-4.477 10-10v-13.658c0-5.523-4.477-10-10-10s-10 4.477-10 10v13.658c0 5.523 4.477 10 10 10z"/><path d="m289.803 312.782c-5.523 0-10 4.477-10 10v13.629c0 5.523 4.477 10 10 10s10-4.477 10-10v-13.629c0-5.523-4.477-10-10-10z"/><path d="m378.412 346.411c5.523 0 10-4.477 10-10v-13.629c0-5.523-4.477-10-10-10s-10 4.477-10 10v13.629c0 5.523 4.477 10 10 10z"/><path d="m297.399 74h.057c5.523 0 9.972-4.477 9.972-10s-4.505-10-10.028-10-10 4.477-10 10 4.476 10 9.999 10z"/></g></g></svg>